<?xml version="1.0" encoding="utf-8"?>
<!-- Generator: Adobe Illustrator 15.0.0, SVG Export Plug-In . SVG Version: 6.00 Build 0)  -->
<!DOCTYPE svg PUBLIC "-//W3C//DTD SVG 1.1//EN" "http://www.w3.org/Graphics/SVG/1.1/DTD/svg11.dtd">
<svg version="1.1" id="Layer_1" xmlns="http://www.w3.org/2000/svg" xmlns:xlink="http://www.w3.org/1999/xlink" x="0px" y="0px"
	 width="60px" height="60px" viewBox="0 0 60 60" enable-background="new 0 0 60 60" xml:space="preserve">
<defs>
	<filter id="Adobe_OpacityMaskFilter" filterUnits="userSpaceOnUse" x="0" y="0" width="60" height="60">
		<feColorMatrix  type="matrix" values="1 0 0 0 0  0 1 0 0 0  0 0 1 0 0  0 0 0 1 0"/>
	</filter>
</defs>
<mask maskUnits="userSpaceOnUse" x="0" y="0" width="60" height="60" id="SVGID_1_">
	<g filter="url(#Adobe_OpacityMaskFilter)">
		<g>
			<radialGradient id="SVGID_2_" cx="30" cy="30" r="30" gradientUnits="userSpaceOnUse">
				<stop  offset="0" style="stop-color:#000000"/>
				<stop  offset="0.3726" style="stop-color:#020202"/>
				<stop  offset="0.5069" style="stop-color:#090909"/>
				<stop  offset="0.6026" style="stop-color:#141414"/>
				<stop  offset="0.68" style="stop-color:#252525"/>
				<stop  offset="0.7463" style="stop-color:#3B3B3B"/>
				<stop  offset="0.805" style="stop-color:#575757"/>
				<stop  offset="0.8581" style="stop-color:#777777"/>
				<stop  offset="0.9069" style="stop-color:#9D9D9D"/>
				<stop  offset="0.9523" style="stop-color:#C8C8C8"/>
				<stop  offset="0.9926" style="stop-color:#F6F6F6"/>
				<stop  offset="1" style="stop-color:#FFFFFF"/>
			</radialGradient>
			<circle fill="url(#SVGID_2_)" cx="30" cy="30" r="30"/>
		</g>
	</g>
</mask>
<g mask="url(#SVGID_1_)">
	<circle fill="#FFFFFF" cx="30" cy="30" r="30"/>
</g>
<g>
	<g>
		<path fill="#FFFFFF" d="M30,3c14.888,0,27,12.112,27,27S44.888,57,30,57S3,44.888,3,30S15.112,3,30,3 M30,0
			C13.432,0,0,13.432,0,30c0,16.569,13.432,30,30,30c16.569,0,30-13.431,30-30C60,13.432,46.569,0,30,0L30,0z"/>
	</g>
</g>
<g>
	<circle fill="#F08930" cx="29.892" cy="29.856" r="2.083"/>
	<g>
		<path fill="#F08930" d="M45.764,33.254h-3.143c-1.287,4.83-5.246,8.567-10.201,9.53l-0.227-0.906
			c-0.665-3.792-0.355-6.604,0.525-7.794c0.517-0.391,0.785-0.555,1.161-1.012c0.096-0.115,0.173-0.215,0.256-0.344
			c-0.837-0.559-1.395-1.508-1.395-2.578v-4.311c-0.716-0.486-1.581-0.875-2.849-0.875c-1.702,0-2.644,0.73-3.593,1.414
			c-2.119,0.667-5.318,0.229-7.941-0.854l-0.782-0.343c1.887-4.968,6.684-8.503,12.316-8.503c1.769,0,3.456,0.35,4.997,0.983
			c0.011-1.123,0.289-2.199,0.8-3.141c-1.803-0.682-3.756-1.056-5.797-1.056c-9.055,0-16.393,7.338-16.393,16.392
			c0,9.053,7.338,16.392,16.393,16.392c7.889,0,14.476-5.574,16.039-12.998C45.875,33.253,45.82,33.254,45.764,33.254z
			 M22.995,28.63c0.068-0.378,0.395-0.655,0.779-0.655c0.046,0,0.092,0.003,0.139,0.011c0.208,0.037,0.39,0.157,0.511,0.331
			c0.121,0.173,0.167,0.387,0.13,0.595c-0.068,0.378-0.395,0.662-0.779,0.662l0,0c-0.046,0-0.093-0.013-0.139-0.022
			C23.205,29.477,22.918,29.06,22.995,28.63z M20.457,28.172c0.066-0.378,0.395-0.652,0.777-0.652c0.047,0,0.095,0.004,0.141,0.013
			c0.208,0.037,0.39,0.155,0.509,0.328c0.122,0.174,0.168,0.378,0.13,0.586c-0.066,0.378-0.393,0.648-0.777,0.648l0,0
			c-0.046,0-0.092,0-0.14-0.008c-0.209-0.037-0.39-0.151-0.51-0.324C20.466,28.589,20.42,28.38,20.457,28.172z M27.558,41.873
			l-0.267,0.891c-5.92-1.186-10.4-6.329-10.563-12.561L17.59,30.1c2.514-0.141,6.707,0.995,7.63,1.709
			c0.339,0.573,0.328,0.818,0.923,1.457c0.453,0.486,0.792,0.69,1.127,0.885C27.817,35.543,28.19,38.572,27.558,41.873z
			 M29.891,39.439c-0.436,0-0.791-0.355-0.791-0.791c0-0.438,0.355-0.791,0.791-0.791c0.438,0,0.793,0.354,0.793,0.791
			C30.684,39.084,30.328,39.439,29.891,39.439z M29.891,36.86c-0.436,0-0.791-0.354-0.791-0.791s0.355-0.791,0.791-0.791
			c0.438,0,0.793,0.354,0.793,0.791S30.328,36.86,29.891,36.86z M29.893,32.342c-1.374,0-2.488-1.112-2.488-2.486
			s1.114-2.487,2.488-2.487c1.372,0,2.484,1.113,2.484,2.487S31.265,32.342,29.893,32.342z"/>
		<path fill="#F08930" d="M38.077,15.651c-0.424,0.695-0.675,1.556-0.675,2.487l0.005,0.897c1.08,0.754,2.042,1.666,2.853,2.702
			h3.874C42.691,19.21,40.596,17.105,38.077,15.651z"/>
	</g>
	<path fill="#F08930" d="M44.938,21.896c-0.098,0-0.189-0.145-0.258-0.213c-0.068-0.069-0.106-0.214-0.106-0.312l0.011-3.206
		c0-2.501-1.69-4.55-3.767-4.55c-2.078,0-3.767,2.026-3.767,4.525l0.017,3.181c0.002,0.098-0.037,0.294-0.105,0.363
		s-0.161,0.211-0.258,0.211h-1.079c-0.199,0-0.363-0.268-0.363-0.468l-0.024-3.694c0-3.285,2.424-5.982,5.51-5.982
		c3.088,0,5.51,2.641,5.51,5.919v3.649c0,0.202,0.018,0.576-0.185,0.576H44.938z"/>
	<g>
		<path fill="#F08930" d="M48.5,30.15c0,1.505-1.231,2.736-2.736,2.736h-9.904c-1.505,0-2.736-1.231-2.736-2.736v-5.342
			c0-1.505,1.231-2.736,2.736-2.736h9.904c1.505,0,2.736,1.231,2.736,2.736V30.15z"/>
	</g>
</g>
</svg>
