<?xml version="1.0" encoding="utf-8"?>
<!-- Generator: Adobe Illustrator 15.0.0, SVG Export Plug-In . SVG Version: 6.00 Build 0)  -->
<!DOCTYPE svg PUBLIC "-//W3C//DTD SVG 1.1//EN" "http://www.w3.org/Graphics/SVG/1.1/DTD/svg11.dtd">
<svg version="1.1" id="Layer_1" xmlns="http://www.w3.org/2000/svg" xmlns:xlink="http://www.w3.org/1999/xlink" x="0px" y="0px"
	 width="60px" height="60px" viewBox="0 0 60 60" enable-background="new 0 0 60 60" xml:space="preserve">
<defs>
	<filter id="Adobe_OpacityMaskFilter" filterUnits="userSpaceOnUse" x="0" y="0" width="60" height="60">
		<feColorMatrix  type="matrix" values="1 0 0 0 0  0 1 0 0 0  0 0 1 0 0  0 0 0 1 0"/>
	</filter>
</defs>
<mask maskUnits="userSpaceOnUse" x="0" y="0" width="60" height="60" id="SVGID_1_">
	<g filter="url(#Adobe_OpacityMaskFilter)">
		<g>
			<radialGradient id="SVGID_2_" cx="30" cy="30" r="30" gradientUnits="userSpaceOnUse">
				<stop  offset="0" style="stop-color:#000000"/>
				<stop  offset="0.3726" style="stop-color:#020202"/>
				<stop  offset="0.5069" style="stop-color:#090909"/>
				<stop  offset="0.6026" style="stop-color:#141414"/>
				<stop  offset="0.68" style="stop-color:#252525"/>
				<stop  offset="0.7463" style="stop-color:#3B3B3B"/>
				<stop  offset="0.805" style="stop-color:#575757"/>
				<stop  offset="0.8581" style="stop-color:#777777"/>
				<stop  offset="0.9069" style="stop-color:#9D9D9D"/>
				<stop  offset="0.9523" style="stop-color:#C8C8C8"/>
				<stop  offset="0.9926" style="stop-color:#F6F6F6"/>
				<stop  offset="1" style="stop-color:#FFFFFF"/>
			</radialGradient>
			<circle fill="url(#SVGID_2_)" cx="30" cy="30" r="30"/>
		</g>
	</g>
</mask>
<g mask="url(#SVGID_1_)">
	<circle fill="#FFFFFF" cx="30" cy="30" r="30"/>
</g>
<g>
	<path fill="#FFEA00" d="M15.748,33.88c-0.744,0-1.343,0.603-1.343,1.342c0,0.745,0.603,1.344,1.343,1.344
		c0.744,0,1.343-0.603,1.343-1.344C17.091,34.482,16.488,33.88,15.748,33.88z"/>
	<path fill="#FFEA00" d="M37.776,33.88c-0.743,0-1.342,0.603-1.342,1.342c0,0.745,0.603,1.344,1.342,1.344
		c0.745,0,1.343-0.603,1.343-1.344C39.123,34.482,38.521,33.88,37.776,33.88z"/>
	<path fill="#FFEA00" d="M48.502,29.569c-0.296-0.099-0.512-0.193-1.606-0.445l-1.563-6.457l1.425-1.492
		c0,0,0.705-0.035,1.343,0.182c0.178-0.445-1.551-1.114-1.551-1.114l-6.819,7.248c0,0-9.232-5.358-10.272-5.358
		c-1.149,0-9.039,0.004-9.039,0.004c-1.926,0-3.54,1.469-5.406,3.17c-0.878,0.799-1.851,1.681-2.921,2.468l-1.099,0.532
		C10.417,28.486,10,29.025,10,29.663v4.566c0,0.788,0.638,1.43,1.43,1.43h-0.15c0.201,2.292,2.126,4.099,4.473,4.099
		c2.343,0,4.271-1.807,4.473-4.099h13.079c0.197,2.292,2.127,4.099,4.469,4.099c2.343,0,4.272-1.807,4.469-4.099h2.253
		c1.783,0,5.051-0.165,5.268-0.889C50.313,32.943,49.915,30.042,48.502,29.569z M15.748,37.592c-1.283,0-2.326-1.042-2.326-2.326
		c0-1.283,1.043-2.322,2.326-2.322s2.327,1.043,2.327,2.322C18.075,36.55,17.031,37.592,15.748,37.592z M19.686,29.104h-1.918
		c-0.117,0-0.212-0.095-0.212-0.213s0.095-0.213,0.212-0.213h1.918c0.118,0,0.213,0.095,0.213,0.213S19.804,29.104,19.686,29.104z
		 M24.383,27.585h-7.8c0.563-0.445,1.087-0.918,1.567-1.358c1.264-1.153,2.354-2.146,3.657-2.146c0,0,1.181,0,2.575,0V27.585z
		 M28.997,29.104h-1.918c-0.118,0-0.212-0.095-0.212-0.213s0.094-0.213,0.212-0.213h1.918c0.118,0,0.212,0.095,0.212,0.213
		S29.115,29.104,28.997,29.104z M26.28,27.585v-3.504c0.965,0,1.823,0,2.256,0c1.075,0,5.434,2.531,7.071,3.504H26.28z
		 M37.772,37.592c-1.283,0-2.322-1.042-2.322-2.326c0-1.283,1.043-2.322,2.322-2.322c1.28,0,2.327,1.043,2.327,2.322
		C40.096,36.55,39.053,37.592,37.772,37.592z M40.446,27.734l4.606-4.756l1.465,6.06C45.596,28.829,41.057,27.868,40.446,27.734z"/>
</g>
<g>
	<g>
		<path fill="#FFFFFF" d="M30,3c14.888,0,27,12.112,27,27S44.888,57,30,57S3,44.888,3,30S15.112,3,30,3 M30,0
			C13.432,0,0,13.432,0,30c0,16.569,13.432,30,30,30c16.569,0,30-13.431,30-30C60,13.432,46.569,0,30,0L30,0z"/>
	</g>
</g>
</svg>
