<?xml version="1.0" encoding="UTF-8" standalone="no"?>
<svg
   xmlns:dc="http://purl.org/dc/elements/1.1/"
   xmlns:cc="http://creativecommons.org/ns#"
   xmlns:rdf="http://www.w3.org/1999/02/22-rdf-syntax-ns#"
   xmlns:svg="http://www.w3.org/2000/svg"
   xmlns="http://www.w3.org/2000/svg"
   xml:space="preserve"
   enable-background="new 0 0 60 60"
   viewBox="0 0 190 60"
   height="60"
   width="190"
   y="0px"
   x="0px"
   id="Layer_1"
   version="1.1"><metadata
     id="metadata38"><rdf:RDF><cc:Work
         rdf:about=""><dc:format>image/svg+xml</dc:format><dc:type
           rdf:resource="http://purl.org/dc/dcmitype/StillImage" /><dc:title></dc:title></cc:Work></rdf:RDF></metadata><defs
     id="defs36"><mask
       id="SVGID_1_"
       height="60"
       width="60"
       y="0"
       x="0"
       maskUnits="userSpaceOnUse"><g
         id="g9"
         style="filter:url(#Adobe_OpacityMaskFilter)"><g
           id="g11"><radialGradient
             gradientUnits="userSpaceOnUse"
             r="30"
             cy="30"
             cx="30"
             id="SVGID_2_"><stop
               id="stop14"
               style="stop-color:#000000"
               offset="0" /><stop
               id="stop16"
               style="stop-color:#020202"
               offset="0.3726" /><stop
               id="stop18"
               style="stop-color:#090909"
               offset="0.5069" /><stop
               id="stop20"
               style="stop-color:#141414"
               offset="0.6026" /><stop
               id="stop22"
               style="stop-color:#252525"
               offset="0.68" /><stop
               id="stop24"
               style="stop-color:#3B3B3B"
               offset="0.7463" /><stop
               id="stop26"
               style="stop-color:#575757"
               offset="0.805" /><stop
               id="stop28"
               style="stop-color:#777777"
               offset="0.8581" /><stop
               id="stop30"
               style="stop-color:#9D9D9D"
               offset="0.9069" /><stop
               id="stop32"
               style="stop-color:#C8C8C8"
               offset="0.9523" /><stop
               id="stop34"
               style="stop-color:#F6F6F6"
               offset="0.9926" /><stop
               id="stop36"
               style="stop-color:#FFFFFF"
               offset="1" /></radialGradient><circle
             id="circle38"
             r="30"
             cy="30"
             cx="30"
             style="fill:url(#SVGID_2_)" /></g></g></mask><filter
       height="60"
       width="60"
       y="0"
       x="0"
       filterUnits="userSpaceOnUse"
       id="Adobe_OpacityMaskFilter"><feColorMatrix
         id="feColorMatrix6"
         values="1 0 0 0 0  0 1 0 0 0  0 0 1 0 0  0 0 0 1 0"
         type="matrix" /></filter><radialGradient
       gradientUnits="userSpaceOnUse"
       r="30"
       cy="30"
       cx="30"
       id="radialGradient3415"><stop
         id="stop3417"
         style="stop-color:#000000"
         offset="0" /><stop
         id="stop3419"
         style="stop-color:#020202"
         offset="0.3726" /><stop
         id="stop3421"
         style="stop-color:#090909"
         offset="0.5069" /><stop
         id="stop3423"
         style="stop-color:#141414"
         offset="0.6026" /><stop
         id="stop3425"
         style="stop-color:#252525"
         offset="0.68" /><stop
         id="stop3427"
         style="stop-color:#3B3B3B"
         offset="0.7463" /><stop
         id="stop3429"
         style="stop-color:#575757"
         offset="0.805" /><stop
         id="stop3431"
         style="stop-color:#777777"
         offset="0.8581" /><stop
         id="stop3433"
         style="stop-color:#9D9D9D"
         offset="0.9069" /><stop
         id="stop3435"
         style="stop-color:#C8C8C8"
         offset="0.9523" /><stop
         id="stop3437"
         style="stop-color:#F6F6F6"
         offset="0.9926" /><stop
         id="stop3439"
         style="stop-color:#FFFFFF"
         offset="1" /></radialGradient></defs><path
     style="opacity:0.3;fill:#f0be32"
     id="path22"
     d="M 95,59 C 79.009,59 66,45.99 66,30 66,14.009 79.009,1.0000002 95,1.0000002 110.99,1.0000002 124,14.009 124,30 124,45.99 110.99,59 95,59 Z"
     enable-background="new    " /><path
     style="fill:#ffeb00"
     id="path24"
     d="M 95,2.0000002 C 110.439,2.0000002 123,14.561 123,30 123,45.439 110.439,58 95,58 79.561,58 67,45.439 67,30 67,14.561 79.561,2.0000002 95,2.0000002 m 0,-2 C 78.432,2e-7 65,13.432 65,30 65,46.568 78.432,60 95,60 111.568,60 125,46.568 125,30 125,13.432 111.568,2e-7 95,2e-7 l 0,0 z" /><g
     transform="translate(65,2e-7)"
     id="g26"><path
       style="fill:#ffea00"
       id="path28"
       d="m 15.748,33.88 c -0.744,0 -1.343,0.603 -1.343,1.343 0,0.744 0.603,1.344 1.343,1.344 0.744,0 1.343,-0.604 1.343,-1.344 0,-0.74 -0.603,-1.343 -1.343,-1.343 z" /><path
       style="fill:#ffea00"
       id="path30"
       d="m 37.775,33.88 c -0.742,0 -1.342,0.603 -1.342,1.343 0,0.744 0.604,1.344 1.342,1.344 0.746,0 1.344,-0.604 1.344,-1.344 0.004,-0.741 -0.598,-1.343 -1.344,-1.343 z" /><path
       style="fill:#ffea00"
       id="path32"
       d="M 48.502,29.569 C 48.206,29.47 47.99,29.376 46.897,29.124 l -1.563,-6.457 1.425,-1.492 c 0,0 0.705,-0.035 1.344,0.182 0.178,-0.445 -1.552,-1.114 -1.552,-1.114 l -6.819,7.248 c 0,0 -9.231,-5.358 -10.271,-5.358 -1.15,0 -9.04,0.004 -9.04,0.004 -1.925,0 -3.54,1.469 -5.405,3.17 -0.878,0.799 -1.851,1.681 -2.921,2.468 l -1.099,0.532 C 10.417,28.486 10,29.025 10,29.663 l 0,4.565 c 0,0.789 0.638,1.431 1.429,1.431 l -0.149,0 c 0.201,2.292 2.125,4.099 4.473,4.099 2.342,0 4.271,-1.807 4.472,-4.099 l 13.08,0 c 0.196,2.292 2.127,4.099 4.469,4.099 2.343,0 4.271,-1.807 4.469,-4.099 l 2.253,0 c 1.782,0 5.051,-0.165 5.269,-0.89 0.548,-1.826 0.15,-4.727 -1.263,-5.2 z m -32.754,8.023 c -1.283,0 -2.327,-1.042 -2.327,-2.326 0,-1.283 1.043,-2.322 2.327,-2.322 1.284,0 2.327,1.043 2.327,2.322 0,1.284 -1.043,2.326 -2.327,2.326 z m 3.938,-8.488 -1.917,0 c -0.118,0 -0.212,-0.095 -0.212,-0.213 0,-0.118 0.094,-0.213 0.212,-0.213 l 1.917,0 c 0.118,0 0.212,0.095 0.212,0.213 0,0.118 -0.094,0.213 -0.212,0.213 z m 4.696,-1.519 -7.799,0 c 0.563,-0.445 1.086,-0.918 1.567,-1.358 1.264,-1.153 2.354,-2.146 3.658,-2.146 0,0 1.181,0 2.575,0 l -10e-4,3.504 0,0 z m 4.615,1.519 -1.918,0 c -0.118,0 -0.212,-0.095 -0.212,-0.213 0,-0.118 0.095,-0.213 0.212,-0.213 l 1.918,0 c 0.118,0 0.212,0.095 0.212,0.213 0,0.118 -0.094,0.213 -0.212,0.213 z m -2.717,-1.519 0,-3.504 c 0.965,0 1.823,0 2.256,0 1.075,0 5.435,2.531 7.071,3.504 l -9.327,0 z m 11.491,10.007 c -1.283,0 -2.321,-1.042 -2.321,-2.326 0,-1.283 1.043,-2.322 2.321,-2.322 1.28,0 2.328,1.043 2.328,2.322 -0.003,1.284 -1.046,2.326 -2.328,2.326 z m 2.674,-9.858 4.606,-4.756 1.466,6.06 c -0.921,-0.209 -5.46,-1.17 -6.072,-1.304 z" /></g><g
     id="g3"><path
       id="path5"
       d="M 30,2 C 45.439,2 58,14.561 58,30 58,45.439 45.439,58 30,58 14.561,58 2,45.439 2,30 2,14.561 14.561,2 30,2 M 30,0 C 13.432,0 0,13.432 0,30 0,46.568 13.432,60 30,60 46.568,60 60,46.568 60,30 60,13.432 46.568,0 30,0 l 0,0 z"
       style="fill:#ffeb00" /></g><g
     id="g7"
     style="opacity:0.5"><path
       id="path9"
       d="m 15.748,33.88 c -0.744,0 -1.343,0.603 -1.343,1.343 0,0.744 0.603,1.344 1.343,1.344 0.744,0 1.343,-0.604 1.343,-1.344 0,-0.74 -0.603,-1.343 -1.343,-1.343 z"
       style="fill:#ffea00" /><path
       id="path11"
       d="m 37.775,33.88 c -0.742,0 -1.342,0.603 -1.342,1.343 0,0.744 0.604,1.344 1.342,1.344 0.746,0 1.344,-0.604 1.344,-1.344 0.004,-0.741 -0.598,-1.343 -1.344,-1.343 z"
       style="fill:#ffea00" /><path
       id="path13"
       d="M 48.502,29.569 C 48.206,29.47 47.99,29.376 46.897,29.124 l -1.563,-6.457 1.425,-1.492 c 0,0 0.705,-0.035 1.344,0.182 0.178,-0.445 -1.552,-1.114 -1.552,-1.114 l -6.819,7.248 c 0,0 -9.231,-5.358 -10.271,-5.358 -1.15,0 -9.04,0.004 -9.04,0.004 -1.925,0 -3.54,1.469 -5.405,3.17 -0.878,0.799 -1.851,1.681 -2.921,2.468 l -1.099,0.532 C 10.417,28.486 10,29.025 10,29.663 l 0,4.565 c 0,0.789 0.638,1.431 1.429,1.431 l -0.149,0 c 0.201,2.292 2.125,4.099 4.473,4.099 2.342,0 4.271,-1.807 4.472,-4.099 l 13.08,0 c 0.196,2.292 2.127,4.099 4.469,4.099 2.343,0 4.271,-1.807 4.469,-4.099 l 2.253,0 c 1.782,0 5.051,-0.165 5.269,-0.89 0.548,-1.826 0.15,-4.727 -1.263,-5.2 z m -32.754,8.023 c -1.283,0 -2.327,-1.042 -2.327,-2.326 0,-1.283 1.043,-2.322 2.327,-2.322 1.284,0 2.327,1.043 2.327,2.322 0,1.284 -1.043,2.326 -2.327,2.326 z m 3.938,-8.488 -1.917,0 c -0.118,0 -0.212,-0.095 -0.212,-0.213 0,-0.118 0.094,-0.213 0.212,-0.213 l 1.917,0 c 0.118,0 0.212,0.095 0.212,0.213 0,0.118 -0.094,0.213 -0.212,0.213 z m 4.696,-1.519 -7.799,0 c 0.563,-0.445 1.086,-0.918 1.567,-1.358 1.264,-1.153 2.354,-2.146 3.658,-2.146 0,0 1.181,0 2.575,0 l -10e-4,3.504 0,0 z m 4.615,1.519 -1.918,0 c -0.118,0 -0.212,-0.095 -0.212,-0.213 0,-0.118 0.095,-0.213 0.212,-0.213 l 1.918,0 c 0.118,0 0.212,0.095 0.212,0.213 0,0.118 -0.094,0.213 -0.212,0.213 z m -2.717,-1.519 0,-3.504 c 0.965,0 1.823,0 2.256,0 1.075,0 5.435,2.531 7.071,3.504 l -9.327,0 z m 11.491,10.007 c -1.283,0 -2.321,-1.042 -2.321,-2.326 0,-1.283 1.043,-2.322 2.321,-2.322 1.28,0 2.328,1.043 2.328,2.322 -0.003,1.284 -1.046,2.326 -2.328,2.326 z m 2.674,-9.858 4.606,-4.756 1.466,6.06 c -0.921,-0.209 -5.46,-1.17 -6.072,-1.304 z"
       style="fill:#ffea00" /></g><g
     transform="translate(130,0)"
     id="g40"
     mask="url(#SVGID_1_)"><circle
       id="circle42"
       r="30"
       cy="30"
       cx="30"
       style="fill:#ffffff" /></g><g
     transform="translate(130,0)"
     id="g44"><path
       id="path46"
       d="m 15.748,33.88 c -0.744,0 -1.343,0.603 -1.343,1.342 0,0.745 0.603,1.344 1.343,1.344 0.744,0 1.343,-0.603 1.343,-1.344 0,-0.74 -0.603,-1.342 -1.343,-1.342 z"
       style="fill:#ffea00" /><path
       id="path48"
       d="m 37.776,33.88 c -0.743,0 -1.342,0.603 -1.342,1.342 0,0.745 0.603,1.344 1.342,1.344 0.745,0 1.343,-0.603 1.343,-1.344 0.004,-0.74 -0.598,-1.342 -1.343,-1.342 z"
       style="fill:#ffea00" /><path
       id="path50"
       d="M 48.502,29.569 C 48.206,29.47 47.99,29.376 46.896,29.124 l -1.563,-6.457 1.425,-1.492 c 0,0 0.705,-0.035 1.343,0.182 0.178,-0.445 -1.551,-1.114 -1.551,-1.114 l -6.819,7.248 c 0,0 -9.232,-5.358 -10.272,-5.358 -1.149,0 -9.039,0.004 -9.039,0.004 -1.926,0 -3.54,1.469 -5.406,3.17 -0.878,0.799 -1.851,1.681 -2.921,2.468 l -1.099,0.532 C 10.417,28.486 10,29.025 10,29.663 l 0,4.566 c 0,0.788 0.638,1.43 1.43,1.43 l -0.15,0 c 0.201,2.292 2.126,4.099 4.473,4.099 2.343,0 4.271,-1.807 4.473,-4.099 l 13.079,0 c 0.197,2.292 2.127,4.099 4.469,4.099 2.343,0 4.272,-1.807 4.469,-4.099 l 2.253,0 c 1.783,0 5.051,-0.165 5.268,-0.889 0.549,-1.827 0.151,-4.728 -1.262,-5.201 z m -32.754,8.023 c -1.283,0 -2.326,-1.042 -2.326,-2.326 0,-1.283 1.043,-2.322 2.326,-2.322 1.283,0 2.327,1.043 2.327,2.322 0,1.284 -1.044,2.326 -2.327,2.326 z m 3.938,-8.488 -1.918,0 c -0.117,0 -0.212,-0.095 -0.212,-0.213 0,-0.118 0.095,-0.213 0.212,-0.213 l 1.918,0 c 0.118,0 0.213,0.095 0.213,0.213 0,0.118 -0.095,0.213 -0.213,0.213 z m 4.697,-1.519 -7.8,0 c 0.563,-0.445 1.087,-0.918 1.567,-1.358 1.264,-1.153 2.354,-2.146 3.657,-2.146 0,0 1.181,0 2.575,0 l 0,3.504 z m 4.614,1.519 -1.918,0 c -0.118,0 -0.212,-0.095 -0.212,-0.213 0,-0.118 0.094,-0.213 0.212,-0.213 l 1.918,0 c 0.118,0 0.212,0.095 0.212,0.213 0,0.118 -0.094,0.213 -0.212,0.213 z m -2.717,-1.519 0,-3.504 c 0.965,0 1.823,0 2.256,0 1.075,0 5.434,2.531 7.071,3.504 l -9.327,0 z m 11.492,10.007 c -1.283,0 -2.322,-1.042 -2.322,-2.326 0,-1.283 1.043,-2.322 2.322,-2.322 1.28,0 2.327,1.043 2.327,2.322 -0.003,1.284 -1.046,2.326 -2.327,2.326 z m 2.674,-9.858 4.606,-4.756 1.465,6.06 c -0.921,-0.209 -5.46,-1.17 -6.071,-1.304 z"
       style="fill:#ffea00" /></g><g
     transform="translate(130,0)"
     id="g52"><g
       id="g54"><path
         id="path56"
         d="M 30,3 C 44.888,3 57,15.112 57,30 57,44.888 44.888,57 30,57 15.112,57 3,44.888 3,30 3,15.112 15.112,3 30,3 M 30,0 C 13.432,0 0,13.432 0,30 0,46.569 13.432,60 30,60 46.569,60 60,46.569 60,30 60,13.432 46.569,0 30,0 l 0,0 z"
         style="fill:#ffffff" /></g></g></svg>