<?xml version="1.0" encoding="utf-8"?>
<!-- Generator: Adobe Illustrator 15.0.0, SVG Export Plug-In . SVG Version: 6.00 Build 0)  -->
<!DOCTYPE svg PUBLIC "-//W3C//DTD SVG 1.1//EN" "http://www.w3.org/Graphics/SVG/1.1/DTD/svg11.dtd">
<svg version="1.1" id="Layer_1" xmlns="http://www.w3.org/2000/svg" xmlns:xlink="http://www.w3.org/1999/xlink" x="0px" y="0px"
	 width="60px" height="60px" viewBox="0 0 60 60" enable-background="new 0 0 60 60" xml:space="preserve">
<defs>
	<filter id="Adobe_OpacityMaskFilter" filterUnits="userSpaceOnUse" x="0" y="0" width="60" height="60">
		<feColorMatrix  type="matrix" values="1 0 0 0 0  0 1 0 0 0  0 0 1 0 0  0 0 0 1 0"/>
	</filter>
</defs>
<mask maskUnits="userSpaceOnUse" x="0" y="0" width="60" height="60" id="SVGID_1_">
	<g filter="url(#Adobe_OpacityMaskFilter)">
		<g>
			<radialGradient id="SVGID_2_" cx="30" cy="30" r="30" gradientUnits="userSpaceOnUse">
				<stop  offset="0" style="stop-color:#000000"/>
				<stop  offset="0.3726" style="stop-color:#020202"/>
				<stop  offset="0.5069" style="stop-color:#090909"/>
				<stop  offset="0.6026" style="stop-color:#141414"/>
				<stop  offset="0.68" style="stop-color:#252525"/>
				<stop  offset="0.7463" style="stop-color:#3B3B3B"/>
				<stop  offset="0.805" style="stop-color:#575757"/>
				<stop  offset="0.8581" style="stop-color:#777777"/>
				<stop  offset="0.9069" style="stop-color:#9D9D9D"/>
				<stop  offset="0.9523" style="stop-color:#C8C8C8"/>
				<stop  offset="0.9926" style="stop-color:#F6F6F6"/>
				<stop  offset="1" style="stop-color:#FFFFFF"/>
			</radialGradient>
			<circle fill="url(#SVGID_2_)" cx="30" cy="30" r="30"/>
		</g>
	</g>
</mask>
<g mask="url(#SVGID_1_)">
	<circle fill="#FFFFFF" cx="30" cy="30" r="30"/>
</g>
<g>
	<g>
		<path fill="#FFFFFF" d="M30,3c14.888,0,27,12.112,27,27c0,14.887-12.112,27-27,27S3,44.887,3,30C3,15.112,15.112,3,30,3 M30,0
			C13.432,0,0,13.431,0,30c0,16.568,13.432,30,30,30c16.569,0,30-13.432,30-30C60,13.431,46.569,0,30,0L30,0z"/>
	</g>
</g>
<g>
	<path fill="#F030F0" d="M37.222,12.98c-0.23-0.042-0.473,0.027-0.644,0.179l-2.251,1.942c-1.812-0.984-3.771-1.792-5.056-1.624
		c-4.451,0.58-11.978,7.082-13.2,11.4c-0.354,1.246,0.164,3.303,0.868,5.242l-2.243,1.938c-0.178,0.158-0.279,0.379-0.269,0.613
		c0.007,0.234,0.114,0.451,0.304,0.598l1.722,1.316c0.294,0.23,0.704,0.213,0.984-0.027l0.664-0.574
		c-0.003,1.295,0.492,2.502,1.294,3.436c0.995,1.158,2.328,1.82,3.765,1.865c0.016-0.004,0.033,0,0.043-0.008l1.95,2.262
		c0.419,0.486,1.157,0.539,1.647,0.119l2.067-1.789c0.491-0.424,0.544-1.164,0.123-1.646l-0.78-0.91l11.601-10.02l0.78,0.908
		c0.419,0.484,1.157,0.541,1.647,0.117l2.068-1.787c0.487-0.416,0.538-1.166,0.123-1.648l-1.914-2.215
		c0.178-1.505-0.337-2.929-1.253-4c-0.83-0.969-1.991-1.654-3.325-1.823l0.711-0.612c0.276-0.237,0.354-0.641,0.171-0.969
		l-1.06-1.894C37.649,13.166,37.453,13.022,37.222,12.98L37.222,12.98z M18.319,25.514c0.976-3.436,7.709-9.255,11.25-9.717
		c0.688-0.091,2.259,0.584,4.009,1.567l-14.29,12.345C18.573,27.838,18.129,26.186,18.319,25.514L18.319,25.514z M22.21,35.375
		c-0.83-0.963-0.721-2.414,0.238-3.248c0.965-0.832,2.418-0.725,3.25,0.234c0.832,0.967,0.725,2.422-0.237,3.254
		C24.499,36.443,23.046,36.336,22.21,35.375L22.21,35.375z M38.548,24.307c-0.958,0.83-2.414,0.721-3.247-0.24
		c-0.83-0.963-0.725-2.412,0.234-3.245c0.966-0.834,2.418-0.725,3.251,0.231C39.614,22.019,39.514,23.479,38.548,24.307
		L38.548,24.307z"/>
	<polygon fill="#F030F0" points="24.246,44.881 12.5,47 12.5,47 21.754,47 29.121,47 34.85,47 36.07,44.881 47.5,24.967 	"/>
</g>
</svg>
