<?xml version="1.0" encoding="utf-8"?>
<!-- Generator: Adobe Illustrator 15.0.0, SVG Export Plug-In . SVG Version: 6.00 Build 0)  -->
<!DOCTYPE svg PUBLIC "-//W3C//DTD SVG 1.1//EN" "http://www.w3.org/Graphics/SVG/1.1/DTD/svg11.dtd">
<svg version="1.1" id="Layer_1" xmlns="http://www.w3.org/2000/svg" xmlns:xlink="http://www.w3.org/1999/xlink" x="0px" y="0px"
	 width="100px" height="100px" viewBox="0 0 100 100" enable-background="new 0 0 100 100" xml:space="preserve">
<g>
	<path fill="#CCCCCC" d="M62.996,22.899h-3.102L59.496,21.7c-1.7-5.801-6.4-11.7-12.2-14.7v15.3c-0.1,0.6-0.2,1.2-0.4,1.7
		c-0.699,1.399-2.199,2.399-3.899,2.399h-7.101c-1.6,0-3-0.799-3.699-2.1c-0.301-0.5-0.5-1.1-0.601-1.699
		c-0.1-0.201-0.1-0.4-0.1-0.601V7c-5.8,3-10.4,8.899-12.2,14.7l-0.4,1.199h-3.199v7h47.3V22.899L62.996,22.899z"/>
	<path fill="#CCCCCC" d="M20.496,33.399c-1.3,1.101-2.2,2.9-2.2,5c0.1,3.101,2,5.601,4.7,6.101c0.6,4.7,2.5,8.8,5.3,11.8
		c0.6,0.602,1.2,1.2,1.9,1.7c0.8,0.7,1.699,1.2,2.699,1.7c2.101,1.1,4.5,1.7,7,1.7s4.9-0.602,7-1.7c1-0.5,1.9-1.102,2.7-1.7
		c0.7-0.6,1.3-1.1,1.9-1.7c2.8-3,4.8-7.1,5.3-11.699h0.2c3,0,5.3-2.801,5.3-6.101c0-2.101-0.9-3.899-2.199-5H20.496V33.399z"/>
	<path fill="#CCCCCC" d="M35.896,24.601h7c1,0,1.801-0.601,2.301-1.4c0.199-0.4,0.3-0.8,0.3-1.2V3.5c0-0.399-0.101-0.8-0.2-1.2
		c-0.5-1.3-1.8-2.3-3.2-2.3h-6.2c-1.3,0-2.5,1-2.6,2.3c0,0.1-0.1,0.2-0.1,0.301V22c0,0.601,0.199,1.101,0.399,1.5
		C34.196,24.101,34.996,24.601,35.896,24.601z"/>
	<polygon fill="#CCCCCC" points="65.596,84.3 72.596,84.3 73.996,73.3 74.396,70.101 74.596,68.4 63.596,68.4 	"/>
	<path fill="#CCCCCC" d="M51.896,60.5c-3.399,2.8-7.6,4.4-12.1,4.4c-4.2,0-8.2-1.5-11.5-4l-4.2,4h-8.1c-3.8,0-6.7,1.3-9,3.898
		c-6.7,7.7-5.601,24.3-5.101,29.4h32.7l20.2-35L51.896,60.5z"/>
	<path fill="#CCCCCC" d="M98.096,97.101l-27.8-47.899c-0.3-0.601-0.9-0.899-1.6-0.899c-0.602,0-1.2,0.299-1.602,0.899l-7.1,12.3
		l-1,1.7l-1,1.7l-18.602,32.5c-0.199,0.3-0.199,0.6-0.199,0.898s0.101,0.602,0.199,0.801c0.301,0.601,0.9,0.899,1.601,0.899h55.7
		c1,0,1.8-0.8,1.8-1.8C98.496,97.8,98.296,97.4,98.096,97.101z M80.396,96.601h-36.3L62.296,65l1-1.7l1-1.7l4.5-7.8l24.8,42.8
		L80.396,96.601L80.396,96.601z"/>
	<rect x="64.796" y="86.101" fill="#CCCCCC" width="8.8" height="8.801"/>
</g>
</svg>
