<?xml version="1.0" encoding="utf-8"?>
<!-- Generator: Adobe Illustrator 15.0.0, SVG Export Plug-In . SVG Version: 6.00 Build 0)  -->
<!DOCTYPE svg PUBLIC "-//W3C//DTD SVG 1.1//EN" "http://www.w3.org/Graphics/SVG/1.1/DTD/svg11.dtd">
<svg version="1.1" id="Layer_1" xmlns="http://www.w3.org/2000/svg" xmlns:xlink="http://www.w3.org/1999/xlink" x="0px" y="0px"
	 width="100px" height="100px" viewBox="0 0 100 100" enable-background="new 0 0 100 100" xml:space="preserve">
<g>
	<path fill="#CCCCCC" d="M88.1,59.4c-1.4,0-2.5,1.1-2.5,2.5v11c0,0.5-0.4,0.8-0.8,0.8c-0.5,0-0.9-0.4-0.9-0.8V56.9
		c0-1.4-1.1-2.5-2.5-2.5c-1.4,0-2.5,1.1-2.5,2.5v14.4c0,0.5-0.4,0.8-0.8,0.8c-0.5,0-0.9-0.4-0.9-0.8V55.2c0-1.4-1.1-2.5-2.5-2.5
		c-1.4,0-2.5,1.1-2.5,2.5v16.1c0,0.5-0.4,0.8-0.9,0.8c-0.5,0-0.8-0.4-0.8-0.8V58.6c0-1.4-1.1-2.5-2.5-2.5c-1.4,0-2.5,1.1-2.5,2.5
		v21.2l-3.4-4.7c-1-1.6-3-2.1-4.5-1.2c-1.4,0.9-1.8,2.9-0.8,4.5c0,0,5.5,8.4,7.9,11.9c2.4,3.6,6.2,6.4,13.3,6.4
		c11.8,0,12.9-9.1,12.9-11.9V62C90.7,60.6,89.6,59.4,88.1,59.4z"/>
	<path fill="#CCCCCC" d="M62.1,91.9c-2.4-3.6-7.9-11.9-7.9-11.9l0,0l0,0c-0.9-1.4-1.2-3.2-0.9-4.8c0.3-1.5,1.2-2.8,2.6-3.7
		c0.9-0.6,2-0.9,3.1-0.9c1.3,0,2.5,0.4,3.5,1.1V59.9l-0.4-0.7l-3.4-3.3c-4,3.3-8.8,5.2-14.1,5.2c-4.9,0-9.6-1.7-13.4-4.7l-4.9,4.7
		h-9.5c-4.4,0-7.8,1.5-10.5,4.6c-7.8,9-6.5,28.4-5.9,34.3h51.2h16.7v-2.5C65.8,96.2,63.8,94.3,62.1,91.9z"/>
	<path fill="#CCCCCC" d="M63.6,41c2.5-0.5,4.8-2.6,5.2-7.2c0.3-3.8-0.7-5.7-2.1-6.7c4-16.2-7-19.4-7-19.4S51.6-6.3,35.6,3.5
		c-2,1.2-5.2,3.6-7.1,6.1c-3,3.2-5.1,8.4-5.4,16.9c-2,0.7-3.5,2.6-3.1,7.2c0.4,4.8,2.9,6.9,5.6,7.3c3.6,8.7,10.7,15.9,19,15.9
		C53,56.9,60.1,49.7,63.6,41L63.6,41z M44.6,52.9c-9.7,0-17.5-13.1-17.5-24c0-1.5,0-2.9,0.1-4.2c14.2,0.6,22.5-5.1,27.1-10
		c4.3,4.3,6.6,9.7,7.7,13.8c0,0.1,0,0.2,0,0.4C62.1,39.7,54.3,52.9,44.6,52.9L44.6,52.9z M44.6,52.9"/>
</g>
</svg>
