<?xml version="1.0" encoding="utf-8"?>
<!-- Generator: Adobe Illustrator 15.0.0, SVG Export Plug-In . SVG Version: 6.00 Build 0)  -->
<!DOCTYPE svg PUBLIC "-//W3C//DTD SVG 1.1//EN" "http://www.w3.org/Graphics/SVG/1.1/DTD/svg11.dtd">
<svg version="1.1" id="Layer_1" xmlns="http://www.w3.org/2000/svg" xmlns:xlink="http://www.w3.org/1999/xlink" x="0px" y="0px"
	 width="100px" height="100px" viewBox="0 0 100 100" enable-background="new 0 0 100 100" xml:space="preserve">
<g>
	<path fill="#CCCCCC" d="M97.201,62.227L83.754,32.156c-0.359-0.813-1.164-1.321-2.045-1.321h-6.35
		c-0.098-3.514-2.965-6.341-6.498-6.341c-3.523,0-6.41,2.827-6.498,6.341h-8.572c-1.232,0-2.24,0.998-2.24,2.23v6.214l0.01,4.482
		v24.631c-5.293-9.287-24.582-43.244-24.641-43.372c-1.712-3.269-4.462-5.93-8.317-5.93c-4.873,0-8.847,3.973-8.847,8.856
		c0,2.975,1.497,5.616,3.769,7.212l-1.83,4.805c-0.225,0.597-0.215,1.262,0.049,1.85c0.265,0.587,0.744,1.037,1.341,1.272
		c1.596,0.606,2.407,2.396,1.802,3.993c-0.305,0.772-0.871,1.39-1.635,1.731c-0.754,0.342-1.604,0.362-2.368,0.06
		c-0.832-0.313-1.497-0.979-1.801-1.811c-0.47-1.253-1.858-1.889-3.111-1.429c-1.233,0.46-1.869,1.859-1.399,3.102
		c0.792,2.144,2.476,3.835,4.619,4.648c0.91,0.354,1.869,0.52,2.817,0.52c1.106,0,2.213-0.234,3.239-0.693
		c1.938-0.881,3.405-2.438,4.168-4.423c1.253-3.299,0.147-6.918-2.466-9.014l1.155-3.034c0.167,0.011,0.333,0.06,0.509,0.06
		c0.91,0,1.761-0.176,2.593-0.44v32.313h-6.879H9.845H4.854c-1.243,0-2.25,0.998-2.25,2.24v14.797c0,1.232,0.998,2.23,2.25,2.23
		h8.925C13.955,94.629,19.435,100,26.177,100c6.741,0,12.222-5.371,12.397-12.064h24.955C63.715,94.629,69.186,100,75.928,100
		c6.74,0,12.223-5.371,12.396-12.064h6.83c1.234,0,2.242-1.008,2.242-2.23V63.158C97.396,62.834,97.328,62.529,97.201,62.227z
		 M26.166,93.805c-3.425,0-6.204-2.779-6.204-6.193c0-3.436,2.779-6.203,6.204-6.203s6.204,2.77,6.204,6.203
		C32.37,91.035,29.59,93.805,26.166,93.805z M27.644,68.676V39.23l16.654,29.436H27.644V68.676z M82.111,87.943
		c-0.061,1.146-0.432,2.213-1.037,3.111c-1.107,1.664-3.006,2.76-5.158,2.76c-3.316,0-6.018-2.592-6.193-5.859
		c-0.01-0.107-0.01-0.227-0.01-0.334c0-3.436,2.779-6.203,6.203-6.203c0.98,0,1.898,0.225,2.73,0.625
		c2.055,1.008,3.475,3.123,3.475,5.578C82.121,87.719,82.121,87.826,82.111,87.943z M62.99,62.412V38.291h15.666l10.158,24.122
		H62.99z"/>
	<path fill="#CCCCCC" d="M29.073,87.611c0,1.604-1.301,2.906-2.906,2.906c-1.604,0-2.905-1.303-2.905-2.906s1.301-2.906,2.905-2.906
		C27.772,84.705,29.073,86.006,29.073,87.611z"/>
	<path fill="#CCCCCC" d="M78.822,87.611c0,1.604-1.301,2.906-2.906,2.906c-1.604,0-2.904-1.303-2.904-2.906s1.301-2.906,2.904-2.906
		C77.521,84.705,78.822,86.006,78.822,87.611z"/>
	<path fill="#CCCCCC" d="M61.824,18.514c-0.781,0.783-0.781,2.045,0,2.818c0.783,0.783,2.047,0.783,2.818,0
		c2.135-2.133,5.607-2.133,7.74,0c0.783,0.783,2.035,0.783,2.818,0s0.783-2.045,0-2.818C71.523,14.825,65.514,14.825,61.824,18.514
		L61.824,18.514z"/>
	<path fill="#CCCCCC" d="M57.393,12.536c-0.783,0.772-0.773,2.045,0,2.817c0.781,0.773,2.045,0.773,2.816,0
		c4.58-4.58,12.037-4.58,16.617,0c0.781,0.773,2.045,0.773,2.818,0c0.781-0.782,0.781-2.045,0-2.817
		C73.51,6.399,63.527,6.399,57.393,12.536L57.393,12.536z"/>
	<path fill="#CCCCCC" d="M52.254,6.84c-0.781,0.773-0.781,2.045,0,2.818c0.783,0.782,2.047,0.782,2.818,0
		c7.564-7.564,19.875-7.564,27.439,0c0.781,0.782,2.035,0.782,2.818,0c0.781-0.773,0.781-2.045,0-2.818
		C76.211-2.281,61.375-2.281,52.254,6.84L52.254,6.84z"/>
</g>
</svg>
