<?xml version="1.0" encoding="utf-8"?>
<!-- Generator: Adobe Illustrator 15.0.0, SVG Export Plug-In . SVG Version: 6.00 Build 0)  -->
<!DOCTYPE svg PUBLIC "-//W3C//DTD SVG 1.1//EN" "http://www.w3.org/Graphics/SVG/1.1/DTD/svg11.dtd">
<svg version="1.1" id="Layer_1" xmlns="http://www.w3.org/2000/svg" xmlns:xlink="http://www.w3.org/1999/xlink" x="0px" y="0px"
	 width="100px" height="100px" viewBox="0 0 100 100" enable-background="new 0 0 100 100" xml:space="preserve">
<path fill="#CCCCCC" d="M42.153,54.922c0,2.837-2.311,5.137-5.138,5.137c-2.837,0-5.146-2.3-5.146-5.137
	c0-2.838,2.299-5.146,5.146-5.146C39.843,49.775,42.153,52.084,42.153,54.922L42.153,54.922z M62.975,49.775
	c-2.828,0-5.127,2.309-5.127,5.146c0,2.837,2.299,5.137,5.127,5.137c2.838,0,5.146-2.3,5.146-5.137
	C68.121,52.084,65.822,49.775,62.975,49.775L62.975,49.775z M100,52.074v9.755c0,4.893-3.982,8.846-8.875,8.846h-6.438
	C78.308,88.405,62.026,99.08,50,99.08c-12.045,0-28.317-10.686-34.688-28.405H8.875C3.982,70.675,0,66.722,0,61.829v-9.755
	c0-3.396,1.889-6.321,4.658-7.809c0.078-13.854,4.129-24.677,12.006-32.172C24.482,4.667,35.705,0.92,50,0.92
	c14.286,0,25.509,3.748,33.327,11.165c7.886,7.495,11.918,18.317,12.006,32.172C98.111,45.744,100,48.679,100,52.074L100,52.074z
	 M81.232,54.951c0-2.28-0.138-4.423-0.304-6.498c-3.942-3.61-11.075-6.34-20.106-7.368c1.192,1.331,2.221,3.092,2.837,5.401
	c-5.538-4.354-16.379-3.317-24.579-13.063c-0.459-0.548-0.871-1.065-1.213-1.546c-0.009,0-0.009-0.01-0.009-0.01l0,0
	c-1.479-1.967-1.957-3.142-1.997-1.85c-0.245,11.203-8.17,19.922-16.986,21.164c-0.059,1.215-0.107,2.467-0.107,3.759
	c0,4.744,0.783,9.051,2.104,12.936c4.932,5.978,13.102,7.651,20.343,8.102c1.35-2.134,4.344-3.62,7.857-3.62
	c4.766,0,8.62,2.739,8.62,6.105c0,3.385-3.854,6.125-8.62,6.125c-3.649,0-6.771-1.634-8.023-3.904
	c-5.059-0.293-10.597-1.164-15.566-3.503c6.967,10.266,17.769,15.705,24.521,15.705C60.587,92.887,81.232,79.491,81.232,54.951
	L81.232,54.951z M90.01,43.189C89.443,19.001,75.636,6.232,50,6.232c-25.656,0-39.442,12.769-40.01,36.957h3.425
	c1.243-8.16,3.875-14.844,7.876-20.011c6.38-8.209,16.037-12.377,28.708-12.377S72.318,14.96,78.707,23.17
	c4.012,5.167,6.645,11.85,7.887,20.01h3.415L90.01,43.189L90.01,43.189z"/>
</svg>
