<?xml version="1.0" encoding="utf-8"?>
<!-- Generator: Adobe Illustrator 15.0.0, SVG Export Plug-In . SVG Version: 6.00 Build 0)  -->
<!DOCTYPE svg PUBLIC "-//W3C//DTD SVG 1.1//EN" "http://www.w3.org/Graphics/SVG/1.1/DTD/svg11.dtd">
<svg version="1.1" id="Layer_1" xmlns="http://www.w3.org/2000/svg" xmlns:xlink="http://www.w3.org/1999/xlink" x="0px" y="0px"
	 width="60px" height="64px" viewBox="0 0 60 64" enable-background="new 0 0 60 64" xml:space="preserve">
<g>
	
		<radialGradient id="SVGID_1_" cx="-174.5059" cy="-1818.0864" r="21.1789" gradientTransform="matrix(0.9946 0 0 -0.3 203.5631 -488.7974)" gradientUnits="userSpaceOnUse">
		<stop  offset="0.3138" style="stop-color:#000000;stop-opacity:0.5"/>
		<stop  offset="1" style="stop-color:#000000;stop-opacity:0"/>
	</radialGradient>
	<ellipse fill="url(#SVGID_1_)" cx="30" cy="56.609" rx="29.531" ry="6.891"/>
	<g>
		<path fill="#57B757" stroke="#666666" stroke-miterlimit="10" d="M30,0.5c-11.025,0-19.982,9.057-19.982,20.081
			c0,10.435,14.962,21.656,19.293,35.536c0.098,0.295,0.394,0.492,0.689,0.492s0.591-0.197,0.689-0.492
			c4.134-14.273,19.294-25.102,19.294-35.536C49.983,9.557,41.025,0.5,30,0.5L30,0.5z"/>
		<g>
			<path fill="#3E444C" d="M30,35.839c-8.663,0-15.651-7.087-15.651-15.75c0-8.662,6.989-15.75,15.651-15.75
				c8.662,0,15.652,7.088,15.652,15.75C45.652,28.752,38.662,35.839,30,35.839L30,35.839z"/>
			<path fill="#666666" d="M30,36.039c-8.741,0-15.852-7.155-15.852-15.95S21.259,4.139,30,4.139c8.741,0,15.853,7.155,15.853,15.95
				S38.741,36.039,30,36.039z M30,4.539c-8.52,0-15.451,6.976-15.451,15.55S21.48,35.639,30,35.639
				c8.521,0,15.452-6.976,15.452-15.55S38.521,4.539,30,4.539z"/>
		</g>
		<g>
			<path fill="#57B757" d="M43.19,15.266c-0.099-0.197-0.296-0.295-0.491-0.295h-2.561c-0.591-1.673-1.477-3.347-2.461-4.036
				c-3.248-2.166-12.009-2.166-15.257,0c-0.984,0.591-1.772,2.264-2.461,4.036H17.4c-0.197,0-0.394,0.098-0.492,0.295
				c-0.099,0.197-0.197,0.394-0.099,0.591l0.394,1.87c0.099,0.295,0.295,0.59,0.689,0.59h0.788
				c-0.788,0.886-1.083,1.969-1.083,3.052c0,1.378,0.492,2.559,1.477,3.445l0,0v2.658c0,0.591,0.492,0.984,0.985,0.984h2.362
				c0.59,0,0.984-0.492,0.984-0.984v-1.083h13.387v1.083c0,0.591,0.493,0.984,0.984,0.984h2.362c0.592,0,0.984-0.492,0.984-0.984
				v-2.559c0.984-0.886,1.478-2.166,1.478-3.347c0-1.083-0.395-2.264-1.183-3.149h0.788c0.295,0,0.591-0.197,0.688-0.591
				l0.395-1.871C43.387,15.561,43.289,15.364,43.19,15.266L43.19,15.266z M23.503,12.706c2.658-1.771,10.435-1.771,12.993,0
				c0.493,0.296,1.182,1.674,1.773,3.347H21.731C22.322,14.38,23.011,13.002,23.503,12.706L23.503,12.706z M20.451,21.467
				c0-1.082,0.886-2.066,1.969-2.066c1.083,0,2.067,0.886,2.067,2.066c0,1.083-0.886,2.068-2.067,2.068
				C21.337,23.535,20.451,22.648,20.451,21.467L20.451,21.467z M37.58,23.535c-1.084,0-1.969-0.886-1.969-2.068
				c0-1.082,0.885-2.066,1.969-2.066c1.082,0,2.066,0.886,2.066,2.066C39.646,22.648,38.662,23.535,37.58,23.535L37.58,23.535z"/>
			<path fill="#666666" d="M40.139,28.656h-2.362c-0.569,0-1.185-0.453-1.185-1.185v-0.882H23.605v0.882
				c0,0.57-0.453,1.185-1.185,1.185h-2.362c-0.57,0-1.185-0.453-1.185-1.185v-2.57c-0.966-0.902-1.477-2.122-1.477-3.533
				c0-1.106,0.291-2.063,0.865-2.852h-0.369c-0.411,0-0.723-0.258-0.879-0.727l-0.395-1.87c-0.124-0.277,0.006-0.536,0.111-0.745
				c0.125-0.25,0.382-0.406,0.671-0.406h2.422c0.646-1.645,1.446-3.377,2.495-4.007C23.867,9.73,26.76,9.11,30.049,9.11
				s6.182,0.62,7.74,1.658c1.235,0.864,2.124,2.992,2.49,4.002h2.42c0.277,0,0.525,0.144,0.655,0.378
				c0.127,0.141,0.242,0.4,0.129,0.855l-0.393,1.864c-0.114,0.458-0.46,0.75-0.885,0.75h-0.368c0.616,0.837,0.963,1.89,0.963,2.949
				c0,1.289-0.551,2.565-1.478,3.435v2.471C41.323,28.042,40.87,28.656,40.139,28.656z M23.205,26.189h13.788v1.283
				c0,0.484,0.407,0.784,0.784,0.784h2.362c0.484,0,0.784-0.407,0.784-0.784v-2.648l0.066-0.06c0.884-0.795,1.411-1.991,1.411-3.198
				c0-1.092-0.423-2.22-1.132-3.016l-0.297-0.333h1.234c0.187,0,0.414-0.115,0.494-0.439l0.393-1.864
				c0.06-0.241,0.044-0.418-0.044-0.506l-0.037-0.052c-0.059-0.115-0.175-0.185-0.313-0.185h-2.702l-0.047-0.133
				c-0.667-1.886-1.559-3.358-2.388-3.938c-1.489-0.993-4.3-1.588-7.513-1.588s-6.024,0.595-7.518,1.59
				c-0.987,0.593-1.793,2.417-2.386,3.942l-0.049,0.127H17.4c-0.139,0-0.255,0.069-0.313,0.185c-0.095,0.189-0.15,0.31-0.099,0.412
				l0.017,0.049l0.394,1.87c0.146,0.431,0.408,0.431,0.494,0.431h1.233L18.83,18.45c-0.686,0.771-1.033,1.753-1.033,2.919
				c0,1.345,0.475,2.454,1.41,3.296l0.066,0.06v2.747c0,0.484,0.407,0.784,0.785,0.784h2.362c0.484,0,0.784-0.407,0.784-0.784
				V26.189z M37.58,23.735c-1.216,0-2.169-0.996-2.169-2.268c0-1.229,0.993-2.267,2.169-2.267c1.25,0,2.267,1.017,2.267,2.267
				C39.847,22.717,38.83,23.735,37.58,23.735z M37.58,19.601c-0.942,0-1.769,0.872-1.769,1.866c0,1.047,0.777,1.868,1.769,1.868
				c1.029,0,1.866-0.838,1.866-1.868C39.446,20.438,38.609,19.601,37.58,19.601z M22.42,23.735c-1.217,0-2.169-0.996-2.169-2.268
				c0-1.229,0.994-2.267,2.169-2.267c1.25,0,2.267,1.017,2.267,2.267C24.688,22.717,23.67,23.735,22.42,23.735z M22.42,19.601
				c-0.942,0-1.769,0.872-1.769,1.866c0,1.047,0.777,1.868,1.769,1.868c1.029,0,1.867-0.838,1.867-1.868
				C24.287,20.438,23.45,19.601,22.42,19.601z M38.553,16.253H21.448l0.094-0.267c0.246-0.696,1.104-3,1.857-3.453
				c1.272-0.848,3.756-1.357,6.637-1.357c2.882,0,5.339,0.51,6.573,1.364c0.72,0.432,1.532,2.553,1.848,3.445L38.553,16.253z
				 M22.016,15.853h15.968c-0.581-1.583-1.196-2.738-1.592-2.975c-1.162-0.805-3.594-1.3-6.355-1.3
				c-2.763,0-5.225,0.497-6.423,1.295C23.21,13.116,22.595,14.271,22.016,15.853z"/>
		</g>
	</g>
</g>
</svg>
