<?xml version="1.0" encoding="utf-8"?>
<!-- Generator: Adobe Illustrator 15.0.0, SVG Export Plug-In . SVG Version: 6.00 Build 0)  -->
<!DOCTYPE svg PUBLIC "-//W3C//DTD SVG 1.1//EN" "http://www.w3.org/Graphics/SVG/1.1/DTD/svg11.dtd">
<svg version="1.1" id="Layer_1" xmlns="http://www.w3.org/2000/svg" xmlns:xlink="http://www.w3.org/1999/xlink" x="0px" y="0px"
	 width="100px" height="100px" viewBox="0 0 100 100" enable-background="new 0 0 100 100" xml:space="preserve">
<g>
	<path fill="#CCCCCC" stroke="#666666" stroke-width="0.7086" stroke-miterlimit="10" d="M50,0.5c-19.5,0-35.4,15.9-35.4,35.4
		c0,18.3,26.5,38.2,34.2,62.7c0.2,0.5,0.7,0.9,1.2,0.9c0.6,0,1-0.4,1.2-0.9c7.4-25.1,34.3-44.3,34.3-62.7C85.4,16.4,69.5,0.5,50,0.5
		L50,0.5z"/>
	<path fill="#434343" stroke="#666666" stroke-width="0.7086" stroke-miterlimit="10" d="M50,62.8c-15.3,0-27.8-12.5-27.8-27.8
		C22.2,19.7,34.7,7.2,50,7.2c15.3,0,27.8,12.5,27.8,27.8C77.8,50.3,65.3,62.8,50,62.8L50,62.8z"/>
	<g>
		<path fill="#CCCCCC" stroke="#666666" stroke-width="0.7086" stroke-miterlimit="10" d="M50,23.6l-15.8,13c0,0,0,0,0,0.1
			c0,0,0,0.1,0,0.1v13.2c0,0.5,0.2,0.9,0.5,1.2c0.3,0.3,0.8,0.5,1.2,0.5h10.5V41.2h7v10.5H64c0.5,0,0.9-0.2,1.2-0.5
			c0.3-0.3,0.5-0.8,0.5-1.2V36.8c0-0.1,0-0.1,0-0.2L50,23.6z"/>
		<path fill="#CCCCCC" stroke="#666666" stroke-width="0.7086" stroke-miterlimit="10" d="M71.8,33.7l-6-5V17.5
			c0-0.3-0.1-0.5-0.2-0.6c-0.2-0.2-0.4-0.2-0.6-0.2h-5.3c-0.3,0-0.5,0.1-0.6,0.2c-0.2,0.2-0.2,0.4-0.2,0.6v5.3l-6.7-5.6
			c-0.6-0.5-1.3-0.7-2.1-0.7c-0.8,0-1.5,0.2-2.1,0.7L28.2,33.7c-0.2,0.1-0.3,0.3-0.3,0.6c0,0.2,0,0.5,0.2,0.6l1.7,2
			c0.1,0.2,0.3,0.3,0.6,0.3c0.2,0,0.4,0,0.7-0.2l19-15.8L69,37c0.1,0.1,0.3,0.2,0.6,0.2h0.1c0.2,0,0.4-0.1,0.6-0.3l1.7-2
			c0.1-0.2,0.2-0.4,0.2-0.6C72.1,34,72,33.8,71.8,33.7z"/>
	</g>
</g>
</svg>
