<?xml version="1.0" encoding="utf-8"?>
<!-- Generator: Adobe Illustrator 15.0.0, SVG Export Plug-In . SVG Version: 6.00 Build 0)  -->
<!DOCTYPE svg PUBLIC "-//W3C//DTD SVG 1.1//EN" "http://www.w3.org/Graphics/SVG/1.1/DTD/svg11.dtd">
<svg version="1.1" id="Layer_1" xmlns="http://www.w3.org/2000/svg" xmlns:xlink="http://www.w3.org/1999/xlink" x="0px" y="0px"
	 width="100px" height="100px" viewBox="0 0 100 100" enable-background="new 0 0 100 100" xml:space="preserve">
<g>
	<path fill="#CCCCCC" d="M62.396,68.708V56.057c2.945-3.082,4.766-7.26,4.766-11.849c0-9.462-7.699-17.163-17.162-17.163
		c-9.472,0-17.163,7.701-17.163,17.163c0,4.589,1.82,8.767,4.765,11.849v12.651c-8.933-4.53-15.077-13.815-15.077-24.5
		c0-15.147,12.329-27.476,27.476-27.476c15.146,0,27.466,12.328,27.466,27.476C77.467,54.893,71.332,64.178,62.396,68.708
		L62.396,68.708z M16.096,44.208c0-18.689,15.206-33.895,33.904-33.895c18.687,0,33.894,15.205,33.894,33.895
		c0,14.315-8.934,26.576-21.506,31.546v10.891c18.375-5.372,31.818-22.357,31.818-42.437C94.207,19.833,74.375,0,50,0
		C25.626,0,5.792,19.833,5.792,44.208c0,20.079,13.454,37.064,31.82,42.436v-10.89C25.02,70.783,16.096,58.521,16.096,44.208
		L16.096,44.208z M45.04,52.113V100h9.921V52.113c2.623-1.653,4.375-4.569,4.375-7.906c0-5.157-4.18-9.334-9.326-9.334
		c-5.156,0-9.334,4.178-9.334,9.334C40.667,47.534,42.417,50.46,45.04,52.113L45.04,52.113z"/>
</g>
</svg>
