<?xml version="1.0" encoding="utf-8"?>
<!-- Generator: Adobe Illustrator 15.0.0, SVG Export Plug-In . SVG Version: 6.00 Build 0)  -->
<!DOCTYPE svg PUBLIC "-//W3C//DTD SVG 1.1//EN" "http://www.w3.org/Graphics/SVG/1.1/DTD/svg11.dtd">
<svg version="1.1" id="Layer_1" xmlns="http://www.w3.org/2000/svg" xmlns:xlink="http://www.w3.org/1999/xlink" x="0px" y="0px"
	 width="59.1px" height="64px" viewBox="0 0 59.1 64" enable-background="new 0 0 59.1 64" xml:space="preserve">
<g>
	
		<radialGradient id="SVGID_1_" cx="29.5386" cy="1152.2236" r="21.5147" gradientTransform="matrix(1 0 0 0.3 0 -288.6457)" gradientUnits="userSpaceOnUse">
		<stop  offset="0.3138" style="stop-color:#000000;stop-opacity:0.5"/>
		<stop  offset="1" style="stop-color:#000000;stop-opacity:0"/>
	</radialGradient>
	<ellipse fill="url(#SVGID_1_)" cx="29.5" cy="57" rx="30.2" ry="7"/>
	<path fill="#59C1E0" stroke="#666666" stroke-width="0.4081" stroke-miterlimit="10" d="M29.5,0C18.3,0,9.1,9.2,9.1,20.4
		c0,10.6,15.3,22,19.7,36.1c0.1,0.3,0.4,0.5,0.7,0.5c0.3,0,0.6-0.2,0.7-0.5C34.5,42,49.9,31,49.9,20.4C49.9,9.2,40.8,0,29.5,0
		L29.5,0z"/>
	<path fill="#3E444C" stroke="#666666" stroke-width="0.4081" stroke-miterlimit="10" d="M29.5,35.9c-8.8,0-16-7.2-16-16
		s7.2-16,16-16c8.8,0,16,7.2,16,16S38.4,35.9,29.5,35.9L29.5,35.9z"/>
	<g>
		<path fill="#59C1E0" stroke="#666666" stroke-width="0.4081" stroke-miterlimit="10" d="M29.5,13.3l-9.1,7.5c0,0,0,0,0,0
			c0,0,0,0,0,0v7.6c0,0.3,0.1,0.5,0.3,0.7c0.2,0.2,0.4,0.3,0.7,0.3h6.1v-6.1h4v6.1h6.1c0.3,0,0.5-0.1,0.7-0.3
			c0.2-0.2,0.3-0.4,0.3-0.7v-7.6c0,0,0-0.1,0-0.1L29.5,13.3z"/>
		<path fill="#59C1E0" stroke="#666666" stroke-width="0.4081" stroke-miterlimit="10" d="M42.1,19.1l-3.5-2.9V9.8
			c0-0.1,0-0.3-0.1-0.4c-0.1-0.1-0.2-0.1-0.4-0.1h-3c-0.1,0-0.3,0-0.4,0.1c-0.1,0.1-0.1,0.2-0.1,0.4v3.1l-3.9-3.2
			c-0.3-0.3-0.7-0.4-1.2-0.4c-0.5,0-0.9,0.1-1.2,0.4L17,19.1c-0.1,0.1-0.2,0.2-0.2,0.3c0,0.1,0,0.3,0.1,0.4l1,1.2
			c0.1,0.1,0.2,0.2,0.3,0.2c0.1,0,0.3,0,0.4-0.1l10.9-9.1L40.5,21c0.1,0.1,0.2,0.1,0.3,0.1h0c0.1,0,0.2-0.1,0.3-0.2l1-1.2
			c0.1-0.1,0.1-0.2,0.1-0.4C42.3,19.3,42.2,19.2,42.1,19.1z"/>
	</g>
</g>
</svg>
