<?xml version="1.0" encoding="utf-8"?>
<!-- Generator: Adobe Illustrator 15.0.0, SVG Export Plug-In . SVG Version: 6.00 Build 0)  -->
<!DOCTYPE svg PUBLIC "-//W3C//DTD SVG 1.1//EN" "http://www.w3.org/Graphics/SVG/1.1/DTD/svg11.dtd">
<svg version="1.1" id="Layer_1" xmlns="http://www.w3.org/2000/svg" xmlns:xlink="http://www.w3.org/1999/xlink" x="0px" y="0px"
	 width="110px" height="16px" viewBox="0 0 110 16" enable-background="new 0 0 110 16" xml:space="preserve">
<g>
	<g>
		<g>
			<polygon fill="#F07730" points="0,2.4 4.5,2.4 4.5,15.2 6.7,15.2 6.7,2.4 11.2,2.4 11.2,0.2 0,0.2 			"/>
			<path fill="#F07730" d="M21.6,10.7c0,1.6-1.8,2.5-3.3,2.5c-1.6,0-3.4-0.8-3.4-2.5V0.2h-2.2v10.5c0,3.1,2.9,4.6,5.6,4.6
				c2.6,0,5.5-1.6,5.5-4.6V0.2h-2.2V10.7z"/>
			<polygon fill="#F07730" points="30.4,0.5 24.5,16 25.9,16 31.9,0.5 			"/>
			<path fill="#FFFFFF" d="M38.4,10.2H44c-0.9,2.2-2.9,3-4.7,3c-2.9,0-5.2-2.3-5.2-5.5c0-3.1,2.3-5.4,5.2-5.4c1.9,0,4.2,0.9,4.8,3.3
				h2.3c-0.8-4-4.3-5.5-7.1-5.5c-4.1,0-7.4,3.2-7.4,7.6c0,4.4,3.2,7.6,7.4,7.6c2.7,0,5.8-1.8,6.8-4.7v0c0.2-0.5,0.3-1.3,0.4-2.6
				h-8.1V10.2z"/>
			<path fill="#FFFFFF" d="M58.5,5c0-2.4-1.6-4.8-4.9-4.8h-5.5v15h2.1V2.4h3.3c1.8,0,2.7,1.3,2.7,2.6c0,1.3-0.9,2.6-2.7,2.6h-2.5v1
				l5.5,6.6h2.8l-4.7-5.6C57.2,9.1,58.5,7.1,58.5,5z"/>
			<path fill="#FFFFFF" d="M68.8,10.7c0,1.6-1.8,2.5-3.3,2.5c-1.6,0-3.4-0.8-3.4-2.5V0.2h-2.2v10.5c0,3.1,2.9,4.6,5.6,4.6
				c2.6,0,5.5-1.6,5.5-4.6V0.2h-2.2V10.7z"/>
			<polygon fill="#FFFFFF" points="75,8.8 81.8,8.8 81.8,6.6 75,6.6 75,2.4 82,2.4 82,0.2 72.8,0.2 72.8,15.2 82,15.2 82,13 75,13 
							"/>
			<path fill="#FFFFFF" d="M93.7,5c0-2.4-1.6-4.8-4.9-4.8h-5.5v15h2.1V2.4h3.3c1.8,0,2.7,1.3,2.7,2.6c0,1.3-0.9,2.6-2.7,2.6h-2.5v1
				l5.5,6.6h2.8l-4.7-5.6C92.4,9.1,93.7,7.1,93.7,5z"/>
			<path fill="#FFFFFF" d="M107.8,2.3c-1.4-1.4-3.3-2.3-5.4-2.3c-2.1,0-4,0.9-5.4,2.3c-1.3,1.4-2.2,3.3-2.2,5.4c0,2.1,0.9,4,2.2,5.4
				c1.4,1.4,3.3,2.3,5.4,2.3c2.1,0,4-0.9,5.4-2.3c1.4-1.4,2.2-3.3,2.2-5.4C110,5.6,109.1,3.7,107.8,2.3z M106.2,11.5
				c-1,1-2.4,1.6-3.9,1.6c-1.5,0-2.9-0.6-3.8-1.6c-1-1-1.6-2.4-1.6-3.9c0-1.5,0.6-2.9,1.6-3.9c1-1,2.4-1.6,3.8-1.6
				c1.5,0,2.9,0.6,3.9,1.6c1,1,1.6,2.3,1.6,3.9C107.8,9.2,107.2,10.6,106.2,11.5z"/>
		</g>
	</g>
	<ellipse fill="#F07730" cx="102.4" cy="7.8" rx="2.4" ry="2.4"/>
</g>
</svg>
