<?xml version="1.0" encoding="utf-8"?>
<!-- Generator: Adobe Illustrator 15.0.0, SVG Export Plug-In . SVG Version: 6.00 Build 0)  -->
<!DOCTYPE svg PUBLIC "-//W3C//DTD SVG 1.1//EN" "http://www.w3.org/Graphics/SVG/1.1/DTD/svg11.dtd">
<svg version="1.1" id="Layer_1" xmlns="http://www.w3.org/2000/svg" xmlns:xlink="http://www.w3.org/1999/xlink" x="0px" y="0px"
	 width="100px" height="100px" viewBox="0 0 100 100" enable-background="new 0 0 100 100" xml:space="preserve">
<path fill="#CCCCCC" d="M85.354,14.646c-19.527-19.527-51.181-19.527-70.708,0c-19.526,19.526-19.526,51.181,0,70.708
	c19.528,19.526,51.181,19.526,70.708,0C104.882,65.827,104.882,34.173,85.354,14.646L85.354,14.646z M74.953,62.054
	c1.068,1.068,1.068,2.804,0,3.861l-9.027,9.029c-1.069,1.068-2.805,1.068-3.872,0L49.996,62.886L37.938,74.944
	c-1.068,1.068-2.794,1.068-3.862,0l-9.028-9.029c-1.068-1.067-1.068-2.803,0-3.861l12.058-12.059L25.047,37.938
	c-1.068-1.069-1.068-2.805,0-3.872l9.028-9.029c1.068-1.067,2.805-1.067,3.862,0l12.059,12.059l12.058-12.059
	c1.067-1.067,2.803-1.067,3.872,0l9.027,9.029c1.068,1.067,1.068,2.803,0,3.872L62.896,49.995L74.953,62.054z"/>
</svg>
