<?xml version="1.0" encoding="utf-8"?>
<!-- Generator: Adobe Illustrator 15.0.0, SVG Export Plug-In . SVG Version: 6.00 Build 0)  -->
<!DOCTYPE svg PUBLIC "-//W3C//DTD SVG 1.1//EN" "http://www.w3.org/Graphics/SVG/1.1/DTD/svg11.dtd">
<svg version="1.1" id="Layer_1" xmlns="http://www.w3.org/2000/svg" xmlns:xlink="http://www.w3.org/1999/xlink" x="0px" y="0px"
	 width="60px" height="64px" viewBox="0 0 60 64" enable-background="new 0 0 60 64" xml:space="preserve">
<g>
	
		<radialGradient id="SVGID_1_" cx="-176.4004" cy="-1819.2847" r="21.1824" gradientTransform="matrix(1 0 0 -0.3 206 -488.9497)" gradientUnits="userSpaceOnUse">
		<stop  offset="0.3138" style="stop-color:#000000;stop-opacity:0.5"/>
		<stop  offset="1" style="stop-color:#000000;stop-opacity:0"/>
	</radialGradient>
	<ellipse fill="url(#SVGID_1_)" cx="29.6" cy="56.8" rx="29.7" ry="6.9"/>
	<path fill="#EF5E5B" stroke="#666666" stroke-miterlimit="10" d="M29.6,0.7c-11.1,0-20.1,9-20.1,20.1c0,10.4,15,21.7,19.4,35.5
		c0.1,0.3,0.4,0.5,0.7,0.5c0.3,0,0.6-0.2,0.7-0.5c4.2-14.2,19.4-25.1,19.4-35.5C49.7,9.7,40.7,0.7,29.6,0.7L29.6,0.7z"/>
	<path fill="#3E444C" stroke="#666666" stroke-width="0.4018" stroke-miterlimit="10" d="M29.6,36c-8.7,0-15.7-7.1-15.7-15.7
		c0-8.7,7.1-15.7,15.7-15.7c8.7,0,15.7,7.1,15.7,15.7C45.4,29,38.3,36,29.6,36L29.6,36z"/>
	<g>
		<g>
			<path fill="#EF5E5B" stroke="#666666" stroke-width="0.4018" stroke-miterlimit="10" d="M41.1,22l-3.3-7.3
				c-0.1-0.2-0.3-0.3-0.5-0.3h-1.5c0-0.9-0.7-1.5-1.6-1.5c-0.9,0-1.601,0.7-1.601,1.5h-2.1c-0.3,0-0.5,0.2-0.5,0.5v1.5v1.1v6
				C28.7,21.2,24,13,24,13c-0.4-0.8-1.1-1.4-2-1.4c-1.2,0-2.1,1-2.1,2.1c0,0.7,0.4,1.4,0.9,1.8l-0.4,1.2c-0.1,0.1-0.1,0.3,0,0.4
				s0.2,0.3,0.3,0.3c0.4,0.1,0.6,0.6,0.4,1c-0.1,0.2-0.2,0.3-0.4,0.4c-0.2,0.1-0.4,0.1-0.6,0c-0.2-0.1-0.4-0.2-0.4-0.4
				c-0.1-0.3-0.4-0.5-0.8-0.3c-0.3,0.1-0.5,0.5-0.3,0.8c0.2,0.5,0.6,0.9,1.1,1.1c0.2,0.1,0.5,0.1,0.7,0.1c0.3,0,0.5-0.1,0.8-0.2
				c0.5-0.2,0.8-0.6,1-1.1c0.3-0.8,0-1.7-0.6-2.2l0.3-0.7H22c0.2,0,0.4,0,0.6-0.1v7.8H21h-1.1h-1.2c-0.3,0-0.5,0.2-0.5,0.5v3.6
				c0,0.3,0.2,0.5,0.5,0.5h2.2c0,1.6,1.4,2.9,3,2.9s3-1.3,3-2.9H33c0,1.6,1.4,2.9,3,2.9s3-1.3,3-2.9h1.7c0.3,0,0.5-0.2,0.5-0.5v-5.5
				C41.1,22.1,41.1,22,41.1,22z M23.8,29.6c-0.8,0-1.5-0.7-1.5-1.5c0-0.8,0.7-1.5,1.5-1.5c0.8,0,1.5,0.7,1.5,1.5
				C25.3,28.9,24.7,29.6,23.8,29.6z M24.2,23.5v-7.1l4,7.1H24.2z M37.4,28.2c0,0.3-0.101,0.5-0.301,0.8
				c-0.3,0.4-0.699,0.7-1.199,0.7c-0.801,0-1.5-0.6-1.5-1.4v-0.1c0-0.8,0.699-1.5,1.5-1.5c0.199,0,0.5,0.1,0.699,0.2
				C37.1,27,37.4,27.5,37.4,28.2C37.4,28.1,37.4,28.2,37.4,28.2z M32.8,22v-5.8h3.8L39,22H32.8z"/>
			<path fill="#EF5E5B" stroke="#666666" stroke-width="0.4018" stroke-miterlimit="10" d="M36,12.8c0.1,0.1,0.2,0.2,0.3,0.3
				c0.101,0.1,0.3,0.1,0.4,0.1c0.2,0,0.399-0.1,0.6-0.2l0,0l1.7-1.3c0.1-0.1,0.2-0.2,0.3-0.3C39.4,11.3,39.4,11.1,39.4,11
				c0-0.2-0.101-0.4-0.2-0.6l0,0c-0.101-0.1-0.2-0.2-0.3-0.3C38.8,10,38.6,10,38.5,10c-0.2,0-0.4,0.1-0.6,0.2l-1.7,1.3l0,0
				c-0.101,0.1-0.2,0.2-0.3,0.3C35.8,11.9,35.8,12.1,35.8,12.2C35.8,12.4,35.9,12.6,36,12.8L36,12.8z"/>
			<path fill="#EF5E5B" stroke="#666666" stroke-width="0.4018" stroke-miterlimit="10" d="M34.2,11.7c0.3,0,0.5-0.1,0.7-0.3
				c0.199-0.2,0.3-0.4,0.3-0.7V8.6c0-0.3-0.101-0.5-0.3-0.7c-0.2-0.2-0.4-0.3-0.7-0.3s-0.5,0.1-0.7,0.3c-0.2,0.2-0.3,0.4-0.3,0.7
				v2.2c0,0.3,0.1,0.5,0.3,0.7C33.7,11.6,33.9,11.7,34.2,11.7z"/>
			<path fill="#EF5E5B" stroke="#666666" stroke-width="0.4018" stroke-miterlimit="10" d="M29.3,11.7L29.3,11.7L31,13l0,0
				c0.2,0.1,0.4,0.2,0.6,0.2c0.101,0,0.301,0,0.4-0.1s0.3-0.2,0.3-0.3l0,0c0.101-0.2,0.2-0.4,0.2-0.6c0-0.1,0-0.3-0.1-0.4
				c-0.101-0.1-0.2-0.3-0.301-0.3l0,0l-1.7-1.3C30.2,10.1,30,10,29.8,10c-0.1,0-0.3,0-0.4,0.1s-0.3,0.2-0.3,0.3l0,0
				c-0.1,0.2-0.2,0.4-0.2,0.6c0,0.1,0,0.3,0.1,0.4S29.2,11.6,29.3,11.7z"/>
		</g>
	</g>
</g>
</svg>
