<?xml version="1.0" encoding="utf-8"?>
<!-- Generator: Adobe Illustrator 15.0.0, SVG Export Plug-In . SVG Version: 6.00 Build 0)  -->
<!DOCTYPE svg PUBLIC "-//W3C//DTD SVG 1.1//EN" "http://www.w3.org/Graphics/SVG/1.1/DTD/svg11.dtd">
<svg version="1.1" id="Layer_1" xmlns="http://www.w3.org/2000/svg" xmlns:xlink="http://www.w3.org/1999/xlink" x="0px" y="0px"
	 width="100px" height="100px" viewBox="0 0 100 100" enable-background="new 0 0 100 100" xml:space="preserve">
<g>
	<path fill="#FFFFFF" d="M97.5,50.004C97.5,76.23,76.233,97.5,50,97.5c-26.23,0-47.5-21.27-47.5-47.496C2.5,23.767,23.77,2.5,50,2.5
		C76.233,2.5,97.5,23.767,97.5,50.004z"/>
	<circle fill="#F07730" cx="50" cy="50.004" r="42.792"/>
	<g>
		<polygon fill="#D9590C" points="34.834,57.572 45.664,57.572 34.834,38.425 		"/>
		<path fill="#D9590C" d="M78.733,70.104h-4.444c-0.115,4.352-3.68,7.846-8.059,7.846c-4.387,0-7.948-3.494-8.068-7.846H41.936
			c-0.119,4.352-3.68,7.846-8.063,7.846c-4.379,0-7.946-3.494-8.061-7.846h-5.802c-0.812,0-1.465-0.656-1.465-1.457v-9.619
			c0-0.811,0.653-1.455,1.465-1.455h3.244h2.915h4.475V36.554c-0.539,0.172-1.094,0.288-1.688,0.288
			c-0.115,0-0.22-0.027-0.331-0.035l-0.747,1.972c1.703,1.359,2.423,3.715,1.607,5.863c-0.492,1.289-1.453,2.308-2.708,2.876
			c-0.678,0.3-1.396,0.452-2.112,0.452c-0.621,0-1.239-0.112-1.833-0.34c-1.392-0.523-2.487-1.628-3.003-3.02
			c-0.303-0.813,0.107-1.72,0.925-2.024c0.816-0.3,1.719,0.112,2.023,0.928c0.2,0.541,0.627,0.976,1.171,1.177
			c0.497,0.195,1.05,0.179,1.537-0.041c0.495-0.224,0.867-0.62,1.063-1.125c0.391-1.036-0.136-2.203-1.171-2.596
			c-0.394-0.151-0.705-0.444-0.878-0.827c-0.172-0.381-0.184-0.812-0.035-1.2l1.192-3.125c-1.48-1.035-2.456-2.751-2.456-4.687
			c0-0.992,0.253-1.916,0.688-2.728L7.534,44.721c-0.214,1.728-0.326,3.491-0.326,5.283c0,23.63,19.161,42.789,42.792,42.789
			c2.331,0,4.62-0.193,6.851-0.549l22.171-22.172C78.929,70.092,78.829,70.104,78.733,70.104z"/>
		<polygon fill="#D9590C" points="57.819,37.814 57.819,53.506 74.608,53.506 68.003,37.814 		"/>
		<path fill="#D9590C" d="M33.873,65.852c-2.229,0-4.035,1.803-4.035,4.033c0,2.225,1.807,4.033,4.035,4.033
			c2.23,0,4.036-1.809,4.036-4.033C37.909,67.654,36.104,65.852,33.873,65.852z"/>
		<path fill="#D9590C" d="M68.003,66.258c-0.541-0.264-1.137-0.406-1.772-0.406c-2.229,0-4.036,1.803-4.036,4.033
			c0,0.068,0,0.141,0.01,0.219c0.11,2.127,1.87,3.814,4.026,3.814c1.396,0,2.627-0.713,3.349-1.797
			c0.394-0.58,0.635-1.275,0.674-2.018c0.008-0.078,0.008-0.15,0.008-0.219C70.261,68.287,69.342,66.92,68.003,66.258z"/>
	</g>
	<path fill="#282C30" d="M80.064,53.381l-8.743-19.555c-0.235-0.527-0.755-0.859-1.333-0.859h-4.13
		c-0.061-2.284-1.929-4.124-4.225-4.124c-2.293,0-4.167,1.84-4.222,4.124h-5.575c-0.806,0-1.462,0.647-1.462,1.451v4.04l0.004,2.916
		v16.019C46.948,51.35,34.4,29.267,34.36,29.187c-1.112-2.123-2.9-3.855-5.403-3.855c-3.172,0-5.755,2.583-5.755,5.759
		c0,1.936,0.976,3.652,2.456,4.687l-1.192,3.125c-0.148,0.388-0.137,0.819,0.035,1.2c0.173,0.383,0.484,0.676,0.878,0.827
		c1.035,0.393,1.562,1.56,1.171,2.596c-0.196,0.504-0.568,0.901-1.063,1.125c-0.487,0.22-1.04,0.236-1.537,0.041
		c-0.544-0.201-0.971-0.636-1.171-1.177c-0.305-0.815-1.207-1.228-2.023-0.928c-0.817,0.304-1.228,1.211-0.925,2.024
		c0.516,1.392,1.611,2.496,3.003,3.02c0.594,0.228,1.212,0.34,1.833,0.34c0.717,0,1.435-0.152,2.112-0.452
		c1.255-0.568,2.216-1.587,2.708-2.876c0.815-2.147,0.096-4.503-1.607-5.863l0.747-1.972c0.111,0.008,0.216,0.035,0.331,0.035
		c0.594,0,1.148-0.115,1.688-0.288v21.019H26.17h-2.915h-3.244c-0.812,0-1.465,0.645-1.465,1.455v9.619
		c0,0.801,0.653,1.457,1.465,1.457h5.802c0.114,4.352,3.682,7.846,8.061,7.846c4.383,0,7.943-3.494,8.063-7.846h16.227
		c0.12,4.352,3.682,7.846,8.068,7.846c4.379,0,7.943-3.494,8.059-7.846h4.444c0.804,0,1.454-0.656,1.454-1.457V53.984
		C80.188,53.773,80.148,53.57,80.064,53.381z M33.873,73.918c-2.229,0-4.035-1.809-4.035-4.033c0-2.23,1.807-4.033,4.035-4.033
		c2.23,0,4.036,1.803,4.036,4.033C37.909,72.109,36.104,73.918,33.873,73.918z M34.834,57.572V38.425l10.83,19.147H34.834z
		 M70.253,70.104c-0.039,0.742-0.28,1.438-0.674,2.018c-0.722,1.084-1.953,1.797-3.349,1.797c-2.156,0-3.916-1.688-4.026-3.814
		c-0.01-0.078-0.01-0.15-0.01-0.219c0-2.23,1.808-4.033,4.036-4.033c0.636,0,1.231,0.143,1.772,0.406
		c1.339,0.662,2.258,2.029,2.258,3.627C70.261,69.953,70.261,70.025,70.253,70.104z M57.819,53.506V37.814h10.184l6.605,15.692
		H57.819z"/>
	<path fill="#282C30" d="M35.762,69.881c0,1.047-0.846,1.895-1.893,1.895c-1.04,0-1.888-0.848-1.888-1.895
		c0-1.039,0.848-1.885,1.888-1.885C34.916,67.996,35.762,68.842,35.762,69.881z"/>
	<path fill="#282C30" d="M68.118,69.881c0,1.047-0.845,1.895-1.888,1.895c-1.047,0-1.892-0.848-1.892-1.895
		c0-1.039,0.845-1.885,1.892-1.885C67.273,67.996,68.118,68.842,68.118,69.881z"/>
	<path fill="#D9590C" d="M56.272,26.546c-0.514,0.504-0.514,1.325,0,1.833c0.502,0.508,1.327,0.508,1.829,0
		c1.388-1.388,3.646-1.388,5.034,0c0.508,0.508,1.327,0.508,1.831,0c0.511-0.504,0.507-1.328,0-1.833
		C62.57,24.147,58.666,24.147,56.272,26.546L56.272,26.546z M56.272,26.546"/>
	<path fill="#D9590C" d="M53.382,22.66c-0.506,0.508-0.506,1.331,0,1.835c0.509,0.503,1.326,0.503,1.832,0
		c2.979-2.979,7.833-2.979,10.809,0c0.508,0.503,1.327,0.508,1.835,0c0.504-0.504,0.504-1.328,0-1.832
		C63.864,18.672,57.37,18.667,53.382,22.66L53.382,22.66z M53.382,22.66"/>
	<path fill="#D9590C" d="M50.039,18.956c-0.504,0.503-0.504,1.327,0,1.831c0.508,0.508,1.329,0.508,1.837,0
		c4.918-4.919,12.924-4.919,17.842,0c0.508,0.508,1.329,0.508,1.831,0c0.51-0.504,0.51-1.328,0-1.831
		C65.621,13.024,55.971,13.024,50.039,18.956L50.039,18.956z M50.039,18.956"/>
	<path fill="#282C30" d="M57.063,24.951c-0.504,0.508-0.504,1.329,0,1.836c0.51,0.508,1.331,0.508,1.837,0
		c1.388-1.388,3.646-1.388,5.034,0c0.506,0.508,1.323,0.508,1.832,0c0.504-0.508,0.504-1.328,0-1.836
		C63.367,22.555,59.462,22.555,57.063,24.951L57.063,24.951z M57.063,24.951"/>
	<path fill="#282C30" d="M54.18,21.067c-0.508,0.508-0.504,1.332,0,1.836c0.509,0.504,1.326,0.504,1.836,0
		c2.976-2.979,7.821-2.979,10.801,0c0.506,0.504,1.329,0.504,1.833,0c0.51-0.504,0.51-1.328,0-1.836
		C64.662,17.076,58.166,17.076,54.18,21.067L54.18,21.067z M54.18,21.067"/>
	<path fill="#282C30" d="M50.835,17.359c-0.503,0.508-0.503,1.328,0,1.836c0.508,0.508,1.331,0.508,1.837,0
		c4.92-4.919,12.922-4.919,17.842,0c0.51,0.508,1.327,0.508,1.833,0c0.51-0.504,0.51-1.328,0.004-1.832
		C66.419,11.428,56.767,11.428,50.835,17.359L50.835,17.359z M50.835,17.359"/>
</g>
</svg>
