<?xml version="1.0" encoding="utf-8"?>
<!-- Generator: Adobe Illustrator 15.0.0, SVG Export Plug-In . SVG Version: 6.00 Build 0)  -->
<!DOCTYPE svg PUBLIC "-//W3C//DTD SVG 1.1//EN" "http://www.w3.org/Graphics/SVG/1.1/DTD/svg11.dtd">
<svg version="1.1" id="Layer_1" xmlns="http://www.w3.org/2000/svg" xmlns:xlink="http://www.w3.org/1999/xlink" x="0px" y="0px"
	 width="1024px" height="910.57px" viewBox="0 0 1024 910.57" enable-background="new 0 0 1024 910.57" xml:space="preserve">
<g opacity="0.3">
	<g>
		<g>
			<polygon points="6,772.3 48.1,772.3 48.1,891.4 68.1,891.4 68.1,772.3 109.9,772.3 109.9,752.1 6,752.1 			"/>
			<path d="M205.6,849.2c0,15.3-16.5,23-30.9,23c-14.7,0-31.1-7.5-31.1-22.8V752.3h-20.2v96.9c0,28.3,27,43,51.3,43
				c23.8,0,51.1-14.7,51.1-42.8V752.3h-20.2V849.2L205.6,849.2z"/>
			<polygon points="287.1,754.8 232.1,898.5 245.3,898.5 300.8,754.8 			"/>
			<path d="M361.1,844.4h51.3C404.1,864.6,385.8,872.6,368.8,872.6c-27.2,0-48.2-21.6-48.2-50.898c0-29.102,21-50.3,48.2-50.3
				c17.6,0,39,8.1,44.602,30.5H434.8c-7.3-36.9-39.4-50.5-66-50.5c-38.3,0-68.2,29.3-68.2,70.398c0,40.8,29.3,70.2,68.2,70.2
				c25.2,0,53.7-17,63.2-43.6v0.198c1.8-4.6,2.8-12.3,3.8-24h-74.7V844.4L361.1,844.4z"/>
			<path d="M546.8,796.3c0-22-15-44.2-45.2-44.2h-50.5v138.7H470.9V772.3H501.6c16.9,0,25.2,12.102,25.2,24
				c0,12.102-8.3,24.2-25.2,24.2H478.2v9.5l50.6,60.8h26L511,838.7C534.7,834.5,546.8,815.9,546.8,796.3z"/>
			<path d="M641.9,849.2c0,15.3-16.4,23-30.9,23c-14.7,0-31.1-7.5-31.1-22.8V752.3h-20.2v96.9c0,28.3,27,43,51.3,43
				c23.8,0,51.1-14.7,51.1-42.8V752.3H641.9V849.2L641.9,849.2z"/>
			<polygon points="699.4,831.5 762.2,831.5 762.2,811.3 699.4,811.3 699.4,772.3 763.6,772.3 763.6,752.3 679.2,752.3 679.2,890.8 
				763.8,890.8 763.8,870.8 699.4,870.8 			"/>
			<path d="M872.6,796.3c0-22-15.1-44.2-45.198-44.2h-50.5v138.7h19.8V772.3h30.7c16.8,0,25.198,12.102,25.198,24
				c0,12.102-8.3,24.2-25.198,24.2H804v9.5l50.5,60.8h26l-43.8-52.1C860.5,834.5,872.6,815.9,872.6,796.3z"/>
			<path d="M1002.2,771.3c-12.9-12.898-30.5-21-50.102-21c-19.398,0-37.3,8.102-49.898,21C889.7,784.2,881.6,801.8,881.6,821.4
				c0,19.6,8.102,37.3,20.602,50.1c12.7,13.1,30.5,21,49.898,21c19.602,0,37.302-7.9,50.102-21c12.5-12.9,20.6-30.5,20.6-50.1
				C1022.8,801.8,1014.7,784.2,1002.2,771.3z M988,857.3c-9.3,9.3-22.2,15.102-35.9,15.102c-13.698,0-26.398-5.7-35.5-15.102
				c-9.1-9.1-14.898-21.8-14.898-35.898c0-14.102,5.8-26.802,14.898-35.9c9.102-9.3,21.802-15.1,35.5-15.1
				c13.7,0,26.602,5.8,35.9,15.1c8.9,9.1,14.7,21.6,14.7,35.9C1002.6,835.7,996.9,848.2,988,857.3z"/>
		</g>
	</g>
	<path d="M974,822.2c0,12.1-9.8,21.898-21.8,21.898c-12.102,0-21.8-9.8-21.8-21.898c0-12.102,9.8-21.8,21.8-21.8
		C964.3,800.4,974,810.2,974,822.2z"/>
</g>
<g>
	<g>
		<g>
			<polygon fill="#F07730" points="0.1,765.3 42.2,765.3 42.2,884.4 62.2,884.4 62.2,765.3 104,765.3 104,745 0.1,745 			"/>
			<path fill="#F07730" d="M199.7,842.2c0,15.3-16.5,23-30.9,23c-14.7,0-31.1-7.5-31.1-22.8V745.3h-20.2v96.9c0,28.3,27,43,51.3,43
				c23.8,0,51.1-14.7,51.1-42.8V745.3h-20.2V842.2z"/>
			<polygon fill="#F07730" points="281.2,747.8 226.1,891.5 239.4,891.5 294.9,747.8 			"/>
			<path fill="#FFFFFF" d="M355.2,837.4h51.3c-8.3,20.198-26.6,28.198-43.6,28.198c-27.2,0-48.2-21.6-48.2-50.898
				c0-29.102,21-50.4,48.2-50.4c17.6,0,39,8.102,44.6,30.5h21.4c-7.302-36.898-39.4-50.5-66-50.5c-38.3,0-68.2,29.3-68.2,70.4
				c0,40.8,29.3,70.2,68.2,70.2c25.2,0,53.7-17.102,63.2-43.602v0.2c1.802-4.6,2.802-12.3,3.802-24h-74.7L355.2,837.4L355.2,837.4z"
				/>
			<path fill="#FFFFFF" d="M540.9,789.2c0-22-15.102-44.2-45.2-44.2h-50.5v138.7H465V765.3h30.7c16.8,0,25.2,12.102,25.2,24
				c0,12.102-8.302,24.2-25.2,24.2h-23.4v9.5l50.5,60.9h26L505,831.7C528.8,827.5,540.9,808.9,540.9,789.2z"/>
			<path fill="#FFFFFF" d="M636,842.2c0,15.3-16.5,23-30.9,23c-14.698,0-31.1-7.5-31.1-22.8V745.3h-20.2v96.9
				c0,28.3,26.9,43,51.3,43c23.802,0,51.102-14.7,51.102-42.8V745.3H636V842.2z"/>
			<polygon fill="#FFFFFF" points="693.5,824.5 756.3,824.5 756.3,804.3 693.5,804.3 693.5,765.3 757.7,765.3 757.7,745.2 
				673.3,745.2 673.3,883.8 757.9,883.8 757.9,863.8 693.5,863.8 			"/>
			<path fill="#FFFFFF" d="M866.7,789.2c0-22-15.102-44.2-45.2-44.2H771v138.7h19.8V765.3h30.7c16.8,0,25.2,12.102,25.2,24
				c0,12.102-8.3,24.2-25.2,24.2h-23.4v9.5l50.5,60.9h26L830.8,831.8C854.6,827.5,866.7,808.9,866.7,789.2z"/>
			<path fill="#FFFFFF" d="M996.3,764.3c-12.898-12.898-30.5-21-50.1-21c-19.4,0-37.3,8.102-49.9,21
				c-12.5,12.9-20.6,30.5-20.6,50.102c0,19.6,8.1,37.3,20.6,50.198c12.7,13.102,30.5,21,49.9,21c19.6,0,37.3-7.898,50.1-21
				c12.5-12.898,20.602-30.5,20.602-50.198C1016.9,794.8,1008.8,777.1,996.3,764.3z M982.1,850.3
				C972.8,859.6,959.9,865.4,946.2,865.4s-26.4-5.7-35.5-15.102c-9.102-9.1-14.9-21.8-14.9-35.898c0-14.102,5.8-26.7,14.9-35.9
				c9.1-9.3,21.8-15.1,35.5-15.1s26.6,5.8,35.898,15.1c8.9,9.1,14.7,21.6,14.7,35.9C996.7,828.7,991,841.2,982.1,850.3z"/>
		</g>
	</g>
	<path fill="#F07730" d="M968.1,815.2c0,12.1-9.8,21.8-21.8,21.8c-12.1,0-21.8-9.8-21.8-21.8c0-12.102,9.8-21.8,21.8-21.8
		C958.4,793.4,968.1,803.1,968.1,815.2z"/>
</g>
<g>
	<path opacity="0.3" d="M801.249,419.34c0,151.562-122.911,274.498-274.503,274.498c-151.568,0-274.455-122.936-274.455-274.498
		c0-151.569,122.887-274.479,274.455-274.479C678.338,144.861,801.249,267.771,801.249,419.34z"/>
	<path fill="#FFFFFF" d="M787.357,399.163c0,151.54-122.886,274.45-274.479,274.45c-151.568,0-274.479-122.91-274.479-274.45
		c0-151.615,122.91-274.501,274.479-274.501C664.472,124.662,787.357,247.548,787.357,399.163z"/>
	<path fill="#F07730" d="M760.155,399.163c0,136.542-110.707,247.249-247.276,247.249c-136.546,0-247.276-110.707-247.276-247.249
		c0-136.569,110.73-247.275,247.276-247.275C649.448,151.888,760.155,262.594,760.155,399.163z"/>
	<g>
		<polygon fill="#D9590C" points="425.238,442.891 487.826,442.891 425.238,332.254 		"/>
		<path fill="#D9590C" d="M678.916,515.295h-25.678c-0.67,25.146-21.263,45.348-46.569,45.348
			c-25.354,0-45.924-20.201-46.617-45.348h-93.767c-0.693,25.146-21.263,45.348-46.594,45.348c-25.308,0-45.924-20.201-46.57-45.348
			h-33.536c-4.691,0-8.458-3.789-8.458-8.406v-55.583c0-4.693,3.767-8.414,8.458-8.414h18.744h16.849h25.862V321.438
			c-3.12,0.994-6.333,1.664-9.753,1.664c-0.671,0-1.271-0.161-1.919-0.208l-4.321,11.394c9.846,7.858,14.005,21.471,9.29,33.882
			c-2.843,7.442-8.388,13.335-15.646,16.618c-3.906,1.733-8.067,2.612-12.204,2.612c-3.583,0-7.165-0.647-10.585-1.965
			c-8.044-3.028-14.376-9.406-17.357-17.45c-1.756-4.691,0.624-9.938,5.34-11.694c4.715-1.733,9.938,0.647,11.694,5.362
			c1.155,3.12,3.628,5.639,6.771,6.795c2.866,1.132,6.056,1.04,8.875-0.231c2.865-1.294,5.016-3.582,6.148-6.495
			c2.265-5.986-0.786-12.735-6.773-15c-2.265-0.878-4.067-2.566-5.061-4.784c-0.994-2.196-1.063-4.692-0.208-6.934l6.887-18.051
			c-8.551-5.986-14.19-15.901-14.19-27.087c0-5.732,1.456-11.07,3.976-15.762l-94.506,94.528
			c-1.248,9.984-1.896,20.177-1.896,30.531c0,136.542,110.73,247.249,247.276,247.249c13.475,0,26.695-1.111,39.591-3.168
			l128.111-128.111C680.048,515.227,679.472,515.295,678.916,515.295z"/>
		<polygon fill="#D9590C" points="558.064,328.718 558.064,419.387 655.087,419.387 616.906,328.718 		"/>
		<path fill="#D9590C" d="M419.691,490.732c-12.874,0-23.32,10.424-23.32,23.316c0,12.85,10.446,23.297,23.32,23.297
			c12.896,0,23.319-10.447,23.319-23.297C443.011,501.156,432.588,490.732,419.691,490.732z"/>
		<path fill="#D9590C" d="M616.906,493.092c-3.119-1.525-6.563-2.359-10.237-2.359c-12.875,0-23.32,10.424-23.32,23.316
			c0,0.393,0,0.809,0.046,1.246c0.646,12.297,10.816,22.051,23.274,22.051c8.065,0,15.185-4.115,19.344-10.379
			c2.288-3.35,3.675-7.373,3.906-11.672c0.046-0.438,0.046-0.854,0.046-1.246C629.965,504.809,624.649,496.906,616.906,493.092z"/>
	</g>
	<path fill="#282C30" d="M686.613,418.67l-50.524-112.995c-1.362-3.051-4.367-4.969-7.695-4.969H604.52
		c-0.347-13.197-11.141-23.829-24.407-23.829c-13.266,0-24.083,10.631-24.406,23.829h-32.219c-4.646,0-8.436,3.744-8.436,8.39
		v23.343l0.023,16.849v92.564c-19.83-34.922-92.333-162.524-92.563-162.987c-6.426-12.272-16.757-22.279-31.225-22.279
		c-18.328,0-33.259,14.93-33.259,33.281c0,11.187,5.64,21.102,14.19,27.087l-6.887,18.051c-0.855,2.242-0.786,4.738,0.208,6.934
		c0.993,2.218,2.796,3.906,5.061,4.784c5.987,2.265,9.038,9.014,6.773,15c-1.133,2.913-3.283,5.201-6.148,6.495
		c-2.819,1.271-6.009,1.364-8.875,0.231c-3.144-1.156-5.616-3.675-6.771-6.795c-1.757-4.715-6.979-7.096-11.694-5.362
		c-4.716,1.756-7.096,7.003-5.34,11.694c2.981,8.043,9.313,14.422,17.357,17.45c3.42,1.317,7.002,1.965,10.585,1.965
		c4.137,0,8.298-0.878,12.204-2.612c7.258-3.282,12.803-9.175,15.646-16.618c4.715-12.411,0.556-26.024-9.29-33.882l4.321-11.394
		c0.648,0.046,1.248,0.208,1.919,0.208c3.42,0,6.633-0.669,9.753-1.664v121.454h-25.862h-16.849h-18.744
		c-4.691,0-8.458,3.721-8.458,8.414v55.583c0,4.617,3.767,8.406,8.458,8.406h33.536c0.646,25.146,21.263,45.348,46.57,45.348
		c25.331,0,45.9-20.201,46.594-45.348h93.767c0.693,25.146,21.263,45.348,46.617,45.348c25.307,0,45.899-20.201,46.569-45.348
		h25.678c4.646,0,8.413-3.789,8.413-8.406V422.16C687.329,420.935,687.098,419.779,686.613,418.67z M419.691,537.346
		c-12.874,0-23.32-10.447-23.32-23.297c0-12.893,10.446-23.316,23.32-23.316c12.896,0,23.319,10.424,23.319,23.316
		C443.011,526.898,432.588,537.346,419.691,537.346z M425.238,442.891V332.254l62.588,110.637H425.238z M629.919,515.295
		c-0.231,4.299-1.618,8.322-3.906,11.672c-4.159,6.264-11.278,10.379-19.344,10.379c-12.458,0-22.628-9.754-23.274-22.051
		c-0.046-0.438-0.046-0.854-0.046-1.246c0-12.893,10.445-23.316,23.32-23.316c3.675,0,7.118,0.834,10.237,2.359
		c7.743,3.814,13.059,11.717,13.059,20.957C629.965,514.441,629.965,514.857,629.919,515.295z M558.064,419.387v-90.669h58.842
		l38.181,90.669H558.064z"/>
	<path fill="#282C30" d="M430.601,514.025c0,6.031-4.878,10.932-10.932,10.932c-6.01,0-10.909-4.9-10.909-10.932
		c0-6.006,4.899-10.902,10.909-10.902C425.723,503.123,430.601,508.02,430.601,514.025z"/>
	<path fill="#282C30" d="M617.577,514.025c0,6.031-4.877,10.932-10.908,10.932c-6.056,0-10.933-4.9-10.933-10.932
		c0-6.006,4.877-10.902,10.933-10.902C612.7,503.123,617.577,508.02,617.577,514.025z"/>
	<path fill="#D9590C" d="M549.119,263.611c-2.959,2.912-2.959,7.65,0,10.585c2.912,2.936,7.674,2.936,10.585,0
		c8.02-8.02,21.056-8.02,29.075,0c2.936,2.936,7.673,2.936,10.586,0c2.958-2.912,2.935-7.673,0-10.585
		C585.521,249.744,562.963,249.744,549.119,263.611L549.119,263.611z M549.119,263.611"/>
	<path fill="#D9590C" d="M532.432,241.146c-2.935,2.936-2.935,7.697,0,10.609c2.936,2.912,7.65,2.912,10.586,0
		c17.219-17.219,45.253-17.219,62.449,0c2.935,2.912,7.673,2.936,10.608,0c2.911-2.912,2.911-7.673,0-10.586
		C593.01,218.104,555.475,218.08,532.432,241.146L532.432,241.146z M532.432,241.146"/>
	<path fill="#D9590C" d="M513.111,219.745c-2.913,2.912-2.913,7.673,0,10.585c2.934,2.935,7.673,2.935,10.607,0
		c28.428-28.428,74.676-28.428,103.103,0c2.936,2.935,7.674,2.935,10.586,0c2.937-2.912,2.937-7.673,0-10.585
		C603.155,185.469,547.386,185.469,513.111,219.745L513.111,219.745z M513.111,219.745"/>
	<path fill="#282C30" d="M553.695,254.389c-2.911,2.936-2.911,7.673,0,10.608c2.936,2.936,7.695,2.936,10.609,0
		c8.019-8.02,21.078-8.02,29.097,0c2.913,2.936,7.65,2.936,10.585,0c2.913-2.936,2.913-7.673,0-10.608
		C590.119,240.545,567.562,240.545,553.695,254.389L553.695,254.389z M553.695,254.389"/>
	<path fill="#282C30" d="M537.032,231.948c-2.937,2.935-2.913,7.696,0,10.608c2.935,2.912,7.672,2.912,10.607,0
		c17.195-17.219,45.208-17.219,62.426,0c2.912,2.912,7.673,2.912,10.586,0c2.935-2.913,2.935-7.673,0-10.608
		C597.607,208.882,560.073,208.882,537.032,231.948L537.032,231.948z M537.032,231.948"/>
	<path fill="#282C30" d="M517.709,210.522c-2.911,2.935-2.911,7.673,0,10.608c2.937,2.936,7.696,2.936,10.609,0
		c28.428-28.428,74.676-28.428,103.103,0c2.936,2.936,7.674,2.936,10.585,0c2.959-2.912,2.959-7.673,0.023-10.585
		C607.753,176.248,551.985,176.248,517.709,210.522L517.709,210.522z M517.709,210.522"/>
</g>
</svg>
