<?xml version="1.0" encoding="utf-8"?>
<!-- Generator: Adobe Illustrator 15.0.0, SVG Export Plug-In . SVG Version: 6.00 Build 0)  -->
<!DOCTYPE svg PUBLIC "-//W3C//DTD SVG 1.1//EN" "http://www.w3.org/Graphics/SVG/1.1/DTD/svg11.dtd">
<svg version="1.1" id="Layer_1" xmlns="http://www.w3.org/2000/svg" xmlns:xlink="http://www.w3.org/1999/xlink" x="0px" y="0px"
	 width="100px" height="100px" viewBox="0 0 100 100" enable-background="new 0 0 100 100" xml:space="preserve">
<path fill="#CCCCCC" d="M99.427,36.52c-0.49-0.607-1.216-0.94-1.979-0.94h-9.743c-2.411-6.333-5.528-12.547-9.077-14.88
	c-12.312-8.098-44.933-8.098-57.246,0c-3.548,2.333-6.685,8.547-9.096,14.88H2.561c-0.783,0-1.508,0.353-1.979,0.94
	c-0.49,0.607-0.687,1.373-0.528,2.138l1.45,6.979c0.235,1.196,1.294,2.039,2.509,2.039h2.883c-2.785,3.216-4.136,7.273-4.156,11.312
	c-0.02,5,1.882,9.509,5.352,12.703c0.04,0.021,0.079,0.061,0.118,0.08v9.781c0,2.098,1.706,3.823,3.843,3.823h8.979
	c2.116,0,3.843-1.726,3.843-3.823V77.63h50.286v3.921c0,2.098,1.706,3.823,3.843,3.823h8.979c2.098,0,3.843-1.726,3.843-3.823
	v-9.605c3.666-3.354,5.431-7.998,5.47-12.625c0.02-4.176-1.393-8.371-4.354-11.665h3.078c1.217,0,2.254-0.843,2.51-2.039
	l1.432-6.979C100.093,37.911,99.897,37.127,99.427,36.52L99.427,36.52z M25.616,27.109c9.802-6.45,38.995-6.45,48.776,0
	c1.922,1.255,4.354,6.313,6.588,12.488H19.008C21.244,33.422,23.694,28.364,25.616,27.109L25.616,27.109z M14.108,59.946
	c0-4.156,3.392-7.548,7.548-7.548c4.176,0,7.568,3.392,7.568,7.548c0,4.176-3.393,7.567-7.568,7.567
	C17.499,67.514,14.108,64.122,14.108,59.946L14.108,59.946z M78.431,67.514c-4.156,0-7.548-3.392-7.548-7.566
	c0-4.156,3.392-7.549,7.548-7.549c4.176,0,7.566,3.393,7.566,7.549C85.978,64.122,82.604,67.514,78.431,67.514L78.431,67.514z"/>
</svg>
