<?xml version="1.0" encoding="utf-8"?>
<!-- Generator: Adobe Illustrator 15.0.0, SVG Export Plug-In . SVG Version: 6.00 Build 0)  -->
<!DOCTYPE svg PUBLIC "-//W3C//DTD SVG 1.1//EN" "http://www.w3.org/Graphics/SVG/1.1/DTD/svg11.dtd">
<svg version="1.1" id="Layer_1" xmlns="http://www.w3.org/2000/svg" xmlns:xlink="http://www.w3.org/1999/xlink" x="0px" y="0px"
	 width="100px" height="100px" viewBox="0 0 100 100" enable-background="new 0 0 100 100" xml:space="preserve">
<g>
	<polygon fill="#CCCCCC" points="59.778,21.499 72.2,46.688 100,50.727 79.889,70.324 84.637,98.015 59.778,84.938 34.92,98.015 
		39.667,70.324 19.557,50.727 47.35,46.688 	"/>
	<path fill="#CCCCCC" d="M65.738,79.274l-25.11-13.208L15.519,79.274l4.796-27.97L0,31.509l28.073-4.079L40.628,1.985L53.176,27.43
		l28.081,4.079L60.942,51.305L65.738,79.274z M5.975,33.452l17.327,16.889l-4.087,23.852l21.413-11.265l21.414,11.265l-4.095-23.852
		l17.327-16.889l-23.946-3.48l-10.7-21.7l-10.706,21.7L5.975,33.452z"/>
</g>
</svg>
