<?xml version="1.0" encoding="utf-8"?>
<!-- Generator: Adobe Illustrator 15.0.0, SVG Export Plug-In . SVG Version: 6.00 Build 0)  -->
<!DOCTYPE svg PUBLIC "-//W3C//DTD SVG 1.1//EN" "http://www.w3.org/Graphics/SVG/1.1/DTD/svg11.dtd">
<svg version="1.1" id="Layer_1" xmlns="http://www.w3.org/2000/svg" xmlns:xlink="http://www.w3.org/1999/xlink" x="0px" y="0px"
	 width="100px" height="100px" viewBox="0 0 100 100" enable-background="new 0 0 100 100" xml:space="preserve">
<g>
	<path fill="#CCCCCC" d="M68.8,24.6c-2.2,0-3.9,1.8-3.9,3.9v17.1c0,0.7-0.6,1.3-1.3,1.3c-0.7,0-1.3-0.6-1.3-1.3v-25
		c0-2.2-1.8-3.9-3.9-3.9c-2.2,0-3.9,1.8-3.9,3.9V43c0,0.7-0.6,1.3-1.3,1.3c-0.7,0-1.3-0.6-1.3-1.3v-25c0-2.2-1.8-3.9-3.9-3.9
		c-2.2,0-3.9,1.8-3.9,3.9v25c0,0.7-0.6,1.3-1.3,1.3c-0.7,0-1.3-0.6-1.3-1.3V23.3c0-2.2-1.8-3.9-3.9-3.9c-2.2,0-3.9,1.8-3.9,3.9v32.9
		L28,48.9c-1.6-2.4-4.7-3.2-6.9-1.8c-2.2,1.4-2.8,4.5-1.2,7c0,0,8.6,13,12.3,18.6c3.7,5.6,9.6,9.9,20.7,9.9c18.4,0,20-14.2,20-18.4
		V28.6C72.8,26.4,71,24.6,68.8,24.6z"/>
	<path fill="#CCCCCC" d="M50,0C22.4,0,0,22.4,0,50c0,27.6,22.4,50,50,50c27.6,0,50-22.4,50-50C100,22.4,77.6,0,50,0L50,0z M50,93.7
		C25.9,93.7,6.3,74.1,6.3,50C6.3,25.9,25.9,6.3,50,6.3c24.1,0,43.8,19.6,43.8,43.7C93.7,74.1,74.1,93.7,50,93.7L50,93.7z M50,93.7"
		/>
</g>
</svg>
