<?xml version="1.0" encoding="utf-8"?>
<!-- Generator: Adobe Illustrator 15.0.0, SVG Export Plug-In . SVG Version: 6.00 Build 0)  -->
<!DOCTYPE svg PUBLIC "-//W3C//DTD SVG 1.1//EN" "http://www.w3.org/Graphics/SVG/1.1/DTD/svg11.dtd">
<svg version="1.1" id="Layer_1" xmlns="http://www.w3.org/2000/svg" xmlns:xlink="http://www.w3.org/1999/xlink" x="0px" y="0px"
	 width="100px" height="100px" viewBox="0 0 100 100" enable-background="new 0 0 100 100" xml:space="preserve">
<g>
	<path fill="#CCCCCC" d="M98.8,71.9l-9.6-21.6c-0.3-0.6-0.8-1-1.5-1h-4.6c-0.1-2.5-2.1-4.5-4.7-4.5c-2.5,0-4.6,2-4.7,4.5h-6.1
		c-0.9,0-1.6,0.7-1.6,1.6v4.5l0,3.2v17.7c-3.8-6.7-17.6-31-17.7-31.1c-1.2-2.3-3.2-4.3-6-4.3c-3.5,0-6.3,2.8-6.3,6.4
		c0,2.1,1.1,4,2.7,5.2l-1.3,3.4c-0.2,0.4-0.2,0.9,0,1.3c0.2,0.4,0.5,0.7,1,0.9c1.1,0.4,1.7,1.7,1.3,2.9c-0.2,0.6-0.6,1-1.2,1.2
		c-0.5,0.2-1.2,0.3-1.7,0c-0.6-0.2-1.1-0.7-1.3-1.3c-0.3-0.9-1.3-1.4-2.2-1c-0.9,0.3-1.3,1.3-1,2.2c0.6,1.5,1.8,2.8,3.3,3.3
		c0.7,0.3,1.3,0.4,2,0.4c0.8,0,1.6-0.2,2.3-0.5c1.4-0.6,2.4-1.7,3-3.2c0.9-2.4,0.1-5-1.8-6.5l0.8-2.2c0.1,0,0.2,0,0.4,0
		c0.7,0,1.3-0.1,1.9-0.3v23.2h-4.9h-3.2h-3.6c-0.9,0-1.6,0.7-1.6,1.6v10.6c0,0.9,0.7,1.6,1.6,1.6H39c0.1,4.8,4.1,8.7,8.9,8.7
		c4.8,0,8.8-3.9,8.9-8.7h17.9c0.1,4.8,4.1,8.7,8.9,8.7c4.8,0,8.8-3.9,8.9-8.7h4.9c0.9,0,1.6-0.7,1.6-1.6V72.6
		C99,72.3,98.9,72.1,98.8,71.9z M47.9,94.6c-2.5,0-4.5-2-4.5-4.4c0-2.5,2-4.5,4.5-4.5c2.5,0,4.4,2,4.4,4.5
		C52.3,92.6,50.3,94.6,47.9,94.6z M48.9,76.5V55.4l11.9,21.1L48.9,76.5L48.9,76.5z M88,90.4c0,0.8-0.3,1.6-0.7,2.2
		c-0.8,1.2-2.2,2-3.7,2c-2.4,0-4.3-1.9-4.4-4.2c0-0.1,0-0.2,0-0.2c0-2.5,2-4.4,4.5-4.4c0.7,0,1.4,0.2,2,0.4c1.5,0.7,2.5,2.2,2.5,4
		C88,90.2,88,90.3,88,90.4z M74.3,72V54.7h11.2L92.8,72H74.3z"/>
	<path fill="#CCCCCC" d="M50,90.1c0,1.2-0.9,2.1-2.1,2.1s-2.1-0.9-2.1-2.1c0-1.1,0.9-2.1,2.1-2.1S50,89,50,90.1z"/>
	<path fill="#CCCCCC" d="M85.7,90.1c0,1.2-0.9,2.1-2.1,2.1c-1.2,0-2.1-0.9-2.1-2.1c0-1.1,0.9-2.1,2.1-2.1C84.7,88,85.7,89,85.7,90.1
		z"/>
	<path fill="#CCCCCC" d="M73.5,40.5c-0.6,0.6-0.6,1.5,0,2c0.6,0.6,1.5,0.6,2,0c1.5-1.5,4-1.5,5.6,0c0.6,0.6,1.5,0.6,2,0
		c0.6-0.6,0.6-1.5,0-2C80.4,37.9,76.1,37.9,73.5,40.5L73.5,40.5z"/>
	<path fill="#CCCCCC" d="M70.3,36.3c-0.6,0.6-0.6,1.5,0,2c0.6,0.6,1.5,0.6,2,0c3.3-3.3,8.6-3.3,11.9,0c0.6,0.6,1.5,0.6,2,0
		c0.6-0.6,0.6-1.5,0-2C81.8,31.9,74.7,31.9,70.3,36.3L70.3,36.3z"/>
	<path fill="#CCCCCC" d="M66.6,32.2c-0.6,0.6-0.6,1.5,0,2c0.6,0.6,1.5,0.6,2,0c5.4-5.4,14.3-5.4,19.7,0c0.6,0.6,1.5,0.6,2,0
		c0.6-0.6,0.6-1.5,0-2C83.8,25.6,73.1,25.6,66.6,32.2L66.6,32.2z"/>
</g>
<path fill="#CCCCCC" d="M62.9,14.1c-0.3-0.4-0.8-0.6-1.2-0.6h-5.9c-1.5-3.9-3.4-7.6-5.5-9.1c-7.5-4.9-27.4-4.9-34.9,0
	c-2.2,1.4-4.1,5.2-5.6,9.1H3.9c-0.5,0-0.9,0.2-1.2,0.6S2.2,15,2.3,15.4l0.9,4.3c0.1,0.7,0.8,1.2,1.5,1.2h1.8c-1.7,2-2.5,4.4-2.5,6.9
	c0,3,1.1,5.8,3.3,7.8c0,0,0,0,0.1,0v6c0,1.3,1,2.3,2.3,2.3h5.5c1.3,0,2.3-1,2.3-2.3v-2.4h30.7v2.4c0,1.3,1,2.3,2.3,2.3h5.5
	c1.3,0,2.3-1,2.3-2.3v-5.8c2.2-2.1,3.3-4.9,3.3-7.7c0-2.6-0.9-5.1-2.7-7.1h1.9c0.7,0,1.4-0.5,1.5-1.2l0.9-4.3
	C63.4,14.9,63.2,14.5,62.9,14.1L62.9,14.1z M17.9,8.4c6-3.9,23.8-3.9,29.8,0c1.2,0.8,2.7,3.8,4,7.6H13.9
	C15.3,12.2,16.7,9.1,17.9,8.4L17.9,8.4z M10.9,28.4c0-2.5,2.1-4.6,4.6-4.6c2.5,0,4.6,2.1,4.6,4.6c0,2.5-2.1,4.6-4.6,4.6
	C13,33,10.9,30.9,10.9,28.4L10.9,28.4z M50.1,33c-2.5,0-4.6-2.1-4.6-4.6c0-2.5,2.1-4.6,4.6-4.6c2.5,0,4.6,2.1,4.6,4.6
	C54.8,30.9,52.7,33,50.1,33L50.1,33z"/>
</svg>
