<?xml version="1.0" encoding="utf-8"?>
<!-- Generator: Adobe Illustrator 15.0.0, SVG Export Plug-In . SVG Version: 6.00 Build 0)  -->
<!DOCTYPE svg PUBLIC "-//W3C//DTD SVG 1.1//EN" "http://www.w3.org/Graphics/SVG/1.1/DTD/svg11.dtd">
<svg version="1.1" id="Layer_1" xmlns="http://www.w3.org/2000/svg" xmlns:xlink="http://www.w3.org/1999/xlink" x="0px" y="0px"
	 width="100px" height="100px" viewBox="0 0 100 100" enable-background="new 0 0 100 100" xml:space="preserve">
<g>
	<path fill="#CCCCCC" stroke="#666666" stroke-width="0.7" stroke-miterlimit="10" d="M50,0.5c-19.5,0-35.4,15.9-35.4,35.4
		c0,18.3,26.5,38.2,34.2,62.7c0.2,0.5,0.7,0.9,1.2,0.9c0.6,0,1-0.4,1.2-0.9c7.4-25.1,34.3-44.3,34.3-62.7C85.4,16.4,69.5,0.5,50,0.5
		L50,0.5z"/>
	<path fill="#4D4D4D" stroke="#666666" stroke-width="0.7" stroke-miterlimit="10" d="M50,62.8c-15.3,0-27.8-12.5-27.8-27.8
		C22.2,19.7,34.7,7.2,50,7.2c15.3,0,27.8,12.5,27.8,27.8C77.8,50.3,65.3,62.8,50,62.8L50,62.8z"/>
	<path fill="#CCCCCC" stroke="#666666" stroke-width="0.7" stroke-miterlimit="10" d="M73.4,26.5c-0.2-0.3-0.6-0.5-0.9-0.5h-4.6
		c-1.1-3-2.6-5.9-4.3-7c-5.8-3.8-21.3-3.8-27.1,0c-1.7,1.1-3.2,4-4.3,7h-4.6c-0.4,0-0.7,0.2-0.9,0.5c-0.2,0.3-0.3,0.7-0.3,1l0.7,3.3
		c0.1,0.6,0.6,1,1.2,1h1.4c-1.3,1.5-2,3.4-2,5.4c0,2.4,0.9,4.5,2.5,6c0,0,0,0,0.1,0v4.6c0,1,0.8,1.8,1.8,1.8h4.2
		c1,0,1.8-0.8,1.8-1.8v-1.9h23.8v1.9c0,1,0.8,1.8,1.8,1.8H68c1,0,1.8-0.8,1.8-1.8v-4.5c1.7-1.6,2.6-3.8,2.6-6c0-2-0.7-4-2.1-5.5h1.5
		c0.6,0,1.1-0.4,1.2-1l0.7-3.3C73.7,27.1,73.6,26.8,73.4,26.5L73.4,26.5z M38.5,22c4.6-3.1,18.5-3.1,23.1,0c0.9,0.6,2.1,3,3.1,5.9
		H35.3C36.4,25,37.5,22.6,38.5,22L38.5,22z M33,37.6c0-2,1.6-3.6,3.6-3.6c2,0,3.6,1.6,3.6,3.6c0,2-1.6,3.6-3.6,3.6
		C34.6,41.1,33,39.5,33,37.6L33,37.6z M63.5,41.1c-2,0-3.6-1.6-3.6-3.6c0-2,1.6-3.6,3.6-3.6c2,0,3.6,1.6,3.6,3.6
		C67,39.5,65.4,41.1,63.5,41.1L63.5,41.1z M63.5,41.1"/>
</g>
</svg>
