xml version="1.0" encoding="utf-8"?>
<!-- Generator: Adobe Illustrator 15.0.0, SVG Export Plug-In . SVG Version: 6.00 Build 0)  -->
<!DOCTYPE svg PUBLIC "-//W3C//DTD SVG 1.1//EN" "http://www.w3.org/Graphics/SVG/1.1/DTD/svg11.dtd">
<svg version="1.1" id="Layer_1" xmlns="http://www.w3.org/2000/svg" xmlns:xlink="http://www.w3.org/1999/xlink" x="0px" y="0px"
	 width="280.357px" height="98.365px" viewBox="0 0 280.357 98.365" enable-background="new 0 0 280.357 98.365"
	 xml:space="preserve">
<g>
	<image overflow="visible" width="281" height="94" xlink:href="C6FDAD77.png"  transform="matrix(1 0 0 1 0 2)">
	</image>
	<g>
		<g>
			<path fill="#FFFFFF" d="M10.525,10.166H6.24v-1.44h10.281v1.44h-4.285v11.416h-1.711V10.166z"/>
			<path fill="#FFFFFF" d="M23.738,21.581h-1.44v-1.477h-0.036c-0.647,1.152-1.692,1.692-3.024,1.692
				c-2.449,0-3.205-1.404-3.205-3.403v-6.122h1.53v6.302c0,1.134,0.721,1.873,1.891,1.873c1.854,0,2.755-1.243,2.755-2.917v-5.257
				h1.53V21.581z"/>
			<path fill="#FFFFFF" d="M35.907,19.979c-0.99,1.351-2.611,1.909-4.123,1.909c-3.836,0-6.122-3.133-6.122-6.482
				c0-3.745,2.053-6.986,6.122-6.986c2.809,0,5.041,1.261,5.527,4.268H35.6c-0.342-1.945-1.908-2.827-3.816-2.827
				c-3.115,0-4.412,2.701-4.412,5.456c0,2.683,1.549,5.131,4.412,5.131c2.646,0,4.23-1.854,4.123-4.195h-4.105v-1.44h5.636v6.77
				h-1.08L35.907,19.979z"/>
			<path fill="#FFFFFF" d="M39.648,12.272h1.44v1.962h0.036c0.737-1.495,1.764-2.233,3.421-2.179v1.621
				c-2.467,0-3.367,1.404-3.367,3.763v4.141h-1.53V12.272z"/>
			<path fill="#FFFFFF" d="M53.402,21.581h-1.44v-1.477h-0.036c-0.647,1.152-1.692,1.692-3.024,1.692
				c-2.449,0-3.205-1.404-3.205-3.403v-6.122h1.53v6.302c0,1.134,0.721,1.873,1.891,1.873c1.854,0,2.755-1.243,2.755-2.917v-5.257
				h1.53V21.581z"/>
			<path fill="#FFFFFF" d="M63.644,18.628c-0.414,2.053-1.891,3.169-3.979,3.169c-2.971,0-4.375-2.052-4.465-4.897
				c0-2.791,1.836-4.843,4.375-4.843c3.295,0,4.304,3.079,4.213,5.33H56.82c-0.054,1.621,0.864,3.061,2.899,3.061
				c1.26,0,2.143-0.612,2.412-1.819H63.644z M62.167,16.035c-0.072-1.458-1.17-2.628-2.683-2.628c-1.603,0-2.557,1.206-2.665,2.628
				H62.167z"/>
			<path fill="#FFFFFF" d="M65.316,12.272h1.44v1.962h0.036c0.737-1.495,1.764-2.233,3.421-2.179v1.621
				c-2.467,0-3.367,1.404-3.367,3.763v4.141h-1.53V12.272z"/>
			<path fill="#FFFFFF" d="M75.056,12.056c2.952,0,4.519,2.143,4.519,4.879c0,2.719-1.566,4.861-4.519,4.861
				c-2.953,0-4.52-2.143-4.52-4.861C70.537,14.199,72.103,12.056,75.056,12.056z M75.056,20.447c1.603,0,2.898-1.26,2.898-3.511
				c0-2.269-1.296-3.529-2.898-3.529s-2.899,1.26-2.899,3.529C72.157,19.187,73.454,20.447,75.056,20.447z"/>
			<path fill="#FFFFFF" d="M87.44,8.419c3.674,0,6.752,2.899,6.752,6.698c0,3.871-3.078,6.77-6.752,6.77
				c-3.69,0-6.787-2.899-6.787-6.77C80.653,11.318,83.75,8.419,87.44,8.419z M87.44,20.897c3.115,0,5.528-2.485,5.528-5.78
				c0-3.223-2.413-5.708-5.528-5.708c-3.15,0-5.563,2.485-5.563,5.708C81.876,18.412,84.29,20.897,87.44,20.897z M84.812,11.21
				h3.042c1.873,0,2.755,0.738,2.755,2.25c0,1.422-0.899,2.017-2.07,2.143l2.251,3.475h-1.314l-2.143-3.385h-1.297v3.385h-1.224
				V11.21z M86.036,14.703h1.278c1.081,0,2.071-0.054,2.071-1.296c0-1.044-0.9-1.207-1.729-1.207h-1.621V14.703z"/>
			<path fill="#FFFFFF" d="M100.866,8.725h1.53v12.856h-1.53V8.725z"/>
			<path fill="#FFFFFF" d="M112.712,18.628c-0.414,2.053-1.891,3.169-3.979,3.169c-2.971,0-4.375-2.052-4.465-4.897
				c0-2.791,1.836-4.843,4.375-4.843c3.295,0,4.304,3.079,4.213,5.33h-6.968c-0.054,1.621,0.864,3.061,2.899,3.061
				c1.26,0,2.143-0.612,2.412-1.819H112.712z M111.236,16.035c-0.072-1.458-1.17-2.628-2.683-2.628
				c-1.603,0-2.557,1.206-2.665,2.628H111.236z"/>
			<path fill="#FFFFFF" d="M127.76,21.581h-1.53v-1.26h-0.036c-0.504,1.026-1.692,1.476-2.971,1.476
				c-2.863,0-4.285-2.269-4.285-4.897c0-2.628,1.404-4.843,4.249-4.843c0.954,0,2.322,0.36,3.007,1.458h0.036v-4.79h1.53V21.581z
				 M123.439,20.447c2.053,0,2.845-1.765,2.845-3.511c0-1.836-0.828-3.529-2.935-3.529c-2.089,0-2.791,1.782-2.791,3.601
				C120.558,18.754,121.458,20.447,123.439,20.447z"/>
			<path fill="#FFFFFF" d="M138.056,18.628c-0.414,2.053-1.891,3.169-3.979,3.169c-2.971,0-4.375-2.052-4.465-4.897
				c0-2.791,1.836-4.843,4.375-4.843c3.295,0,4.304,3.079,4.213,5.33h-6.968c-0.054,1.621,0.864,3.061,2.899,3.061
				c1.26,0,2.143-0.612,2.412-1.819H138.056z M136.58,16.035c-0.072-1.458-1.17-2.628-2.683-2.628c-1.603,0-2.557,1.206-2.665,2.628
				H136.58z"/>
			<path fill="#FFFFFF" d="M140.718,18.646c0.054,1.369,1.242,1.801,2.502,1.801c0.955,0,2.25-0.216,2.25-1.386
				c0-1.188-1.512-1.387-3.042-1.729c-1.512-0.342-3.043-0.847-3.043-2.629c0-1.873,1.854-2.647,3.476-2.647
				c2.053,0,3.689,0.648,3.816,2.917h-1.531c-0.107-1.188-1.152-1.566-2.16-1.566c-0.917,0-1.98,0.252-1.98,1.188
				c0,1.099,1.62,1.279,3.042,1.621c1.531,0.342,3.043,0.846,3.043,2.647c0,2.215-2.07,2.935-3.961,2.935
				c-2.088,0-3.853-0.846-3.943-3.151H140.718z"/>
			<path fill="#FFFFFF" d="M156.723,18.628c-0.414,2.053-1.891,3.169-3.98,3.169c-2.971,0-4.375-2.052-4.465-4.897
				c0-2.791,1.836-4.843,4.375-4.843c3.295,0,4.305,3.079,4.213,5.33h-6.967c-0.055,1.621,0.863,3.061,2.898,3.061
				c1.26,0,2.143-0.612,2.412-1.819H156.723z M155.246,16.035c-0.072-1.458-1.17-2.628-2.684-2.628
				c-1.602,0-2.557,1.206-2.664,2.628H155.246z"/>
			<path fill="#FFFFFF" d="M166.693,21.545c-0.27,0.162-0.611,0.252-1.098,0.252c-0.793,0-1.297-0.432-1.297-1.44
				c-0.846,0.991-1.98,1.44-3.275,1.44c-1.693,0-3.08-0.756-3.08-2.61c0-2.107,1.566-2.557,3.15-2.863
				c1.693-0.324,3.133-0.216,3.133-1.368c0-1.333-1.098-1.548-2.07-1.548c-1.295,0-2.25,0.396-2.322,1.764h-1.531
				c0.092-2.305,1.873-3.115,3.943-3.115c1.676,0,3.494,0.378,3.494,2.557v4.79c0,0.72,0,1.044,0.486,1.044
				c0.125,0,0.27-0.018,0.467-0.09V21.545z M164.209,16.773c-0.594,0.432-1.746,0.45-2.771,0.63c-1.01,0.18-1.873,0.54-1.873,1.674
				c0,1.008,0.863,1.369,1.801,1.369c2.016,0,2.844-1.26,2.844-2.107V16.773z"/>
			<path fill="#FFFFFF" d="M180.824,21.581h-1.441v-1.477h-0.035c-0.648,1.152-1.693,1.692-3.025,1.692
				c-2.449,0-3.205-1.404-3.205-3.403v-6.122h1.531v6.302c0,1.134,0.721,1.873,1.891,1.873c1.854,0,2.754-1.243,2.754-2.917v-5.257
				h1.531V21.581z"/>
			<path fill="#FFFFFF" d="M183.125,12.272h1.441v1.476h0.035c0.648-1.152,1.693-1.692,3.025-1.692c2.449,0,3.205,1.404,3.205,3.403
				v6.122h-1.531v-6.302c0-1.134-0.719-1.873-1.891-1.873c-1.854,0-2.754,1.242-2.754,2.917v5.258h-1.531V12.272z"/>
			<path fill="#FFFFFF" d="M206.078,18.628c-0.414,2.053-1.891,3.169-3.98,3.169c-2.971,0-4.375-2.052-4.465-4.897
				c0-2.791,1.836-4.843,4.375-4.843c3.295,0,4.305,3.079,4.213,5.33h-6.967c-0.055,1.621,0.863,3.061,2.898,3.061
				c1.26,0,2.143-0.612,2.412-1.819H206.078z M204.602,16.035c-0.072-1.458-1.17-2.628-2.684-2.628
				c-1.602,0-2.557,1.206-2.664,2.628H204.602z"/>
			<path fill="#FFFFFF" d="M210.307,16.684l-3.242-4.411h1.963l2.232,3.259l2.322-3.259h1.838l-3.205,4.285l3.602,5.023h-1.963
				l-2.594-3.853l-2.592,3.853h-1.855L210.307,16.684z"/>
			<path fill="#FFFFFF" d="M223.447,15.261c-0.234-1.17-1.045-1.854-2.305-1.854c-2.215,0-2.898,1.747-2.898,3.637
				c0,1.71,0.773,3.403,2.719,3.403c1.477,0,2.357-0.864,2.557-2.269h1.566c-0.342,2.269-1.766,3.619-4.105,3.619
				c-2.846,0-4.357-1.98-4.357-4.753c0-2.791,1.441-4.988,4.393-4.988c2.107,0,3.801,0.99,4.016,3.205H223.447z"/>
			<path fill="#FFFFFF" d="M234.734,18.628c-0.414,2.053-1.891,3.169-3.98,3.169c-2.971,0-4.375-2.052-4.465-4.897
				c0-2.791,1.836-4.843,4.375-4.843c3.295,0,4.305,3.079,4.213,5.33h-6.967c-0.055,1.621,0.863,3.061,2.898,3.061
				c1.26,0,2.143-0.612,2.412-1.819H234.734z M233.258,16.035c-0.072-1.458-1.17-2.628-2.684-2.628
				c-1.602,0-2.557,1.206-2.664,2.628H233.258z"/>
			<path fill="#FFFFFF" d="M236.549,8.725h1.531v12.856h-1.531V8.725z"/>
			<path fill="#FFFFFF" d="M248.396,18.628c-0.414,2.053-1.891,3.169-3.98,3.169c-2.971,0-4.375-2.052-4.465-4.897
				c0-2.791,1.836-4.843,4.375-4.843c3.295,0,4.305,3.079,4.213,5.33h-6.967c-0.055,1.621,0.863,3.061,2.898,3.061
				c1.26,0,2.143-0.612,2.412-1.819H248.396z M246.92,16.035c-0.072-1.458-1.17-2.628-2.684-2.628c-1.602,0-2.557,1.206-2.664,2.628
				H246.92z"/>
			<path fill="#FFFFFF" d="M250.121,12.272h1.441v1.476h0.035c0.648-1.152,1.693-1.692,3.025-1.692c2.449,0,3.205,1.404,3.205,3.403
				v6.122h-1.531v-6.302c0-1.134-0.719-1.873-1.891-1.873c-1.854,0-2.754,1.242-2.754,2.917v5.258h-1.531V12.272z"/>
			<path fill="#FFFFFF" d="M262.254,12.272h1.855v1.35h-1.855v5.78c0,0.702,0.197,0.828,1.152,0.828h0.703v1.351h-1.172
				c-1.584,0-2.215-0.324-2.215-2.035v-5.924h-1.584v-1.35h1.584V9.481h1.531V12.272z"/>
			<path fill="#FFFFFF" d="M273.74,18.628c-0.414,2.053-1.891,3.169-3.98,3.169c-2.971,0-4.375-2.052-4.465-4.897
				c0-2.791,1.836-4.843,4.375-4.843c3.295,0,4.305,3.079,4.213,5.33h-6.967c-0.055,1.621,0.863,3.061,2.898,3.061
				c1.26,0,2.143-0.612,2.412-1.819H273.74z M272.264,16.035c-0.072-1.458-1.17-2.628-2.684-2.628c-1.602,0-2.557,1.206-2.664,2.628
				H272.264z"/>
			<path fill="#FFFFFF" d="M15.873,43.181h-1.53v-1.26h-0.036c-0.504,1.026-1.692,1.477-2.971,1.477
				c-2.863,0-4.285-2.269-4.285-4.897c0-2.629,1.404-4.844,4.249-4.844c0.954,0,2.322,0.36,3.007,1.458h0.036v-4.79h1.53V43.181z
				 M11.551,42.047c2.053,0,2.845-1.765,2.845-3.511c0-1.836-0.828-3.529-2.935-3.529c-2.089,0-2.791,1.782-2.791,3.601
				C8.67,40.354,9.571,42.047,11.551,42.047z"/>
			<path fill="#FFFFFF" d="M19.524,30.019h1.963l-2.358,2.575h-1.152L19.524,30.019z M18.318,43.181v-9.309h1.53v9.309H18.318z"/>
			<path fill="#FFFFFF" d="M30.47,43.145c-0.27,0.162-0.612,0.252-1.098,0.252c-0.793,0-1.297-0.433-1.297-1.44
				c-0.846,0.99-1.98,1.44-3.276,1.44c-1.693,0-3.079-0.756-3.079-2.611c0-2.107,1.566-2.557,3.15-2.863
				c1.692-0.324,3.133-0.216,3.133-1.369c0-1.333-1.098-1.548-2.07-1.548c-1.296,0-2.251,0.396-2.322,1.765h-1.53
				c0.09-2.305,1.872-3.115,3.942-3.115c1.675,0,3.493,0.378,3.493,2.557v4.79c0,0.72,0,1.044,0.486,1.044
				c0.126,0,0.271-0.018,0.468-0.09V43.145z M27.986,38.374c-0.594,0.432-1.746,0.45-2.772,0.63c-1.009,0.18-1.873,0.54-1.873,1.674
				c0,1.008,0.864,1.369,1.801,1.369c2.017,0,2.845-1.26,2.845-2.106V38.374z"/>
			<path fill="#FFFFFF" d="M45.212,43.181h-1.53v-1.26h-0.036c-0.504,1.026-1.692,1.477-2.971,1.477
				c-2.863,0-4.285-2.269-4.285-4.897c0-2.629,1.404-4.844,4.249-4.844c0.954,0,2.322,0.36,3.007,1.458h0.036v-4.79h1.53V43.181z
				 M40.891,42.047c2.053,0,2.845-1.765,2.845-3.511c0-1.836-0.828-3.529-2.935-3.529c-2.089,0-2.791,1.782-2.791,3.601
				C38.01,40.354,38.911,42.047,40.891,42.047z"/>
			<path fill="#FFFFFF" d="M55.508,40.229c-0.414,2.052-1.891,3.169-3.979,3.169c-2.971,0-4.375-2.053-4.465-4.897
				c0-2.791,1.836-4.844,4.375-4.844c3.295,0,4.304,3.079,4.213,5.33h-6.968c-0.054,1.621,0.864,3.061,2.899,3.061
				c1.26,0,2.143-0.612,2.412-1.818H55.508z M54.032,37.636c-0.072-1.458-1.17-2.629-2.683-2.629c-1.603,0-2.557,1.206-2.665,2.629
				H54.032z"/>
			<path fill="#FFFFFF" d="M64.363,33.873h1.854v1.35h-1.854v5.78c0,0.702,0.197,0.828,1.152,0.828h0.702v1.351h-1.171
				c-1.584,0-2.215-0.324-2.215-2.035v-5.924h-1.584v-1.35h1.584v-2.791h1.531V33.873z"/>
			<path fill="#FFFFFF" d="M67.854,33.873h1.44v1.962h0.036c0.738-1.495,1.764-2.232,3.421-2.179v1.621
				c-2.467,0-3.367,1.404-3.367,3.763v4.141h-1.53V33.873z"/>
			<path fill="#FFFFFF" d="M82.148,43.145c-0.27,0.162-0.612,0.252-1.098,0.252c-0.793,0-1.297-0.433-1.297-1.44
				c-0.846,0.99-1.98,1.44-3.276,1.44c-1.693,0-3.079-0.756-3.079-2.611c0-2.107,1.566-2.557,3.15-2.863
				c1.692-0.324,3.133-0.216,3.133-1.369c0-1.333-1.098-1.548-2.07-1.548c-1.296,0-2.251,0.396-2.322,1.765h-1.53
				c0.09-2.305,1.872-3.115,3.942-3.115c1.675,0,3.493,0.378,3.493,2.557v4.79c0,0.72,0,1.044,0.486,1.044
				c0.126,0,0.271-0.018,0.468-0.09V43.145z M79.664,38.374c-0.594,0.432-1.746,0.45-2.772,0.63c-1.009,0.18-1.873,0.54-1.873,1.674
				c0,1.008,0.864,1.369,1.801,1.369c2.017,0,2.845-1.26,2.845-2.106V38.374z"/>
			<path fill="#FFFFFF" d="M83.622,30.325h1.531v4.808h0.035c0.505-1.026,1.693-1.477,2.972-1.477c2.862,0,4.285,2.269,4.285,4.897
				s-1.404,4.844-4.25,4.844c-0.954,0-2.322-0.36-3.007-1.458h-0.035v1.242h-1.531V30.325z M87.943,35.007
				c-2.053,0-2.845,1.765-2.845,3.511c0,1.837,0.828,3.529,2.936,3.529c2.088,0,2.79-1.783,2.79-3.601
				C90.824,36.699,89.923,35.007,87.943,35.007z"/>
			<path fill="#FFFFFF" d="M102.488,43.145c-0.27,0.162-0.612,0.252-1.098,0.252c-0.793,0-1.297-0.433-1.297-1.44
				c-0.846,0.99-1.98,1.44-3.276,1.44c-1.693,0-3.079-0.756-3.079-2.611c0-2.107,1.566-2.557,3.15-2.863
				c1.692-0.324,3.133-0.216,3.133-1.369c0-1.333-1.098-1.548-2.07-1.548c-1.296,0-2.251,0.396-2.322,1.765h-1.53
				c0.09-2.305,1.872-3.115,3.942-3.115c1.675,0,3.493,0.378,3.493,2.557v4.79c0,0.72,0,1.044,0.486,1.044
				c0.126,0,0.271-0.018,0.468-0.09V43.145z M100.003,38.374c-0.594,0.432-1.746,0.45-2.772,0.63
				c-1.009,0.18-1.873,0.54-1.873,1.674c0,1.008,0.864,1.369,1.801,1.369c2.017,0,2.845-1.26,2.845-2.106V38.374z"/>
			<path fill="#FFFFFF" d="M105.528,44.37c0,1.656-0.882,2.376-2.232,2.376c-0.252,0-0.522-0.018-0.792-0.072V45.36
				c0.216,0.036,0.414,0.036,0.63,0.036c0.666,0,0.864-0.324,0.864-1.279V33.873h1.53V44.37z M105.528,32.198h-1.53v-1.873h1.53
				V32.198z"/>
			<path fill="#FFFFFF" d="M111.919,33.656c2.952,0,4.519,2.143,4.519,4.879c0,2.719-1.566,4.862-4.519,4.862
				c-2.953,0-4.52-2.143-4.52-4.862C107.4,35.799,108.966,33.656,111.919,33.656z M111.919,42.047c1.603,0,2.898-1.26,2.898-3.511
				c0-2.269-1.296-3.529-2.898-3.529s-2.899,1.26-2.899,3.529C109.02,40.787,110.317,42.047,111.919,42.047z"/>
			<path fill="#FFFFFF" d="M118.578,41.183h1.999v1.999h-1.999V41.183z"/>
			<path fill="#FFFFFF" d="M128.496,30.325h6.05c2.413,0,3.907,1.314,3.907,3.367c0,1.548-0.685,2.827-2.232,3.259v0.036
				c1.494,0.288,1.801,1.386,1.927,2.647c0.107,1.26,0.035,2.665,0.756,3.547h-1.908c-0.486-0.522-0.217-1.909-0.469-3.169
				c-0.18-1.26-0.486-2.323-2.143-2.323h-4.177v5.492h-1.711V30.325z M133.771,36.249c1.603,0,2.972-0.414,2.972-2.287
				c0-1.26-0.685-2.197-2.287-2.197h-4.249v4.483H133.771z"/>
			<path fill="#FFFFFF" d="M148.514,40.229c-0.414,2.052-1.891,3.169-3.979,3.169c-2.971,0-4.375-2.053-4.465-4.897
				c0-2.791,1.836-4.844,4.375-4.844c3.295,0,4.303,3.079,4.213,5.33h-6.968c-0.054,1.621,0.864,3.061,2.9,3.061
				c1.26,0,2.143-0.612,2.412-1.818H148.514z M147.037,37.636c-0.072-1.458-1.17-2.629-2.682-2.629
				c-1.603,0-2.557,1.206-2.666,2.629H147.037z"/>
			<path fill="#FFFFFF" d="M156.561,36.861c-0.234-1.17-1.045-1.854-2.305-1.854c-2.215,0-2.9,1.747-2.9,3.637
				c0,1.711,0.775,3.403,2.719,3.403c1.477,0,2.359-0.864,2.557-2.269h1.566c-0.342,2.269-1.764,3.619-4.104,3.619
				c-2.846,0-4.357-1.981-4.357-4.754c0-2.791,1.439-4.987,4.393-4.987c2.107,0,3.799,0.99,4.016,3.205H156.561z"/>
			<path fill="#FFFFFF" d="M167.611,43.181h-1.439v-1.477h-0.037c-0.646,1.152-1.691,1.693-3.023,1.693
				c-2.449,0-3.205-1.405-3.205-3.403v-6.122h1.529v6.302c0,1.134,0.721,1.873,1.891,1.873c1.855,0,2.756-1.242,2.756-2.917v-5.257
				h1.529V43.181z"/>
			<path fill="#FFFFFF" d="M177.854,40.229c-0.414,2.052-1.891,3.169-3.979,3.169c-2.971,0-4.375-2.053-4.465-4.897
				c0-2.791,1.836-4.844,4.375-4.844c3.295,0,4.303,3.079,4.213,5.33h-6.969c-0.053,1.621,0.865,3.061,2.9,3.061
				c1.26,0,2.143-0.612,2.412-1.818H177.854z M176.377,37.636c-0.072-1.458-1.17-2.629-2.682-2.629
				c-1.604,0-2.557,1.206-2.666,2.629H176.377z"/>
			<path fill="#FFFFFF" d="M179.525,33.873h1.441v1.962h0.035c0.738-1.495,1.764-2.232,3.422-2.179v1.621
				c-2.467,0-3.367,1.404-3.367,3.763v4.141h-1.531V33.873z"/>
			<path fill="#FFFFFF" d="M193.568,43.181h-1.531v-1.26h-0.035c-0.504,1.026-1.693,1.477-2.971,1.477
				c-2.863,0-4.285-2.269-4.285-4.897c0-2.629,1.404-4.844,4.248-4.844c0.955,0,2.322,0.36,3.008,1.458h0.035v-4.79h1.531V43.181z
				 M189.246,42.047c2.053,0,2.846-1.765,2.846-3.511c0-1.836-0.828-3.529-2.936-3.529c-2.088,0-2.791,1.782-2.791,3.601
				C186.365,40.354,187.266,42.047,189.246,42.047z"/>
			<path fill="#FFFFFF" d="M203.863,40.229c-0.414,2.052-1.891,3.169-3.979,3.169c-2.971,0-4.375-2.053-4.465-4.897
				c0-2.791,1.836-4.844,4.375-4.844c3.295,0,4.303,3.079,4.213,5.33h-6.969c-0.053,1.621,0.865,3.061,2.9,3.061
				c1.26,0,2.143-0.612,2.412-1.818H203.863z M202.387,37.636c-0.072-1.458-1.17-2.629-2.682-2.629
				c-1.604,0-2.557,1.206-2.666,2.629H202.387z"/>
			<path fill="#FFFFFF" d="M210.881,30.325h2.342l4.051,10.803l4.068-10.803h2.342v12.856h-1.621V32.486h-0.035l-4.016,10.695
				h-1.459l-4.016-10.695h-0.035v10.695h-1.621V30.325z"/>
			<path fill="#FFFFFF" d="M234.518,43.145c-0.27,0.162-0.613,0.252-1.098,0.252c-0.793,0-1.297-0.433-1.297-1.44
				c-0.846,0.99-1.98,1.44-3.277,1.44c-1.693,0-3.078-0.756-3.078-2.611c0-2.107,1.566-2.557,3.15-2.863
				c1.691-0.324,3.133-0.216,3.133-1.369c0-1.333-1.098-1.548-2.07-1.548c-1.297,0-2.252,0.396-2.322,1.765h-1.531
				c0.09-2.305,1.873-3.115,3.943-3.115c1.674,0,3.492,0.378,3.492,2.557v4.79c0,0.72,0,1.044,0.486,1.044
				c0.127,0,0.271-0.018,0.469-0.09V43.145z M232.033,38.374c-0.594,0.432-1.746,0.45-2.773,0.63
				c-1.008,0.18-1.873,0.54-1.873,1.674c0,1.008,0.865,1.369,1.801,1.369c2.018,0,2.846-1.26,2.846-2.106V38.374z"/>
			<path fill="#FFFFFF" d="M235.938,33.873h1.439v1.476h0.037c0.648-1.152,1.691-1.692,3.023-1.692c2.449,0,3.205,1.404,3.205,3.403
				v6.122h-1.529v-6.302c0-1.134-0.721-1.873-1.891-1.873c-1.855,0-2.756,1.242-2.756,2.917v5.257h-1.529V33.873z"/>
			<path fill="#FFFFFF" d="M253.885,40.229c-0.414,2.052-1.891,3.169-3.979,3.169c-2.971,0-4.375-2.053-4.465-4.897
				c0-2.791,1.836-4.844,4.375-4.844c3.295,0,4.303,3.079,4.213,5.33h-6.969c-0.053,1.621,0.865,3.061,2.9,3.061
				c1.26,0,2.143-0.612,2.412-1.818H253.885z M252.408,37.636c-0.072-1.458-1.17-2.629-2.682-2.629
				c-1.604,0-2.557,1.206-2.666,2.629H252.408z"/>
			<path fill="#FFFFFF" d="M257.23,44.37c0,1.656-0.881,2.376-2.232,2.376c-0.252,0-0.521-0.018-0.791-0.072V45.36
				c0.215,0.036,0.414,0.036,0.629,0.036c0.666,0,0.865-0.324,0.865-1.279V33.873h1.529V44.37z M257.23,32.198h-1.529v-1.873h1.529
				V32.198z"/>
			<path fill="#FFFFFF" d="M267.854,43.145c-0.27,0.162-0.613,0.252-1.098,0.252c-0.793,0-1.297-0.433-1.297-1.44
				c-0.846,0.99-1.98,1.44-3.277,1.44c-1.693,0-3.078-0.756-3.078-2.611c0-2.107,1.566-2.557,3.15-2.863
				c1.691-0.324,3.133-0.216,3.133-1.369c0-1.333-1.098-1.548-2.07-1.548c-1.297,0-2.252,0.396-2.322,1.765h-1.531
				c0.09-2.305,1.873-3.115,3.943-3.115c1.674,0,3.492,0.378,3.492,2.557v4.79c0,0.72,0,1.044,0.486,1.044
				c0.127,0,0.271-0.018,0.469-0.09V43.145z M265.369,38.374c-0.594,0.432-1.746,0.45-2.773,0.63
				c-1.008,0.18-1.873,0.54-1.873,1.674c0,1.008,0.865,1.369,1.801,1.369c2.018,0,2.846-1.26,2.846-2.106V38.374z"/>
			<path fill="#FFFFFF" d="M269.219,33.873h1.441v1.962h0.035c0.738-1.495,1.764-2.232,3.422-2.179v1.621
				c-2.467,0-3.367,1.404-3.367,3.763v4.141h-1.531V33.873z"/>
			<path fill="#FFFFFF" d="M35.878,58.461c-0.234-1.17-1.045-1.854-2.305-1.854c-2.215,0-2.899,1.747-2.899,3.638
				c0,1.71,0.774,3.402,2.719,3.402c1.477,0,2.359-0.864,2.557-2.269h1.566c-0.342,2.269-1.764,3.618-4.104,3.618
				c-2.845,0-4.357-1.98-4.357-4.752c0-2.791,1.44-4.988,4.394-4.988c2.106,0,3.799,0.99,4.015,3.205H35.878z"/>
			<path fill="#FFFFFF" d="M43.24,55.256c2.952,0,4.519,2.143,4.519,4.879c0,2.719-1.566,4.861-4.519,4.861
				c-2.953,0-4.52-2.143-4.52-4.861C38.72,57.399,40.287,55.256,43.24,55.256z M43.24,63.647c1.603,0,2.898-1.26,2.898-3.512
				c0-2.268-1.296-3.528-2.898-3.528s-2.899,1.261-2.899,3.528C40.34,62.387,41.637,63.647,43.24,63.647z"/>
			<path fill="#FFFFFF" d="M49.556,55.473h1.44v1.476h0.036c0.648-1.152,1.692-1.692,3.024-1.692c2.449,0,3.205,1.404,3.205,3.402
				v6.123h-1.53v-6.303c0-1.134-0.72-1.872-1.891-1.872c-1.854,0-2.755,1.242-2.755,2.917v5.258h-1.53V55.473z"/>
			<path fill="#FFFFFF" d="M64.622,55.473h1.531v1.26h0.035c0.505-1.026,1.693-1.477,2.972-1.477c2.862,0,4.285,2.269,4.285,4.897
				s-1.404,4.843-4.25,4.843c-0.954,0-2.322-0.359-3.007-1.457h-0.035v4.807h-1.531V55.473z M68.943,56.607
				c-2.053,0-2.845,1.765-2.845,3.511c0,1.837,0.828,3.529,2.936,3.529c2.088,0,2.79-1.783,2.79-3.602
				C71.824,58.299,70.923,56.607,68.943,56.607z"/>
			<path fill="#FFFFFF" d="M75.188,55.473h1.44v1.962h0.036c0.738-1.495,1.764-2.233,3.421-2.179v1.621
				c-2.467,0-3.367,1.404-3.367,3.763v4.142h-1.53V55.473z"/>
			<path fill="#FFFFFF" d="M88.852,61.829c-0.414,2.053-1.891,3.168-3.979,3.168c-2.971,0-4.375-2.052-4.465-4.896
				c0-2.791,1.836-4.844,4.375-4.844c3.295,0,4.304,3.079,4.213,5.33h-6.968c-0.054,1.62,0.864,3.061,2.899,3.061
				c1.26,0,2.143-0.612,2.412-1.818H88.852z M87.375,59.235c-0.072-1.457-1.17-2.628-2.683-2.628c-1.603,0-2.557,1.206-2.665,2.628
				H87.375z"/>
			<path fill="#FFFFFF" d="M96.898,58.461c-0.234-1.17-1.045-1.854-2.305-1.854c-2.215,0-2.899,1.747-2.899,3.638
				c0,1.71,0.774,3.402,2.719,3.402c1.477,0,2.359-0.864,2.557-2.269h1.566c-0.342,2.269-1.764,3.618-4.104,3.618
				c-2.845,0-4.357-1.98-4.357-4.752c0-2.791,1.44-4.988,4.394-4.988c2.106,0,3.799,0.99,4.015,3.205H96.898z"/>
			<path fill="#FFFFFF" d="M108.49,64.745c-0.27,0.162-0.612,0.252-1.098,0.252c-0.793,0-1.297-0.432-1.297-1.439
				c-0.846,0.99-1.98,1.439-3.276,1.439c-1.693,0-3.079-0.756-3.079-2.609c0-2.107,1.566-2.558,3.15-2.863
				c1.692-0.324,3.133-0.217,3.133-1.369c0-1.332-1.098-1.548-2.07-1.548c-1.296,0-2.251,0.396-2.322,1.765h-1.53
				c0.09-2.305,1.872-3.115,3.942-3.115c1.675,0,3.493,0.379,3.493,2.557v4.789c0,0.721,0,1.045,0.486,1.045
				c0.126,0,0.271-0.018,0.468-0.09V64.745z M106.005,59.973c-0.594,0.433-1.746,0.451-2.772,0.631
				c-1.009,0.18-1.873,0.54-1.873,1.674c0,1.009,0.864,1.369,1.801,1.369c2.017,0,2.845-1.26,2.845-2.107V59.973z"/>
			<path fill="#FFFFFF" d="M117.616,64.782h-1.44v-1.477h-0.036c-0.647,1.152-1.692,1.691-3.024,1.691
				c-2.449,0-3.205-1.404-3.205-3.402v-6.121h1.53v6.301c0,1.135,0.721,1.873,1.891,1.873c1.854,0,2.755-1.242,2.755-2.917v-5.257
				h1.53V64.782z"/>
			<path fill="#FFFFFF" d="M126.238,58.461c-0.234-1.17-1.045-1.854-2.305-1.854c-2.215,0-2.899,1.747-2.899,3.638
				c0,1.71,0.774,3.402,2.719,3.402c1.477,0,2.359-0.864,2.557-2.269h1.566c-0.342,2.269-1.764,3.618-4.104,3.618
				c-2.845,0-4.357-1.98-4.357-4.752c0-2.791,1.44-4.988,4.394-4.988c2.106,0,3.799,0.99,4.015,3.205H126.238z"/>
			<path fill="#FFFFFF" d="M131.204,53.798h-1.53v-1.873h1.53V53.798z M129.673,55.473h1.53v9.309h-1.53V55.473z"/>
			<path fill="#FFFFFF" d="M137.595,55.256c2.952,0,4.519,2.143,4.519,4.879c0,2.719-1.566,4.861-4.519,4.861
				c-2.953,0-4.52-2.143-4.52-4.861C133.076,57.399,134.642,55.256,137.595,55.256z M137.595,63.647c1.603,0,2.898-1.26,2.898-3.512
				c0-2.268-1.296-3.528-2.898-3.528s-2.899,1.261-2.899,3.528C134.696,62.387,135.993,63.647,137.595,63.647z M138.045,51.619
				h1.962l-2.358,2.575h-1.152L138.045,51.619z"/>
			<path fill="#FFFFFF" d="M143.912,55.473h1.439v1.476h0.037c0.648-1.152,1.691-1.692,3.023-1.692c2.449,0,3.205,1.404,3.205,3.402
				v6.123h-1.529v-6.303c0-1.134-0.721-1.872-1.891-1.872c-1.855,0-2.756,1.242-2.756,2.917v5.258h-1.529V55.473z"/>
			<path fill="#FFFFFF" d="M162.578,66.024c-0.701,1.818-1.332,2.484-2.701,2.484c-0.359,0-0.719-0.036-1.063-0.162v-1.404
				c0.289,0.09,0.596,0.217,0.9,0.217c0.631,0,0.973-0.307,1.262-0.848l0.629-1.584l-3.691-9.254h1.729l2.721,7.615h0.035
				l2.611-7.615h1.619L162.578,66.024z"/>
			<path fill="#FFFFFF" d="M176.943,55.256c2.951,0,4.518,2.143,4.518,4.879c0,2.719-1.566,4.861-4.518,4.861
				c-2.953,0-4.52-2.143-4.52-4.861C172.424,57.399,173.99,55.256,176.943,55.256z M176.943,63.647c1.602,0,2.898-1.26,2.898-3.512
				c0-2.268-1.297-3.528-2.898-3.528c-1.604,0-2.9,1.261-2.9,3.528C174.043,62.387,175.34,63.647,176.943,63.647z"/>
			<path fill="#FFFFFF" d="M183.889,56.823h-1.566v-1.35h1.566v-1.387c0-1.512,0.9-2.305,2.576-2.305
				c0.287,0,0.701,0.054,0.99,0.144v1.333c-0.271-0.09-0.596-0.126-0.865-0.126c-0.738,0-1.17,0.234-1.17,1.044v1.297h1.801v1.35
				h-1.801v7.959h-1.531V56.823z"/>
			<path fill="#FFFFFF" d="M188.533,55.473h1.441v1.962h0.035c0.738-1.495,1.764-2.233,3.422-2.179v1.621
				c-2.467,0-3.367,1.404-3.367,3.763v4.142h-1.531V55.473z"/>
			<path fill="#FFFFFF" d="M202.199,61.829c-0.414,2.053-1.891,3.168-3.98,3.168c-2.971,0-4.375-2.052-4.465-4.896
				c0-2.791,1.836-4.844,4.375-4.844c3.295,0,4.305,3.079,4.213,5.33h-6.967c-0.055,1.62,0.863,3.061,2.898,3.061
				c1.26,0,2.143-0.612,2.412-1.818H202.199z M200.723,59.235c-0.072-1.457-1.17-2.628-2.684-2.628
				c-1.602,0-2.557,1.206-2.664,2.628H200.723z"/>
			<path fill="#FFFFFF" d="M210.244,58.461c-0.234-1.17-1.045-1.854-2.305-1.854c-2.215,0-2.898,1.747-2.898,3.638
				c0,1.71,0.773,3.402,2.719,3.402c1.477,0,2.357-0.864,2.557-2.269h1.566c-0.342,2.269-1.766,3.618-4.105,3.618
				c-2.846,0-4.357-1.98-4.357-4.752c0-2.791,1.441-4.988,4.393-4.988c2.107,0,3.801,0.99,4.016,3.205H210.244z"/>
			<path fill="#FFFFFF" d="M221.531,61.829c-0.414,2.053-1.891,3.168-3.98,3.168c-2.971,0-4.375-2.052-4.465-4.896
				c0-2.791,1.836-4.844,4.375-4.844c3.295,0,4.305,3.079,4.213,5.33h-6.967c-0.055,1.62,0.863,3.061,2.898,3.061
				c1.26,0,2.143-0.612,2.412-1.818H221.531z M220.055,59.235c-0.072-1.457-1.17-2.628-2.684-2.628
				c-1.602,0-2.557,1.206-2.664,2.628H220.055z"/>
			<path fill="#FFFFFF" d="M223.203,55.473h1.439v1.962h0.037c0.736-1.495,1.764-2.233,3.42-2.179v1.621
				c-2.467,0-3.367,1.404-3.367,3.763v4.142h-1.529V55.473z"/>
			<path fill="#FFFFFF" d="M235.191,61.846c0.053,1.369,1.242,1.801,2.502,1.801c0.955,0,2.25-0.217,2.25-1.387
				c0-1.188-1.512-1.387-3.043-1.729c-1.512-0.342-3.043-0.846-3.043-2.629c0-1.872,1.855-2.646,3.477-2.646
				c2.053,0,3.689,0.648,3.816,2.917h-1.531c-0.107-1.188-1.152-1.566-2.16-1.566c-0.918,0-1.98,0.252-1.98,1.188
				c0,1.098,1.621,1.278,3.043,1.62c1.531,0.343,3.043,0.847,3.043,2.647c0,2.215-2.07,2.934-3.961,2.934
				c-2.088,0-3.854-0.846-3.943-3.15H235.191z"/>
			<path fill="#FFFFFF" d="M250.961,64.782h-1.441v-1.477h-0.035c-0.648,1.152-1.693,1.691-3.025,1.691
				c-2.449,0-3.205-1.404-3.205-3.402v-6.121h1.531v6.301c0,1.135,0.721,1.873,1.891,1.873c1.854,0,2.754-1.242,2.754-2.917v-5.257
				h1.531V64.782z"/>
			<path fill="#FFFFFF" d="M82.91,77.073h1.44v1.368h0.036c0.685-1.044,1.729-1.585,3.007-1.585c1.135,0,2.179,0.451,2.557,1.585
				c0.63-0.99,1.729-1.585,2.917-1.585c1.854,0,3.097,0.775,3.097,2.701v6.824h-1.53v-6.104c0-1.152-0.306-2.07-1.801-2.07
				c-1.477,0-2.431,0.936-2.431,2.376v5.798h-1.53v-6.104c0-1.207-0.378-2.07-1.746-2.07c-1.819,0-2.485,1.674-2.485,2.376v5.798
				h-1.53V77.073z"/>
			<path fill="#FFFFFF" d="M106.204,83.428c-0.414,2.053-1.891,3.17-3.979,3.17c-2.971,0-4.375-2.053-4.465-4.898
				c0-2.791,1.836-4.844,4.375-4.844c3.295,0,4.304,3.08,4.213,5.33h-6.968c-0.054,1.621,0.864,3.061,2.899,3.061
				c1.26,0,2.143-0.611,2.412-1.818H106.204z M104.727,80.836c-0.072-1.459-1.17-2.629-2.683-2.629
				c-1.603,0-2.557,1.205-2.665,2.629H104.727z"/>
			<path fill="#FFFFFF" d="M109.549,87.57c0,1.656-0.882,2.376-2.232,2.376c-0.252,0-0.522-0.018-0.792-0.071V88.56
				c0.216,0.036,0.414,0.036,0.63,0.036c0.666,0,0.864-0.324,0.864-1.279V77.073h1.53V87.57z M109.549,75.398h-1.53v-1.872h1.53
				V75.398z"/>
			<path fill="#FFFFFF" d="M115.941,76.856c2.952,0,4.519,2.143,4.519,4.88c0,2.719-1.566,4.862-4.519,4.862
				c-2.953,0-4.52-2.144-4.52-4.862C111.421,78.999,112.988,76.856,115.941,76.856z M115.941,85.247c1.603,0,2.898-1.26,2.898-3.511
				c0-2.269-1.296-3.528-2.898-3.528s-2.899,1.26-2.899,3.528C113.042,83.987,114.338,85.247,115.941,85.247z"/>
			<path fill="#FFFFFF" d="M122.204,77.073h1.44v1.963h0.036c0.738-1.495,1.764-2.232,3.421-2.18v1.621
				c-2.467,0-3.367,1.404-3.367,3.764v4.141h-1.53V77.073z"/>
			<path fill="#FFFFFF" d="M134.192,83.446c0.054,1.369,1.242,1.801,2.503,1.801c0.954,0,2.25-0.216,2.25-1.387
				c0-1.188-1.513-1.386-3.043-1.729c-1.512-0.342-3.043-0.846-3.043-2.628c0-1.872,1.854-2.647,3.476-2.647
				c2.053,0,3.691,0.648,3.817,2.918h-1.531c-0.107-1.189-1.152-1.566-2.16-1.566c-0.918,0-1.98,0.252-1.98,1.188
				c0,1.099,1.62,1.279,3.043,1.621c1.53,0.342,3.043,0.846,3.043,2.646c0,2.215-2.071,2.936-3.962,2.936
				c-2.088,0-3.853-0.848-3.942-3.152H134.192z"/>
			<path fill="#FFFFFF" d="M150.195,83.428c-0.414,2.053-1.891,3.17-3.979,3.17c-2.971,0-4.375-2.053-4.465-4.898
				c0-2.791,1.836-4.844,4.375-4.844c3.295,0,4.303,3.08,4.213,5.33h-6.969c-0.053,1.621,0.865,3.061,2.9,3.061
				c1.26,0,2.143-0.611,2.412-1.818H150.195z M148.719,80.836c-0.072-1.459-1.17-2.629-2.682-2.629
				c-1.604,0-2.557,1.205-2.666,2.629H148.719z"/>
			<path fill="#FFFFFF" d="M151.867,77.073h1.441v1.963h0.035c0.738-1.495,1.764-2.232,3.422-2.18v1.621
				c-2.467,0-3.367,1.404-3.367,3.764v4.141h-1.531V77.073z"/>
			<path fill="#FFFFFF" d="M162.111,86.381h-1.639l-3.457-9.309h1.711l2.609,7.76h0.037l2.539-7.76h1.602L162.111,86.381z"/>
			<path fill="#FFFFFF" d="M168.535,75.398h-1.529v-1.872h1.529V75.398z M167.006,77.073h1.529v9.309h-1.529V77.073z"/>
			<path fill="#FFFFFF" d="M177.232,80.061c-0.234-1.17-1.045-1.854-2.305-1.854c-2.215,0-2.9,1.746-2.9,3.637
				c0,1.711,0.775,3.402,2.719,3.402c1.477,0,2.359-0.863,2.557-2.268h1.566c-0.342,2.268-1.764,3.619-4.104,3.619
				c-2.846,0-4.357-1.981-4.357-4.754c0-2.791,1.439-4.988,4.393-4.988c2.107,0,3.799,0.99,4.016,3.205H177.232z"/>
			<path fill="#FFFFFF" d="M182.197,75.398h-1.529v-1.872h1.529V75.398z M180.668,77.073h1.529v9.309h-1.529V77.073z"/>
			<path fill="#FFFFFF" d="M188.59,76.856c2.951,0,4.518,2.143,4.518,4.88c0,2.719-1.566,4.862-4.518,4.862
				c-2.953,0-4.52-2.144-4.52-4.862C184.07,78.999,185.637,76.856,188.59,76.856z M188.59,85.247c1.602,0,2.898-1.26,2.898-3.511
				c0-2.269-1.297-3.528-2.898-3.528c-1.604,0-2.9,1.26-2.9,3.528C185.689,83.987,186.986,85.247,188.59,85.247z"/>
			<path fill="#FFFFFF" d="M195.248,84.383h1.998v1.998h-1.998V84.383z"/>
		</g>
	</g>
</g>
</svg>
