<?xml version="1.0" encoding="utf-8"?>
<!-- Generator: Adobe Illustrator 15.0.0, SVG Export Plug-In . SVG Version: 6.00 Build 0)  -->
<!DOCTYPE svg PUBLIC "-//W3C//DTD SVG 1.1//EN" "http://www.w3.org/Graphics/SVG/1.1/DTD/svg11.dtd">
<svg version="1.1" id="Layer_1" xmlns="http://www.w3.org/2000/svg" xmlns:xlink="http://www.w3.org/1999/xlink" x="0px" y="0px"
	 width="60px" height="60px" viewBox="0 0 60 60" enable-background="new 0 0 60 60" xml:space="preserve">
<g>
	<g>
		<path fill="#28F046" d="M30,2c15.439,0,28,12.561,28,28c0,15.439-12.561,28-28,28C14.561,58,2,45.439,2,30C2,14.561,14.561,2,30,2
			 M30,0C13.432,0,0,13.432,0,30c0,16.568,13.432,30,30,30c16.568,0,30-13.432,30-30C60,13.432,46.568,0,30,0L30,0z"/>
	</g>
</g>
<g opacity="0.5">
	<path fill="#30F046" d="M49.473,37.885c-0.91-1.486-4.065-6.716-6.764-11.138l0.119-0.603c0.047-0.25-0.014-0.427-0.171-0.623
		c-0.159-0.198-0.401-0.233-0.651-0.233h-0.27c-1.606-2.956-2.9-4.841-3.191-5.305c-0.472-0.749-1.357-1.603-2.352-1.603
		c-0.611,0-1.264,0.286-1.887,1.099c-4.749-1.868-13.679-1.534-17.285,0.843c-1.167,0.768-2.193,2.443-2.985,4.966h-3.194
		c-0.255,0-0.495,0.022-0.653,0.22c-0.162,0.197-0.225,0.406-0.174,0.656l0.476,2.265c0.079,0.392,0.424,0.644,0.822,0.644h0.949
		c-0.916,1.26-1.36,2.389-1.364,3.716c-0.008,1.641,0.854,3.126,1.996,4.178c0.012,0.01,0.276,0.024,0.276,0.03v3.213
		c0,0.692,0.086,1.513,0.784,1.513h2.947c0.693,0,1.274-0.82,1.274-1.513v-1.442h4.518c-0.193,1.262,0.202,2.955,2.052,2.955
		c2.649,0,21.893,0,22.885,0C48.626,41.723,51.07,40.492,49.473,37.885z M17.117,35.594c-1.366,0-2.48-1.113-2.48-2.486
		c0-1.366,1.114-2.479,2.48-2.479c1.371,0,2.484,1.113,2.484,2.479C19.601,34.479,18.487,35.594,17.117,35.594z M16.244,26.51
		c0.733-2.049,1.54-3.732,2.167-4.145c2.813-1.851,10.492-2.063,14.53-0.679c-0.78,1.272-1.823,2.774-2.941,4.823h-4.386
		l-4.823-4.201l-0.253,0.323l4.48,3.878L16.244,26.51L16.244,26.51z M47.564,39.16H25.008c0.033,0,0.088-0.309,0.157-0.416
		c0.448-0.704,3.282-5.329,6.022-9.809c2.086-3.408,4.057-6.624,4.793-7.814c0.106-0.174,0.199-0.291,0.269-0.369
		c0.101,0.084,0.224,0.214,0.326,0.377c0.517,0.822,4.278,6.992,7.302,11.949c1.635,2.682,3.051,5.002,3.611,5.918
		c0.044,0.072,0.076,0.119,0.104,0.171C47.582,39.17,47.573,39.16,47.564,39.16z"/>
	<rect x="34.65" y="36.205" fill="#30F046" width="3.35" height="2.127"/>
	<path fill="#30F046" d="M34.65,27.793c0,0.791,0.623,7.545,0.623,7.545h1.509c0,0,1.218-6.709,1.218-7.619c0-0.909,0-2.824,0-2.824
		h-3.35C34.65,24.895,34.65,27.002,34.65,27.793z"/>
</g>
</svg>
