<?xml version="1.0" encoding="utf-8"?>
<!-- Generator: Adobe Illustrator 15.0.0, SVG Export Plug-In . SVG Version: 6.00 Build 0)  -->
<!DOCTYPE svg PUBLIC "-//W3C//DTD SVG 1.1//EN" "http://www.w3.org/Graphics/SVG/1.1/DTD/svg11.dtd">
<svg version="1.1" id="Layer_1" xmlns="http://www.w3.org/2000/svg" xmlns:xlink="http://www.w3.org/1999/xlink" x="0px" y="0px"
	 width="60px" height="60px" viewBox="0 0 60 60" enable-background="new 0 0 60 60" xml:space="preserve">
<g>
	<g>
		<path fill="#F08930" d="M30,2c15.439,0,28,12.561,28,28c0,15.439-12.561,28-28,28C14.561,58,2,45.439,2,30C2,14.561,14.561,2,30,2
			 M30,0C13.432,0,0,13.432,0,30c0,16.568,13.432,30,30,30c16.568,0,30-13.432,30-30C60,13.432,46.568,0,30,0L30,0z"/>
	</g>
</g>
<g opacity="0.5">
	<circle fill="#F08930" cx="29.892" cy="29.856" r="2.083"/>
	<g>
		<path fill="#F08930" d="M45.764,33.254h-3.143c-1.287,4.83-5.246,8.566-10.201,9.53l-0.227-0.907
			c-0.666-3.791-0.355-6.604,0.524-7.793c0.517-0.391,0.785-0.555,1.161-1.012c0.096-0.115,0.173-0.215,0.256-0.344
			c-0.837-0.56-1.395-1.509-1.395-2.579v-4.311c-0.717-0.486-1.581-0.874-2.849-0.874c-1.702,0-2.643,0.73-3.592,1.413
			c-2.119,0.667-5.317,0.229-7.941-0.854l-0.782-0.343c1.887-4.968,6.685-8.503,12.316-8.503c1.77,0,3.456,0.35,4.999,0.983
			c0.01-1.123,0.289-2.198,0.799-3.141c-1.803-0.682-3.756-1.056-5.796-1.056c-9.054,0-16.392,7.338-16.392,16.392
			c0,9.053,7.338,16.392,16.392,16.392c7.889,0,14.475-5.574,16.041-12.998C45.875,33.253,45.82,33.254,45.764,33.254z
			 M22.996,28.63c0.067-0.378,0.395-0.655,0.778-0.655c0.046,0,0.093,0.003,0.139,0.011c0.208,0.037,0.39,0.157,0.511,0.331
			c0.121,0.173,0.167,0.387,0.13,0.595c-0.067,0.378-0.395,0.662-0.778,0.662l0,0c-0.046,0-0.092-0.013-0.139-0.022
			C23.206,29.477,22.919,29.06,22.996,28.63z M20.457,28.172c0.067-0.378,0.395-0.652,0.778-0.652c0.046,0,0.093,0.004,0.14,0.013
			c0.208,0.037,0.389,0.155,0.51,0.328c0.121,0.174,0.167,0.378,0.13,0.586c-0.068,0.378-0.395,0.647-0.778,0.647l0,0
			c-0.046,0-0.092,0-0.14-0.008c-0.208-0.037-0.39-0.151-0.51-0.324C20.466,28.589,20.42,28.38,20.457,28.172z M27.559,41.873
			l-0.267,0.891c-5.921-1.186-10.401-6.328-10.563-12.561l0.861-0.104c2.515-0.141,6.709,0.995,7.632,1.709
			c0.337,0.572,0.327,0.817,0.922,1.457c0.452,0.485,0.791,0.689,1.126,0.883C27.817,35.543,28.19,38.572,27.559,41.873z
			 M29.892,39.439c-0.437,0-0.792-0.355-0.792-0.791c0-0.438,0.354-0.791,0.792-0.791c0.437,0,0.792,0.354,0.792,0.791
			C30.684,39.084,30.328,39.439,29.892,39.439z M29.892,36.859c-0.437,0-0.792-0.354-0.792-0.791c0-0.437,0.354-0.791,0.792-0.791
			c0.437,0,0.792,0.354,0.792,0.791C30.684,36.506,30.328,36.859,29.892,36.859z M29.892,32.342c-1.374,0-2.487-1.111-2.487-2.486
			c0-1.374,1.113-2.487,2.487-2.487c1.374,0,2.485,1.113,2.485,2.487C32.377,31.23,31.266,32.342,29.892,32.342z"/>
		<path fill="#F08930" d="M38.077,15.651c-0.425,0.695-0.675,1.556-0.675,2.487l0.005,0.897c1.079,0.754,2.042,1.666,2.853,2.702
			h3.874C42.691,19.21,40.596,17.105,38.077,15.651z"/>
	</g>
	<path fill="#F08930" d="M44.938,21.896c-0.098,0-0.188-0.144-0.258-0.212c-0.068-0.069-0.105-0.215-0.105-0.312l0.011-3.206
		c0-2.501-1.69-4.551-3.767-4.551c-2.078,0-3.768,2.026-3.768,4.525l0.018,3.181c0.002,0.098-0.037,0.294-0.105,0.363
		s-0.161,0.211-0.258,0.211h-1.079c-0.2,0-0.364-0.267-0.364-0.468l-0.022-3.693c0-3.286,2.424-5.983,5.51-5.983
		c3.088,0,5.51,2.641,5.51,5.919v3.65c0,0.201,0.019,0.575-0.185,0.575L44.938,21.896L44.938,21.896z"/>
	<g>
		<path fill="#F08930" d="M48.5,30.151c0,1.504-1.23,2.736-2.736,2.736h-9.904c-1.504,0-2.735-1.23-2.735-2.736v-5.343
			c0-1.504,1.231-2.736,2.735-2.736h9.904c1.506,0,2.736,1.23,2.736,2.736V30.151z"/>
	</g>
</g>
</svg>
