<?xml version="1.0" encoding="utf-8"?>
<!-- Generator: Adobe Illustrator 15.0.0, SVG Export Plug-In . SVG Version: 6.00 Build 0)  -->
<!DOCTYPE svg PUBLIC "-//W3C//DTD SVG 1.1//EN" "http://www.w3.org/Graphics/SVG/1.1/DTD/svg11.dtd">
<svg version="1.1" id="Layer_1" xmlns="http://www.w3.org/2000/svg" xmlns:xlink="http://www.w3.org/1999/xlink" x="0px" y="0px"
	 width="60px" height="60px" viewBox="0 0 60 60" enable-background="new 0 0 60 60" xml:space="preserve">
<g>
	<path fill="#FFEB00" d="M30,2c15.439,0,28,12.561,28,28c0,15.439-12.561,28-28,28C14.561,58,2,45.439,2,30C2,14.561,14.561,2,30,2
		 M30,0C13.432,0,0,13.432,0,30c0,16.568,13.432,30,30,30c16.568,0,30-13.432,30-30C60,13.432,46.568,0,30,0L30,0z"/>
</g>
<g opacity="0.5">
	<path fill="#FFEA00" d="M15.748,33.88c-0.744,0-1.343,0.603-1.343,1.343c0,0.744,0.603,1.344,1.343,1.344
		c0.744,0,1.343-0.604,1.343-1.344S16.488,33.88,15.748,33.88z"/>
	<path fill="#FFEA00" d="M37.775,33.88c-0.742,0-1.342,0.603-1.342,1.343c0,0.744,0.604,1.344,1.342,1.344
		c0.746,0,1.344-0.604,1.344-1.344C39.123,34.482,38.521,33.88,37.775,33.88z"/>
	<path fill="#FFEA00" d="M48.502,29.569c-0.296-0.099-0.512-0.193-1.605-0.445l-1.563-6.457l1.425-1.492
		c0,0,0.705-0.035,1.344,0.182c0.178-0.445-1.552-1.114-1.552-1.114l-6.819,7.248c0,0-9.231-5.358-10.271-5.358
		c-1.15,0-9.04,0.004-9.04,0.004c-1.925,0-3.54,1.469-5.405,3.17c-0.878,0.799-1.851,1.681-2.921,2.468l-1.099,0.532
		C10.417,28.486,10,29.025,10,29.663v4.565c0,0.789,0.638,1.431,1.429,1.431H11.28c0.201,2.292,2.125,4.099,4.473,4.099
		c2.342,0,4.271-1.807,4.472-4.099h13.08c0.196,2.292,2.127,4.099,4.469,4.099c2.343,0,4.271-1.807,4.469-4.099h2.253
		c1.782,0,5.051-0.165,5.269-0.89C50.313,32.943,49.915,30.042,48.502,29.569z M15.748,37.592c-1.283,0-2.327-1.042-2.327-2.326
		c0-1.283,1.043-2.322,2.327-2.322s2.327,1.043,2.327,2.322C18.075,36.55,17.032,37.592,15.748,37.592z M19.686,29.104h-1.917
		c-0.118,0-0.212-0.095-0.212-0.213c0-0.118,0.094-0.213,0.212-0.213h1.917c0.118,0,0.212,0.095,0.212,0.213
		C19.898,29.009,19.804,29.104,19.686,29.104z M24.382,27.585h-7.799c0.563-0.445,1.086-0.918,1.567-1.358
		c1.264-1.153,2.354-2.146,3.658-2.146c0,0,1.181,0,2.575,0L24.382,27.585L24.382,27.585z M28.997,29.104h-1.918
		c-0.118,0-0.212-0.095-0.212-0.213c0-0.118,0.095-0.213,0.212-0.213h1.918c0.118,0,0.212,0.095,0.212,0.213
		C29.209,29.009,29.115,29.104,28.997,29.104z M26.28,27.585v-3.504c0.965,0,1.823,0,2.256,0c1.075,0,5.435,2.531,7.071,3.504H26.28
		z M37.771,37.592c-1.283,0-2.321-1.042-2.321-2.326c0-1.283,1.043-2.322,2.321-2.322c1.28,0,2.328,1.043,2.328,2.322
		C40.096,36.55,39.053,37.592,37.771,37.592z M40.445,27.734l4.606-4.756l1.466,6.06C45.596,28.829,41.057,27.868,40.445,27.734z"/>
</g>
</svg>
