<?xml version="1.0" encoding="utf-8"?>
<!-- Generator: Adobe Illustrator 15.0.0, SVG Export Plug-In . SVG Version: 6.00 Build 0)  -->
<!DOCTYPE svg PUBLIC "-//W3C//DTD SVG 1.1//EN" "http://www.w3.org/Graphics/SVG/1.1/DTD/svg11.dtd">
<svg version="1.1" id="Layer_1" xmlns="http://www.w3.org/2000/svg" xmlns:xlink="http://www.w3.org/1999/xlink" x="0px" y="0px"
	 width="60px" height="60px" viewBox="0 0 60 60" enable-background="new 0 0 60 60" xml:space="preserve">
<g>
	<g>
		<path fill="#3097F0" d="M30,2c15.439,0,28,12.561,28,28c0,15.439-12.561,28-28,28C14.561,58,2,45.439,2,30C2,14.561,14.561,2,30,2
			 M30,0C13.432,0,0,13.432,0,30c0,16.568,13.432,30,30,30c16.568,0,30-13.432,30-30C60,13.432,46.568,0,30,0L30,0z"/>
	</g>
</g>
<g opacity="0.5">
	<path fill="#3097F0" d="M30,12.5c-9.648,0-17.5,7.852-17.5,17.5c0,9.648,7.852,17.5,17.5,17.5c9.65,0,17.5-7.852,17.5-17.5
		C47.5,20.352,39.65,12.5,30,12.5L30,12.5z M30,42.428c-6.863,0-12.428-5.563-12.428-12.428c0-6.867,5.564-12.432,12.428-12.432
		c6.867,0,12.432,5.564,12.432,12.432C42.428,36.863,36.863,42.428,30,42.428L30,42.428z"/>
	<path fill="#3097F0" d="M30,19.179c-5.968,0-10.821,4.854-10.821,10.821S24.032,40.818,30,40.818
		c5.969,0,10.822-4.854,10.822-10.822C40.818,24.032,35.965,19.179,30,19.179L30,19.179z M39.434,29.31h-5.25
		c-0.104-0.663-0.367-1.278-0.748-1.798l3.705-3.705C38.443,25.304,39.284,27.215,39.434,29.31L39.434,29.31z M30.682,20.563
		c2.094,0.15,4.002,0.984,5.502,2.283l-3.705,3.705c-0.522-0.375-1.135-0.639-1.797-0.744V20.563z M29.32,20.563v5.24
		c-0.663,0.105-1.274,0.369-1.798,0.745l-3.705-3.702C25.314,21.551,27.226,20.713,29.32,20.563L29.32,20.563z M22.854,23.807
		l3.708,3.705c-0.376,0.52-0.639,1.135-0.745,1.798h-5.25C20.714,27.215,21.555,25.304,22.854,23.807L22.854,23.807z M20.563,30.666
		h5.253c0.106,0.664,0.369,1.275,0.749,1.799l-3.723,3.719C21.544,34.68,20.71,32.77,20.563,30.666L20.563,30.666z M29.32,39.434
		c-2.102-0.146-4.013-0.988-5.517-2.289l3.719-3.72c0.523,0.38,1.135,0.64,1.798,0.749V39.434L29.32,39.434z M29.32,32.775v0.01
		c-0.294-0.071-0.567-0.188-0.817-0.338l0.004-0.008c-0.393-0.238-0.722-0.566-0.961-0.959l-0.007,0.006
		c-0.153-0.25-0.27-0.525-0.338-0.816h0.01c-0.054-0.219-0.085-0.444-0.085-0.68c0-0.236,0.031-0.462,0.085-0.681h-0.01
		c0.071-0.294,0.185-0.567,0.338-0.817l0.007,0.008c0.239-0.391,0.568-0.722,0.961-0.961l-0.004-0.007
		c0.25-0.153,0.523-0.271,0.817-0.339v0.011c0.215-0.052,0.444-0.082,0.677-0.082s0.461,0.03,0.681,0.082v-0.011
		c0.293,0.072,0.566,0.186,0.816,0.339l-0.003,0.007c0.39,0.239,0.721,0.57,0.96,0.961l0.004-0.008
		c0.154,0.25,0.27,0.523,0.342,0.817h-0.011c0.056,0.219,0.085,0.444,0.085,0.681c0,0.232-0.029,0.461-0.085,0.68h0.011
		c-0.072,0.291-0.188,0.566-0.342,0.816l-0.004-0.006c-0.239,0.393-0.57,0.721-0.96,0.959l0.003,0.008
		c-0.252,0.15-0.526,0.27-0.816,0.338v-0.01c-0.22,0.055-0.444,0.082-0.681,0.082C29.76,32.857,29.539,32.83,29.32,32.775
		L29.32,32.775z M30.682,39.434V34.17c0.662-0.105,1.273-0.369,1.797-0.748l3.72,3.719C34.693,38.445,32.783,39.287,30.682,39.434
		L30.682,39.434z M37.154,36.184l-3.719-3.719c0.379-0.523,0.643-1.135,0.748-1.799h5.25C39.291,32.77,38.453,34.68,37.154,36.184
		L37.154,36.184z"/>
</g>
</svg>
