<?xml version="1.0" encoding="utf-8"?>
<!-- Generator: Adobe Illustrator 15.0.0, SVG Export Plug-In . SVG Version: 6.00 Build 0)  -->
<!DOCTYPE svg PUBLIC "-//W3C//DTD SVG 1.1//EN" "http://www.w3.org/Graphics/SVG/1.1/DTD/svg11.dtd">
<svg version="1.1" id="Layer_1" xmlns="http://www.w3.org/2000/svg" xmlns:xlink="http://www.w3.org/1999/xlink" x="0px" y="0px"
	 width="60px" height="60px" viewBox="0 0 60 60" enable-background="new 0 0 60 60" xml:space="preserve">
<defs>
	<filter id="Adobe_OpacityMaskFilter" filterUnits="userSpaceOnUse" x="0" y="0" width="60" height="60">
		<feColorMatrix  type="matrix" values="1 0 0 0 0  0 1 0 0 0  0 0 1 0 0  0 0 0 1 0"/>
	</filter>
</defs>
<mask maskUnits="userSpaceOnUse" x="0" y="0" width="60" height="60" id="SVGID_1_">
	<g filter="url(#Adobe_OpacityMaskFilter)">
		<g>
			<radialGradient id="SVGID_2_" cx="30" cy="30" r="30" gradientUnits="userSpaceOnUse">
				<stop  offset="0" style="stop-color:#000000"/>
				<stop  offset="0.3726" style="stop-color:#020202"/>
				<stop  offset="0.5069" style="stop-color:#090909"/>
				<stop  offset="0.6026" style="stop-color:#141414"/>
				<stop  offset="0.68" style="stop-color:#252525"/>
				<stop  offset="0.7463" style="stop-color:#3B3B3B"/>
				<stop  offset="0.805" style="stop-color:#575757"/>
				<stop  offset="0.8581" style="stop-color:#777777"/>
				<stop  offset="0.9069" style="stop-color:#9D9D9D"/>
				<stop  offset="0.9523" style="stop-color:#C8C8C8"/>
				<stop  offset="0.9926" style="stop-color:#F6F6F6"/>
				<stop  offset="1" style="stop-color:#FFFFFF"/>
			</radialGradient>
			<circle fill="url(#SVGID_2_)" cx="30" cy="30" r="30"/>
		</g>
	</g>
</mask>
<g mask="url(#SVGID_1_)">
	<circle fill="#FFFFFF" cx="30" cy="30" r="30"/>
</g>
<g>
	<g>
		<path fill="#FFFFFF" d="M30,3c14.888,0,27,12.112,27,27S44.888,57,30,57S3,44.888,3,30S15.112,3,30,3 M30,0
			C13.432,0,0,13.432,0,30c0,16.569,13.432,30,30,30c16.569,0,30-13.431,30-30C60,13.432,46.569,0,30,0L30,0z"/>
	</g>
</g>
<g>
	<path fill="#30F046" d="M49.473,37.885c-0.91-1.486-4.066-6.716-6.764-11.138l0.119-0.603c0.047-0.25-0.014-0.427-0.17-0.623
		c-0.16-0.198-0.402-0.233-0.652-0.233h-0.268c-1.608-2.956-2.902-4.841-3.193-5.305c-0.471-0.749-1.357-1.603-2.352-1.603
		c-0.611,0-1.262,0.286-1.885,1.099c-4.75-1.868-13.68-1.534-17.285,0.843c-1.168,0.768-2.193,2.443-2.986,4.966h-3.193
		c-0.256,0-0.494,0.022-0.652,0.22c-0.162,0.197-0.225,0.406-0.174,0.656l0.475,2.265c0.08,0.392,0.426,0.644,0.822,0.644h0.949
		c-0.916,1.26-1.359,2.389-1.363,3.716c-0.008,1.641,0.854,3.126,1.996,4.178c0.012,0.009,0.275,0.024,0.275,0.03v3.213
		c0,0.692,0.086,1.513,0.785,1.513h2.947c0.693,0,1.273-0.82,1.273-1.513v-1.443h4.518c-0.193,1.262,0.201,2.956,2.053,2.956
		c2.648,0,21.891,0,22.885,0C48.626,41.722,51.07,40.492,49.473,37.885z M17.117,35.594c-1.367,0-2.48-1.114-2.48-2.486
		c0-1.367,1.113-2.48,2.48-2.48c1.371,0,2.484,1.113,2.484,2.48C19.602,34.479,18.488,35.594,17.117,35.594z M16.244,26.51
		c0.732-2.049,1.539-3.732,2.166-4.145c2.813-1.851,10.492-2.063,14.531-0.679C32.16,22.959,31.117,24.461,30,26.51h-4.387
		l-4.822-4.201l-0.254,0.323l4.48,3.878H16.244z M47.566,39.16H25.008c0.033,0,0.088-0.309,0.156-0.416
		c0.449-0.704,3.283-5.329,6.023-9.809c2.086-3.408,4.057-6.624,4.792-7.814c0.108-0.174,0.2-0.291,0.269-0.369
		c0.101,0.084,0.225,0.214,0.326,0.377c0.518,0.822,4.279,6.992,7.303,11.949c1.635,2.682,3.05,5.002,3.611,5.918
		c0.043,0.072,0.076,0.119,0.103,0.171C47.582,39.17,47.574,39.16,47.566,39.16z"/>
	<rect x="34.65" y="36.205" fill="#30F046" width="3.35" height="2.127"/>
	<path fill="#30F046" d="M34.65,27.793c0,0.791,0.623,7.545,0.623,7.545h1.51c0,0,1.217-6.709,1.217-7.619c0-0.909,0-2.824,0-2.824
		h-3.35C34.65,24.895,34.65,27.002,34.65,27.793z"/>
</g>
</svg>
