<?xml version="1.0" encoding="utf-8"?>
<!-- Generator: Adobe Illustrator 15.0.0, SVG Export Plug-In . SVG Version: 6.00 Build 0)  -->
<!DOCTYPE svg PUBLIC "-//W3C//DTD SVG 1.1//EN" "http://www.w3.org/Graphics/SVG/1.1/DTD/svg11.dtd">
<svg version="1.1" id="Layer_1" xmlns="http://www.w3.org/2000/svg" xmlns:xlink="http://www.w3.org/1999/xlink" x="0px" y="0px"
	 width="60px" height="60px" viewBox="0 0 60 60" enable-background="new 0 0 60 60" xml:space="preserve">
<defs>
	<filter id="Adobe_OpacityMaskFilter" filterUnits="userSpaceOnUse" x="0" y="0" width="60" height="60">
		<feColorMatrix  type="matrix" values="1 0 0 0 0  0 1 0 0 0  0 0 1 0 0  0 0 0 1 0"/>
	</filter>
</defs>
<mask maskUnits="userSpaceOnUse" x="0" y="0" width="60" height="60" id="SVGID_1_">
	<g filter="url(#Adobe_OpacityMaskFilter)">
		<g>
			<radialGradient id="SVGID_2_" cx="30" cy="30" r="30" gradientUnits="userSpaceOnUse">
				<stop  offset="0" style="stop-color:#000000"/>
				<stop  offset="0.3726" style="stop-color:#020202"/>
				<stop  offset="0.5069" style="stop-color:#090909"/>
				<stop  offset="0.6026" style="stop-color:#141414"/>
				<stop  offset="0.68" style="stop-color:#252525"/>
				<stop  offset="0.7463" style="stop-color:#3B3B3B"/>
				<stop  offset="0.805" style="stop-color:#575757"/>
				<stop  offset="0.8581" style="stop-color:#777777"/>
				<stop  offset="0.9069" style="stop-color:#9D9D9D"/>
				<stop  offset="0.9523" style="stop-color:#C8C8C8"/>
				<stop  offset="0.9926" style="stop-color:#F6F6F6"/>
				<stop  offset="1" style="stop-color:#FFFFFF"/>
			</radialGradient>
			<circle fill="url(#SVGID_2_)" cx="30" cy="30" r="30"/>
		</g>
	</g>
</mask>
<g mask="url(#SVGID_1_)">
	<circle fill="#FFFFFF" cx="30" cy="30" r="30"/>
</g>
<g>
	<g>
		<path fill="#FFFFFF" d="M30,3c14.888,0,27,12.112,27,27S44.888,57,30,57S3,44.888,3,30S15.112,3,30,3 M30,0
			C13.432,0,0,13.432,0,30c0,16.569,13.432,30,30,30c16.569,0,30-13.431,30-30C60,13.432,46.569,0,30,0L30,0z"/>
	</g>
</g>
<g>
	<rect x="12.5" y="44.483" fill="#F03030" width="35" height="2.133"/>
	<g>
		<path fill="#F03030" d="M40.956,36.6l0.175,0.822l1.812-0.388l-1.392,1.665l1.412,1.441l-1.911-0.045l-0.62,2.059l-1.171-1.384
			l-1.911,0.661l1.113-2.479l-0.768-0.343l-1.91,4.254l3.205-1.106l1.801,2.124l0.881-2.925l3.343,0.078l-2.33-2.373l2.47-2.955
			L40.956,36.6z"/>
		<path fill="#F03030" d="M22.007,42.425c0.232,0.041,0.47-0.027,0.645-0.182l2.231-1.956c1.823,0.97,3.785,1.771,5.069,1.59
			c4.448-0.616,11.933-7.168,13.123-11.497c0.347-1.247-0.185-3.298-0.903-5.233l2.229-1.951c0.179-0.158,0.278-0.381,0.265-0.617
			c-0.007-0.236-0.12-0.451-0.309-0.599l-1.733-1.306c-0.295-0.226-0.705-0.209-0.982,0.035l-0.66,0.578
			c-0.007-1.297-0.512-2.496-1.319-3.428c-1-1.15-2.339-1.801-3.777-1.839c-0.014,0.003-0.03,0-0.044,0.003l-1.963-2.243
			c-0.425-0.482-1.165-0.534-1.65-0.106l-2.053,1.805c-0.484,0.426-0.533,1.168-0.112,1.651l0.791,0.901L19.318,28.127l-0.787-0.9
			c-0.422-0.483-1.16-0.535-1.647-0.11l-2.058,1.802c-0.487,0.424-0.535,1.171-0.109,1.65l1.928,2.198
			c-0.168,1.508,0.355,2.926,1.279,3.993c0.836,0.959,2.001,1.641,3.34,1.802l-0.706,0.62c-0.276,0.243-0.352,0.644-0.167,0.969
			l1.071,1.887C21.579,42.243,21.778,42.38,22.007,42.425L22.007,42.425z M40.822,29.764c-0.952,3.445-7.644,9.308-11.185,9.795
			c-0.692,0.096-2.268-0.572-4.021-1.542l14.209-12.441C40.559,27.441,41.011,29.092,40.822,29.764L40.822,29.764z M36.867,19.928
			c0.835,0.952,0.739,2.41-0.216,3.25c-0.96,0.839-2.418,0.743-3.254-0.213c-0.836-0.958-0.743-2.414,0.216-3.253
			C34.568,18.877,36.027,18.969,36.867,19.928L36.867,19.928z M20.604,31.106c0.955-0.836,2.41-0.74,3.249,0.219
			c0.836,0.956,0.74,2.411-0.215,3.246c-0.956,0.84-2.415,0.744-3.251-0.212C19.548,33.4,19.646,31.941,20.604,31.106L20.604,31.106
			z"/>
	</g>
</g>
</svg>
