<?xml version="1.0" encoding="utf-8"?>
<!-- Generator: Adobe Illustrator 15.0.0, SVG Export Plug-In . SVG Version: 6.00 Build 0)  -->
<!DOCTYPE svg PUBLIC "-//W3C//DTD SVG 1.1//EN" "http://www.w3.org/Graphics/SVG/1.1/DTD/svg11.dtd">
<svg version="1.1" id="Layer_1" xmlns="http://www.w3.org/2000/svg" xmlns:xlink="http://www.w3.org/1999/xlink" x="0px" y="0px"
	 width="60px" height="60px" viewBox="0 0 60 60" enable-background="new 0 0 60 60" xml:space="preserve">
<g>
	<path opacity="0.3" fill="#F0BE32" enable-background="new    " d="M30,59C14.009,59,1,45.99,1,30C1,14.009,14.009,1,30,1
		c15.99,0,29,13.009,29,29C59,45.99,45.99,59,30,59z"/>
	<path fill="#F03030" d="M30,2c15.439,0,28,12.561,28,28c0,15.439-12.561,28-28,28C14.561,58,2,45.439,2,30C2,14.561,14.561,2,30,2
		 M30,0C13.432,0,0,13.432,0,30c0,16.568,13.432,30,30,30c16.568,0,30-13.432,30-30C60,13.432,46.568,0,30,0L30,0z"/>
</g>
<g>
	<rect x="12.5" y="44.482" fill="#F03030" width="35" height="2.134"/>
	<g>
		<path fill="#F03030" d="M40.957,36.6l0.174,0.822l1.811-0.388l-1.391,1.665l1.412,1.441l-1.91-0.046l-0.621,2.06l-1.17-1.385
			l-1.912,0.662l1.113-2.479l-0.768-0.343l-1.91,4.254l3.205-1.106l1.801,2.124l0.881-2.925l3.342,0.078l-2.328-2.373l2.469-2.955
			L40.957,36.6z"/>
		<path fill="#F03030" d="M22.007,42.425c0.232,0.041,0.469-0.026,0.644-0.182l2.232-1.956c1.823,0.97,3.785,1.771,5.069,1.59
			c4.448-0.616,11.933-7.168,13.124-11.497c0.346-1.247-0.186-3.298-0.904-5.233l2.229-1.951c0.181-0.158,0.277-0.381,0.265-0.617
			c-0.006-0.236-0.119-0.451-0.308-0.599l-1.733-1.306c-0.295-0.226-0.705-0.209-0.981,0.035l-0.66,0.578
			c-0.008-1.297-0.512-2.496-1.32-3.428c-0.999-1.15-2.338-1.801-3.775-1.839c-0.014,0.003-0.031,0-0.045,0.003l-1.963-2.243
			c-0.425-0.482-1.164-0.534-1.65-0.106l-2.052,1.805c-0.485,0.426-0.533,1.168-0.113,1.651l0.792,0.901L19.319,28.127l-0.788-0.9
			c-0.421-0.483-1.16-0.535-1.647-0.11l-2.058,1.802c-0.487,0.424-0.535,1.171-0.109,1.649l1.928,2.199
			c-0.167,1.508,0.355,2.926,1.28,3.992c0.836,0.959,2,1.641,3.339,1.803l-0.706,0.619c-0.277,0.243-0.353,0.645-0.168,0.969
			l1.072,1.888C21.579,42.243,21.778,42.38,22.007,42.425L22.007,42.425z M40.822,29.764c-0.952,3.445-7.645,9.308-11.185,9.794
			c-0.692,0.097-2.268-0.572-4.021-1.541l14.208-12.441C40.559,27.441,41.012,29.092,40.822,29.764L40.822,29.764z M36.867,19.928
			c0.836,0.952,0.74,2.41-0.217,3.25c-0.959,0.839-2.418,0.743-3.254-0.213c-0.834-0.958-0.742-2.414,0.217-3.253
			C34.568,18.877,36.027,18.969,36.867,19.928L36.867,19.928z M20.603,31.105c0.956-0.835,2.411-0.739,3.25,0.22
			c0.835,0.956,0.74,2.411-0.216,3.245c-0.955,0.841-2.415,0.744-3.25-0.211C19.548,33.4,19.647,31.941,20.603,31.105L20.603,31.105
			z"/>
	</g>
</g>
</svg>
