<?xml version="1.0" encoding="utf-8"?>
<!-- Generator: Adobe Illustrator 15.0.0, SVG Export Plug-In . SVG Version: 6.00 Build 0)  -->
<!DOCTYPE svg PUBLIC "-//W3C//DTD SVG 1.1//EN" "http://www.w3.org/Graphics/SVG/1.1/DTD/svg11.dtd">
<svg version="1.1" id="Layer_1" xmlns="http://www.w3.org/2000/svg" xmlns:xlink="http://www.w3.org/1999/xlink" x="0px" y="0px"
	 width="246px" height="100px" viewBox="0 0 246 100" enable-background="new 0 0 246 100" xml:space="preserve">
<g>
	<path fill="#CCCCCC" d="M135.998,22.899h-3.103l-0.397-1.199c-1.7-5.801-6.399-11.7-12.2-14.7v15.3c-0.1,0.6-0.2,1.2-0.4,1.7
		c-0.699,1.399-2.199,2.399-3.899,2.399h-7.101c-1.6,0-3-0.799-3.699-2.1c-0.301-0.5-0.5-1.1-0.601-1.699
		c-0.1-0.201-0.1-0.4-0.1-0.601V7c-5.8,3-10.4,8.899-12.2,14.7l-0.4,1.199h-3.199v7h47.3L135.998,22.899L135.998,22.899z"/>
	<path fill="#CCCCCC" d="M93.499,33.399c-1.3,1.101-2.2,2.9-2.2,5c0.1,3.101,2,5.601,4.7,6.101c0.6,4.7,2.5,8.8,5.3,11.8
		c0.6,0.603,1.2,1.2,1.9,1.7c0.8,0.7,1.699,1.2,2.699,1.7c2.101,1.1,4.5,1.7,7,1.7s4.9-0.604,7-1.7c1-0.5,1.9-1.103,2.7-1.7
		c0.7-0.6,1.299-1.1,1.899-1.7c2.8-3,4.8-7.1,5.3-11.699h0.2c3,0,5.3-2.801,5.3-6.101c0-2.101-0.899-3.899-2.198-5h-39.6V33.399
		L93.499,33.399z"/>
	<path fill="#CCCCCC" d="M108.898,24.601h7c1,0,1.801-0.601,2.301-1.4c0.199-0.4,0.3-0.8,0.3-1.2V3.5c0-0.399-0.101-0.8-0.2-1.2
		c-0.5-1.3-1.8-2.3-3.2-2.3h-6.2c-1.3,0-2.5,1-2.6,2.3c0,0.1-0.1,0.2-0.1,0.301V22c0,0.601,0.199,1.101,0.399,1.5
		C107.198,24.101,107.999,24.601,108.898,24.601z"/>
	<polygon fill="#CCCCCC" points="138.599,84.3 145.599,84.3 146.998,73.3 147.397,70.102 147.599,68.4 136.599,68.4 	"/>
	<path fill="#CCCCCC" d="M124.897,60.5c-3.398,2.8-7.601,4.4-12.101,4.4c-4.2,0-8.2-1.5-11.5-4l-4.2,4h-8.1c-3.8,0-6.7,1.3-9,3.896
		c-6.7,7.7-5.601,24.302-5.101,29.399h32.7l20.2-35L124.897,60.5z"/>
	<path fill="#CCCCCC" d="M171.099,97.102l-27.801-47.897c-0.3-0.601-0.898-0.899-1.602-0.899c-0.603,0-1.198,0.299-1.603,0.899
		l-7.1,12.3l-1,1.7l-1,1.698l-18.602,32.5c-0.199,0.302-0.199,0.602-0.199,0.897c0,0.298,0.101,0.603,0.199,0.802
		c0.301,0.603,0.9,0.898,1.601,0.898h55.699c1,0,1.801-0.8,1.801-1.8C171.498,97.8,171.298,97.4,171.099,97.102z M153.397,96.602
		h-36.299L135.298,65l1-1.7l1-1.7l4.5-7.8l24.801,42.8L153.397,96.602L153.397,96.602z"/>
	<rect x="137.798" y="86.102" fill="#CCCCCC" width="8.801" height="8.801"/>
</g>
</svg>
