<?xml version="1.0" encoding="utf-8"?>
<!-- Generator: Adobe Illustrator 15.0.0, SVG Export Plug-In . SVG Version: 6.00 Build 0)  -->
<!DOCTYPE svg PUBLIC "-//W3C//DTD SVG 1.1//EN" "http://www.w3.org/Graphics/SVG/1.1/DTD/svg11.dtd">
<svg version="1.1" id="Layer_1" xmlns="http://www.w3.org/2000/svg" xmlns:xlink="http://www.w3.org/1999/xlink" x="0px" y="0px"
	 width="246px" height="100px" viewBox="0 0 246 100" enable-background="new 0 0 246 100" xml:space="preserve">
<path fill="#CCCCCC" d="M115.152,54.922c0,2.837-2.311,5.137-5.137,5.137c-2.838,0-5.146-2.3-5.146-5.137
	c0-2.838,2.299-5.146,5.146-5.146C112.843,49.775,115.152,52.084,115.152,54.922L115.152,54.922z M135.975,49.775
	c-2.828,0-5.127,2.309-5.127,5.146s2.299,5.138,5.127,5.138c2.838,0,5.146-2.301,5.146-5.138S138.822,49.775,135.975,49.775
	L135.975,49.775z M173,52.074v9.755c0,4.894-3.982,8.846-8.875,8.846h-6.438C151.309,88.405,135.025,99.08,123,99.08
	c-12.045,0-28.316-10.686-34.688-28.405h-6.438c-4.893,0-8.875-3.952-8.875-8.846v-9.755c0-3.396,1.889-6.321,4.658-7.809
	c0.078-13.854,4.129-24.677,12.006-32.172C97.482,4.667,108.706,0.92,123,0.92c14.287,0,25.509,3.748,33.328,11.165
	c7.885,7.495,11.918,18.317,12.006,32.172C171.111,45.744,173,48.679,173,52.074L173,52.074z M154.232,54.951
	c0-2.28-0.141-4.424-0.307-6.498c-3.939-3.61-11.072-6.34-20.104-7.368c1.191,1.331,2.221,3.092,2.838,5.401
	c-5.539-4.354-16.381-3.317-24.58-13.063c-0.459-0.548-0.871-1.065-1.213-1.546c-0.01,0-0.01-0.01-0.01-0.01l0,0
	c-1.479-1.967-1.957-3.142-1.996-1.85c-0.245,11.203-8.17,19.922-16.986,21.165c-0.059,1.215-0.107,2.467-0.107,3.758
	c0,4.744,0.783,9.054,2.104,12.938c4.933,5.979,13.103,7.649,20.343,8.104c1.35-2.137,4.344-3.621,7.857-3.621
	c4.766,0,8.619,2.74,8.619,6.104c0,3.387-3.854,6.125-8.619,6.125c-3.649,0-6.771-1.634-8.023-3.902
	c-5.059-0.293-10.597-1.164-15.566-3.502c6.968,10.266,17.77,15.703,24.521,15.703C133.588,92.887,154.232,79.491,154.232,54.951
	L154.232,54.951z M163.01,43.189C162.443,19.001,148.637,6.232,123,6.232c-25.656,0-39.441,12.769-40.01,36.957h3.425
	c1.243-8.16,3.875-14.844,7.876-20.011c6.38-8.209,16.037-12.377,28.708-12.377c12.67,0,22.319,4.159,28.708,12.369
	c4.012,5.167,6.645,11.85,7.887,20.01h3.416V43.189L163.01,43.189z"/>
</svg>
