<?xml version="1.0" encoding="utf-8"?>
<!-- Generator: Adobe Illustrator 15.0.0, SVG Export Plug-In . SVG Version: 6.00 Build 0)  -->
<!DOCTYPE svg PUBLIC "-//W3C//DTD SVG 1.1//EN" "http://www.w3.org/Graphics/SVG/1.1/DTD/svg11.dtd">
<svg version="1.1" id="Layer_1" xmlns="http://www.w3.org/2000/svg" xmlns:xlink="http://www.w3.org/1999/xlink" x="0px" y="0px"
	 width="250px" height="250px" viewBox="0 0 250 250" enable-background="new 0 0 250 250" xml:space="preserve">
<g>
	<line fill="none" stroke="#FFFFFF" stroke-width="0.9884" stroke-miterlimit="10" x1="38.1" y1="61.5" x2="67.8" y2="61.5"/>
	<line fill="none" stroke="#FFFFFF" stroke-width="0.9884" stroke-miterlimit="10" x1="38.1" y1="192.4" x2="67.8" y2="192.4"/>
	<line fill="none" stroke="#FFFFFF" stroke-width="0.9884" stroke-miterlimit="10" x1="184.2" y1="61.5" x2="213.9" y2="61.5"/>
	<line fill="none" stroke="#FFFFFF" stroke-width="0.9884" stroke-miterlimit="10" x1="184.2" y1="192.4" x2="213.9" y2="192.4"/>
	<g>
		<path fill-rule="evenodd" clip-rule="evenodd" fill="#404041" d="M163.3,211v-29.2c0-0.8,0.7-1.5,1.5-1.5h3.1
			c0.8,0,1.5,0.7,1.5,1.5V211c0,0.8-0.7,1.5-1.5,1.5h-3.1C164,212.6,163.3,211.9,163.3,211L163.3,211z M82.9,211v-29.2
			c0-0.8,0.7-1.5,1.5-1.5h3.1c0.8,0,1.5,0.7,1.5,1.5V211c0,0.8-0.7,1.5-1.5,1.5h-3.1C83.6,212.6,82.9,211.9,82.9,211z"/>
		<g>
			<linearGradient id="SVGID_1_" gradientUnits="userSpaceOnUse" x1="166.3789" y1="180.877" x2="166.3789" y2="208.9492">
				<stop  offset="0" style="stop-color:#404041"/>
				<stop  offset="0.27" style="stop-color:#808184"/>
				<stop  offset="0.54" style="stop-color:#A6A8AB"/>
				<stop  offset="1" style="stop-color:#231F20"/>
			</linearGradient>
			<path fill-rule="evenodd" clip-rule="evenodd" fill="url(#SVGID_1_)" d="M163.9,211v-29.2c0-0.5,0.4-1,1-1h3.1c0.5,0,1,0.4,1,1
				V211c0,0.5-0.4,1-1,1h-3.1C164.3,212,163.9,211.6,163.9,211z"/>
			<linearGradient id="SVGID_2_" gradientUnits="userSpaceOnUse" x1="85.9385" y1="180.877" x2="85.9385" y2="208.9492">
				<stop  offset="0" style="stop-color:#404041"/>
				<stop  offset="0.27" style="stop-color:#808184"/>
				<stop  offset="0.54" style="stop-color:#A6A8AB"/>
				<stop  offset="1" style="stop-color:#231F20"/>
			</linearGradient>
			<path fill-rule="evenodd" clip-rule="evenodd" fill="url(#SVGID_2_)" d="M83.4,211v-29.2c0-0.5,0.4-1,1-1h3.1c0.5,0,1,0.4,1,1
				V211c0,0.5-0.4,1-1,1h-3.1C83.9,212,83.4,211.6,83.4,211z"/>
		</g>
		<path fill-rule="evenodd" clip-rule="evenodd" fill="#404041" d="M165.7,80.6V51.4c0-0.8,0.7-1.5,1.5-1.5h3.1
			c0.8,0,1.5,0.7,1.5,1.5v29.2c0,0.8-0.7,1.5-1.5,1.5h-3.1C166.4,82.1,165.7,81.4,165.7,80.6L165.7,80.6z M80.5,80.6V51.4
			c0-0.8,0.7-1.5,1.5-1.5h3.1c0.8,0,1.5,0.7,1.5,1.5v29.2c0,0.8-0.7,1.5-1.5,1.5H82C81.2,82.1,80.5,81.4,80.5,80.6z"/>
		<g>
			<linearGradient id="SVGID_3_" gradientUnits="userSpaceOnUse" x1="168.75" y1="50.4272" x2="168.75" y2="78.4995">
				<stop  offset="0" style="stop-color:#404041"/>
				<stop  offset="0.27" style="stop-color:#808184"/>
				<stop  offset="0.54" style="stop-color:#A6A8AB"/>
				<stop  offset="1" style="stop-color:#231F20"/>
			</linearGradient>
			<path fill-rule="evenodd" clip-rule="evenodd" fill="url(#SVGID_3_)" d="M166.2,80.6V51.4c0-0.5,0.4-1,1-1h3.1c0.5,0,1,0.4,1,1
				v29.2c0,0.5-0.4,1-1,1h-3.1C166.7,81.6,166.2,81.1,166.2,80.6z"/>
			<linearGradient id="SVGID_4_" gradientUnits="userSpaceOnUse" x1="83.5679" y1="50.4272" x2="83.5679" y2="78.4995">
				<stop  offset="0" style="stop-color:#404041"/>
				<stop  offset="0.27" style="stop-color:#808184"/>
				<stop  offset="0.54" style="stop-color:#A6A8AB"/>
				<stop  offset="1" style="stop-color:#231F20"/>
			</linearGradient>
			<path fill-rule="evenodd" clip-rule="evenodd" fill="url(#SVGID_4_)" d="M81.1,80.6V51.4c0-0.5,0.4-1,1-1h3.1c0.5,0,1,0.4,1,1
				v29.2c0,0.5-0.4,1-1,1H82C81.5,81.6,81.1,81.1,81.1,80.6z"/>
		</g>
		<path fill-rule="evenodd" clip-rule="evenodd" fill="#FFCA05" d="M162.3,24.9c-1.6-2-3.5-4.1-5.6-5.6c-0.9-0.7-2.7-1.8-3.9-1.4
			c3.3,2.7,6.4,6.2,8,8.2c1.6,2,4.3,5.5,6.3,9.1C167.7,32.3,163.8,26.8,162.3,24.9z"/>
		<path fill-rule="evenodd" clip-rule="evenodd" fill="#FFFBD4" d="M161.8,25.2c-3.2-4.1-6.8-7-8.5-6.9c3.1,2.7,5.9,5.9,7.4,7.7
			c1.5,1.8,3.9,4.9,5.8,8.2C166.4,32.2,164.6,28.7,161.8,25.2z"/>
		<path fill-rule="evenodd" clip-rule="evenodd" fill="#FFCA05" d="M90,24.9c1.6-2,3.5-4.1,5.6-5.6c0.9-0.7,2.7-1.8,3.9-1.4
			c-3.3,2.7-6.4,6.2-8,8.2c-1.6,2-4.3,5.5-6.3,9.1C84.7,32.3,88.5,26.8,90,24.9z"/>
		<path fill-rule="evenodd" clip-rule="evenodd" fill="#FFFBD4" d="M90.5,25.2c3.2-4.1,6.8-7,8.5-6.9c-3.1,2.7-5.9,5.9-7.4,7.7
			c-1.5,1.8-3.9,4.9-5.8,8.2C85.9,32.2,87.7,28.7,90.5,25.2z"/>
		<path fill-rule="evenodd" clip-rule="evenodd" fill="#808184" d="M86.2,216.8L82.5,42.8c-0.1-4.8,6.1-13.3,9.1-16.8
			c2.9-3.5,10.6-12.1,15.5-12.1h38.2c4.9,0,12.6,8.6,15.5,12.1c2.9,3.6,9.2,12.1,9.1,16.8l-3.7,173.9
			C165.6,242.4,86.7,242.6,86.2,216.8z"/>
		<linearGradient id="SVGID_5_" gradientUnits="userSpaceOnUse" x1="169.2891" y1="124.9937" x2="83.0298" y2="124.9937">
			<stop  offset="0" style="stop-color:#BBBDBF"/>
			<stop  offset="9.000000e-002" style="stop-color:#F1F1F2"/>
			<stop  offset="0.92" style="stop-color:#F1F1F2"/>
			<stop  offset="1" style="stop-color:#BBBDBF"/>
		</linearGradient>
		<path fill-rule="evenodd" clip-rule="evenodd" fill="url(#SVGID_5_)" d="M86.7,216.8L83,42.8c-0.2-7.3,16.9-28.3,24-28.3h38.2
			c7.1,0,24.2,21,24,28.3l-3.7,173.9C165,241.6,87.2,241.8,86.7,216.8z"/>
		<path fill-rule="evenodd" clip-rule="evenodd" fill="#A6A8AB" d="M145.3,18.2c1.3,0.1,3.8,2.1,4.8,2.9c2.7,2.2,5.1,4.9,7.4,7.6
			c2.2,2.7,4.3,5.6,6,8.6c0.7,1.2,2.1,4.1,2.1,5.4v0l-2.5,32.7l-0.7-0.3c-25.4-9.4-47.1-9.4-72.5,0l-0.7,0.3l-2.5-32.7v0
			c0-1.3,1.4-4.2,2.1-5.4c1.7-3,3.8-5.9,6-8.6c2.2-2.7,4.7-5.4,7.4-7.6c1-0.8,3.5-2.8,4.8-2.9l0,0h0
			C119.8,18.2,132.5,18.2,145.3,18.2L145.3,18.2L145.3,18.2z"/>
		<linearGradient id="SVGID_6_" gradientUnits="userSpaceOnUse" x1="165.0166" y1="46.7041" x2="87.3022" y2="46.7041">
			<stop  offset="0" style="stop-color:#BBBDBF"/>
			<stop  offset="0.15" style="stop-color:#F1F1F2"/>
			<stop  offset="0.84" style="stop-color:#F1F1F2"/>
			<stop  offset="1" style="stop-color:#BBBDBF"/>
		</linearGradient>
		<path fill-rule="evenodd" clip-rule="evenodd" fill="url(#SVGID_6_)" d="M145.2,18.8c-12.7,0-25.4,0-38.2,0
			c-1.1,0.1-3.7,2.1-4.5,2.8c-2.6,2.2-5.1,4.9-7.3,7.5c-2.2,2.6-4.3,5.5-5.9,8.5c-0.6,1-2.1,3.9-2,5.1l2.4,31.9
			c25.5-9.4,47.3-9.4,72.9,0l2.4-31.9c0-1.2-1.5-4.1-2-5.1c-1.7-3-3.8-5.9-5.9-8.5c-2.2-2.7-4.7-5.3-7.3-7.5
			C148.9,20.9,146.4,18.9,145.2,18.8z"/>
		<radialGradient id="SVGID_7_" cx="123.3735" cy="122.6641" r="48.3095" gradientUnits="userSpaceOnUse">
			<stop  offset="0" style="stop-color:#AEB0B3"/>
			<stop  offset="1" style="stop-color:#808184"/>
		</radialGradient>
		<path fill-rule="evenodd" clip-rule="evenodd" fill="url(#SVGID_7_)" d="M96.1,103.3c-1.6-9.8-3.2-16.8-4.8-26.6
			c-0.1-0.9,0.4-1.8,1.3-2.1c22.4-6.9,44.7-7.4,67.1,0c0.9,0.3,1.4,1.2,1.3,2.1c-1.6,9.8-3.2,16.8-4.8,26.6
			c-0.1,0.5-0.3,0.9-0.8,1.2s-0.9,0.4-1.4,0.3c-18.6-3.2-37.2-3.2-55.8,0c-0.5,0.1-1,0-1.4-0.3C96.4,104.2,96.2,103.8,96.1,103.3z"
			/>
		<radialGradient id="SVGID_8_" cx="123.4624" cy="122.2939" r="54.6789" gradientUnits="userSpaceOnUse">
			<stop  offset="0" style="stop-color:#808184"/>
			<stop  offset="1" style="stop-color:#231F20"/>
		</radialGradient>
		<path fill-rule="evenodd" clip-rule="evenodd" fill="url(#SVGID_8_)" d="M96.1,103.3c-1.6-9.8-3.2-16.8-4.8-26.6
			c-0.1-0.5,0.1-1.1,0.4-1.5c22.2-6.8,44.5-7.2,66.7,0.1c0.9,0.3,1.4,1.2,1.3,2.1c-1.6,9.8-3.2,16.8-4.8,26.6c0,0.3-0.2,0.6-0.3,0.8
			c-0.2,0-0.3,0-0.5,0c-18.6-3.2-37.2-3.2-55.8,0c-0.5,0.1-1,0-1.4-0.3C96.4,104.2,96.2,103.8,96.1,103.3z"/>
		<linearGradient id="SVGID_9_" gradientUnits="userSpaceOnUse" x1="126.1582" y1="148.9023" x2="126.1582" y2="63.7495">
			<stop  offset="0" style="stop-color:#D0D2D3"/>
			<stop  offset="0.22" style="stop-color:#F1F1F2"/>
			<stop  offset="0.67" style="stop-color:#F1F1F2"/>
			<stop  offset="1" style="stop-color:#D0D2D3"/>
		</linearGradient>
		<path fill-rule="evenodd" clip-rule="evenodd" fill="url(#SVGID_9_)" d="M95.9,140.8v1c0,10.6,0,21.1,0,31.7v2.6
			c0,2.5,0.1,5,0.1,7.4c0.1,4.3,0.1,8.9-0.5,13.2c-0.5,3.3-1.6,7.3-4.5,9.3l-2.3,1.6l-0.1-2.8c-0.2-8.5-0.4-17-0.6-25.5l0-0.4
			l0.2-0.4c0.6-1,1.5-1.8,2.5-2.4c-0.8,0-1.5-0.1-2.1-0.6l-0.6-0.4l0-0.7c-0.2-11.3-0.5-22.6-0.8-33.9l0-0.4l0.2-0.3
			c0.4-0.8,1.1-1.1,2-1.1c-1.2-0.6-2.1-1.4-2.2-2.8l0-0.1l0-0.1c-0.4-16.4-0.7-32.7-1.1-49.1l-0.1-3.7l2.6,2.6c2.4,2.4,4,8,4.7,11.2
			c1.6,7,2.3,14.5,2.6,21.6l0,0v0c0,6.7,0,13.5,0,20.2V140.8L95.9,140.8z M163,138.9c0.9,0,1.6,0.3,2,1.1l0.2,0.3l0,0.4
			c-0.2,11.3-0.5,22.6-0.8,33.9l0,0.7l-0.6,0.4c-0.6,0.5-1.4,0.6-2.1,0.6c1,0.6,1.9,1.3,2.5,2.4l0.2,0.4l0,0.4
			c-0.2,8.5-0.4,17-0.6,25.5l-0.1,2.8l-2.3-1.6c-2.9-2-4-6-4.5-9.3c-0.6-4.3-0.6-8.9-0.5-13.2c0-2.5,0.1-5,0.1-7.4v-2.6
			c0-10.6,0-21.1,0-31.7V139c0-6.7,0-13.5,0-20.2v0l0,0c0.3-7.1,1-14.6,2.6-21.6c0.7-3.2,2.3-8.8,4.7-11.2l2.6-2.6l-0.1,3.7
			c-0.4,16.4-0.7,32.7-1.1,49.1l0,0.1l0,0.1C165.1,137.5,164.1,138.3,163,138.9z"/>
		<linearGradient id="SVGID_10_" gradientUnits="userSpaceOnUse" x1="93.2363" y1="157.6279" x2="89.807" y2="157.6279">
			<stop  offset="0" style="stop-color:#403F3A"/>
			<stop  offset="1" style="stop-color:#8B8B83"/>
		</linearGradient>
		<path fill-rule="evenodd" clip-rule="evenodd" fill="url(#SVGID_10_)" d="M89.4,174.6c-0.3-11.8-0.5-22.1-0.8-33.9
			c0.6-1.1,4.3,0.6,5.7,1.1c0,10.6,0,21.1,0,31.7C93,174.2,90.6,175.4,89.4,174.6z"/>
		<linearGradient id="SVGID_11_" gradientUnits="userSpaceOnUse" x1="93.6406" y1="190.5479" x2="90.4876" y2="190.5479">
			<stop  offset="0" style="stop-color:#231F20"/>
			<stop  offset="1" style="stop-color:#808184"/>
		</linearGradient>
		<path fill-rule="evenodd" clip-rule="evenodd" fill="url(#SVGID_11_)" d="M90.1,204.9c-0.2-8.5-0.4-17-0.6-25.5
			c0.9-1.6,3.5-2.6,4.9-3.3C94.4,187.2,95.6,201.1,90.1,204.9z"/>
		<linearGradient id="SVGID_12_" gradientUnits="userSpaceOnUse" x1="162.5107" y1="157.6279" x2="159.0808" y2="157.6279">
			<stop  offset="0" style="stop-color:#403F3A"/>
			<stop  offset="1" style="stop-color:#8B8B83"/>
		</linearGradient>
		<path fill-rule="evenodd" clip-rule="evenodd" fill="url(#SVGID_12_)" d="M162.9,174.6c0.3-11.8,0.5-22.1,0.8-33.9
			c-0.6-1.1-4.3,0.6-5.7,1.1c0,10.6,0,21.1,0,31.7C159.3,174.2,161.7,175.4,162.9,174.6z"/>
		<linearGradient id="SVGID_13_" gradientUnits="userSpaceOnUse" x1="161.8027" y1="190.5479" x2="158.8194" y2="190.5479">
			<stop  offset="0" style="stop-color:#403F3A"/>
			<stop  offset="1" style="stop-color:#8B8B83"/>
		</linearGradient>
		<path fill-rule="evenodd" clip-rule="evenodd" fill="url(#SVGID_13_)" d="M162.2,204.9c0.2-8.5,0.4-17,0.6-25.5
			c-0.9-1.6-3.5-2.6-4.9-3.3C157.9,187.2,156.7,201.1,162.2,204.9z"/>
		<linearGradient id="SVGID_14_" gradientUnits="userSpaceOnUse" x1="163.4307" y1="112.9531" x2="159.3106" y2="112.9531">
			<stop  offset="0" style="stop-color:#403F3A"/>
			<stop  offset="1" style="stop-color:#8B8B83"/>
		</linearGradient>
		<path fill-rule="evenodd" clip-rule="evenodd" fill="url(#SVGID_14_)" d="M163.7,136c0.4-16.7,0.7-32.3,1.1-49.1
			c-3,3-6.2,14.4-6.9,31.8c0,6.7,0,13.5,0,20.2C159.6,138.4,163.5,137.9,163.7,136z"/>
		<linearGradient id="SVGID_15_" gradientUnits="userSpaceOnUse" x1="93.0059" y1="112.9531" x2="88.8854" y2="112.9531">
			<stop  offset="0" style="stop-color:#403F3A"/>
			<stop  offset="1" style="stop-color:#8B8B83"/>
		</linearGradient>
		<path fill-rule="evenodd" clip-rule="evenodd" fill="url(#SVGID_15_)" d="M88.6,136c-0.4-16.7-0.7-32.3-1.1-49.1
			c3,3,6.2,14.4,6.9,31.8c0,6.7,0,13.5,0,20.2C92.7,138.4,88.8,137.9,88.6,136z"/>
		<path fill-rule="evenodd" clip-rule="evenodd" fill="#DBDCDD" d="M94.3,223.3c-1.4-1.3-1.5-3.3-1.2-5.1c0.3-2,1.2-4.1,2.4-5.7
			c0.4-0.6,0.9-1.2,1.4-1.8l1.5-1.6l0.9,1.9c1.2,2.6,6.6,4.2,9.1,4.8c5.6,1.4,11.9,1.9,17.7,1.9c5.8,0,12-0.5,17.7-1.9
			c2.5-0.6,7.9-2.2,9.1-4.8l0.9-1.9l1.5,1.6c0.5,0.6,1,1.2,1.4,1.8c1.1,1.7,2.1,3.7,2.4,5.7c0.3,1.8,0.1,3.8-1.2,5.1
			c-2.9,3.8-8.3,6.1-12.8,7.3c-6,1.7-12.7,2.4-18.9,2.4l-0.1,0c-6.3,0-12.9-0.7-18.9-2.4C102.7,229.4,97.2,227.1,94.3,223.3z"/>
		<radialGradient id="SVGID_16_" cx="125.4858" cy="201.751" r="38.653" gradientUnits="userSpaceOnUse">
			<stop  offset="0" style="stop-color:#808184"/>
			<stop  offset="1" style="stop-color:#231F20"/>
		</radialGradient>
		<path fill-rule="evenodd" clip-rule="evenodd" fill="url(#SVGID_16_)" d="M126.1,219.2c-12.9-0.1-25.8-2.7-28.1-7.6
			c-3.1,3.3-4.7,8.8-2.6,10.6c4.5,6.1,17.6,9.2,30.7,9.2l0,0h0h0l0,0c13.1,0,26.1-3.1,30.7-9.2c2.1-1.8,0.6-7.3-2.6-10.6
			C151.9,216.5,139,219.1,126.1,219.2z"/>
		<g>
			<g>
				<path fill-rule="evenodd" clip-rule="evenodd" fill="#A6A8AB" d="M74.3,92.8c-0.4-1.2-0.6-2.4,0.1-3.5c0.8-1.4,2.6-2,4.1-2.5
					c1.9-0.6,3.9-1,5.9-1.7c0.7-0.2,1.4-0.5,2.1-0.8l0.5-0.2l0.1,0.5c0.4,1.5,0.8,3,1.2,4.4l0.1,0.4l-0.4,0.1
					c-4.3,1.2-8.7,2.3-13,3.5l-0.4,0.1L74.3,92.8z"/>
				<path fill-rule="evenodd" clip-rule="evenodd" fill="#F1F1F2" d="M74.7,92.6c-2.1-5.9,6-5.1,11.9-7.9c0.4,1.5,0.8,3,1.2,4.4
					C83.4,90.3,79.1,91.5,74.7,92.6z"/>
				
					<rect x="82.7" y="86.5" transform="matrix(0.2588 0.9659 -0.9659 0.2588 147.7659 -17.7474)" fill-rule="evenodd" clip-rule="evenodd" fill="#A6A8AB" width="5.4" height="1.8"/>
				
					<rect x="83.2" y="86.9" transform="matrix(0.2587 0.966 -0.966 0.2587 147.7745 -17.7425)" fill-rule="evenodd" clip-rule="evenodd" fill="#D0D2D3" width="4.6" height="1"/>
			</g>
			<g>
				<path fill-rule="evenodd" clip-rule="evenodd" fill="#A6A8AB" d="M178,92.8c0.4-1.2,0.6-2.4-0.1-3.5c-0.8-1.4-2.6-2-4.1-2.5
					c-1.9-0.6-3.9-1-5.9-1.7c-0.7-0.2-1.4-0.5-2.1-0.8l-0.5-0.2l-0.1,0.5c-0.4,1.5-0.8,3-1.2,4.4l-0.1,0.4l0.4,0.1
					c4.3,1.2,8.7,2.3,13,3.5l0.4,0.1L178,92.8z"/>
				<path fill-rule="evenodd" clip-rule="evenodd" fill="#F1F1F2" d="M177.6,92.6c2.1-5.9-6-5.1-11.9-7.9c-0.4,1.5-0.8,3-1.2,4.4
					C168.9,90.3,173.2,91.5,177.6,92.6z"/>
				
					<rect x="164.1" y="86.5" transform="matrix(-0.2588 0.9659 -0.9659 -0.2588 294.4867 -51.1558)" fill-rule="evenodd" clip-rule="evenodd" fill="#A6A8AB" width="5.4" height="1.8"/>
				
					<rect x="164.6" y="86.9" transform="matrix(-0.2587 0.966 -0.966 -0.2587 294.4767 -51.1649)" fill-rule="evenodd" clip-rule="evenodd" fill="#D0D2D3" width="4.6" height="1"/>
			</g>
		</g>
		<g>
			<g>
				<g>
					<path fill-rule="evenodd" clip-rule="evenodd" fill="#929497" d="M86.3,133.5c0-0.7-0.2-3.8,0.5-3.8h0.6l0.1,5.8
						C86.7,135.6,86.3,134.5,86.3,133.5z"/>
					<linearGradient id="SVGID_17_" gradientUnits="userSpaceOnUse" x1="86.9146" y1="135.2881" x2="86.8195" y2="129.8409">
						<stop  offset="0" style="stop-color:#D0D2D3"/>
						<stop  offset="0.11" style="stop-color:#F1F1F2"/>
						<stop  offset="0.68" style="stop-color:#F1F1F2"/>
						<stop  offset="1" style="stop-color:#D0D2D3"/>
					</linearGradient>
					<path fill-rule="evenodd" clip-rule="evenodd" fill="url(#SVGID_17_)" d="M87.3,135.2c-0.7,0.1-0.9-1.2-0.9-1.8
						c0-0.7-0.1-3.6,0.3-3.6c0.1,0,0.2,0,0.4,0C87.3,131.7,87.3,133.4,87.3,135.2z"/>
				</g>
				<g>
					<path fill-rule="evenodd" clip-rule="evenodd" fill="#929497" d="M87.1,172.3c0-0.7-0.2-3.8,0.5-3.8h0.6l0.1,5.8
						C87.4,174.4,87.1,173.3,87.1,172.3z"/>
					<linearGradient id="SVGID_18_" gradientUnits="userSpaceOnUse" x1="87.6729" y1="174.0918" x2="87.5778" y2="168.6489">
						<stop  offset="0" style="stop-color:#D0D2D3"/>
						<stop  offset="0.11" style="stop-color:#F1F1F2"/>
						<stop  offset="0.68" style="stop-color:#F1F1F2"/>
						<stop  offset="1" style="stop-color:#D0D2D3"/>
					</linearGradient>
					<path fill-rule="evenodd" clip-rule="evenodd" fill="url(#SVGID_18_)" d="M88.1,174.1c-0.7,0.1-0.9-1.2-0.9-1.8
						c0-0.7-0.1-3.6,0.3-3.6c0.1,0,0.2,0,0.4,0C88,170.5,88.1,172.2,88.1,174.1z"/>
				</g>
			</g>
			<g>
				<g>
					<path fill-rule="evenodd" clip-rule="evenodd" fill="#929497" d="M166,133.5c0-0.7,0.2-3.8-0.5-3.8h-0.6l-0.1,5.8
						C165.6,135.6,166,134.5,166,133.5z"/>
					<linearGradient id="SVGID_19_" gradientUnits="userSpaceOnUse" x1="165.498" y1="129.8418" x2="165.403" y2="135.2885">
						<stop  offset="0" style="stop-color:#D0D2D3"/>
						<stop  offset="0.11" style="stop-color:#F1F1F2"/>
						<stop  offset="0.68" style="stop-color:#F1F1F2"/>
						<stop  offset="1" style="stop-color:#D0D2D3"/>
					</linearGradient>
					<path fill-rule="evenodd" clip-rule="evenodd" fill="url(#SVGID_19_)" d="M165,135.2c0.7,0.1,0.9-1.2,0.9-1.8
						c0-0.7,0.1-3.6-0.3-3.6c-0.1,0-0.2,0-0.4,0C165,131.7,165,133.4,165,135.2z"/>
				</g>
				<g>
					<path fill-rule="evenodd" clip-rule="evenodd" fill="#929497" d="M165.3,172.3c0-0.7,0.2-3.8-0.5-3.8h-0.6l-0.1,5.8
						C164.9,174.4,165.3,173.3,165.3,172.3z"/>
					<linearGradient id="SVGID_20_" gradientUnits="userSpaceOnUse" x1="164.7402" y1="168.6494" x2="164.6452" y2="174.0932">
						<stop  offset="0" style="stop-color:#D0D2D3"/>
						<stop  offset="0.11" style="stop-color:#F1F1F2"/>
						<stop  offset="0.68" style="stop-color:#F1F1F2"/>
						<stop  offset="1" style="stop-color:#D0D2D3"/>
					</linearGradient>
					<path fill-rule="evenodd" clip-rule="evenodd" fill="url(#SVGID_20_)" d="M164.2,174.1c0.7,0.1,0.9-1.2,0.9-1.8
						c0-0.7,0.1-3.6-0.3-3.6c-0.1,0-0.2,0-0.4,0C164.3,170.5,164.3,172.2,164.2,174.1z"/>
				</g>
			</g>
		</g>
		<linearGradient id="SVGID_21_" gradientUnits="userSpaceOnUse" x1="155.9082" y1="161.8203" x2="96.4111" y2="161.8203">
			<stop  offset="0" style="stop-color:#BBBDBF"/>
			<stop  offset="0.15" style="stop-color:#F1F1F2"/>
			<stop  offset="0.84" style="stop-color:#F1F1F2"/>
			<stop  offset="1" style="stop-color:#BBBDBF"/>
		</linearGradient>
		<path fill-rule="evenodd" clip-rule="evenodd" fill="url(#SVGID_21_)" d="M97.6,210.2c-0.4-34.1,0.3-86.8-1.2-103.4
			c19.7-3.6,39.8-3.6,59.5,0c-1.5,16.6-0.8,69.3-1.2,103.4C154.8,222.7,97.5,222.7,97.6,210.2z"/>
		<path fill-rule="evenodd" clip-rule="evenodd" fill="#BBBDBF" d="M100.9,205.5c0.5-27.1-0.3-54.2-2.4-81.2c0-0.6,0.1-1.2,0.6-1.6
			c0.7-0.6,1.7-0.6,2.6-0.6c1.1,0,2.2,1,2.1,2.2c-1.1,27.1,0,54.2,2.4,81.2c0.1,0.6-0.1,1.2-0.6,1.6c-0.7,0.6-1.8,0.6-2.6,0.6
			C101.9,207.6,100.9,206.7,100.9,205.5L100.9,205.5L100.9,205.5L100.9,205.5z M151.4,205.5c0,1.2-1,2.1-2.1,2.1c-0.4,0-0.8,0-1.2,0
			c-1.2-0.1-2.1-0.8-2-2.2c2.4-27,3.4-54.1,2.4-81.2c0-1.2,1-2.2,2.1-2.2c0.4,0,0.8,0,1.2,0c1.2,0.1,2.1,0.8,2,2.2
			C151.7,151.3,150.9,178.4,151.4,205.5L151.4,205.5L151.4,205.5z"/>
		<path fill-rule="evenodd" clip-rule="evenodd" fill="#F1F1F2" d="M101.5,205.5c0.5-26.7-0.3-53.3-2.4-80c-0.1-1.7,1.8-1.5,2.6-1.5
			c0.8,0,1.6,0.7,1.6,1.5c-1,26.2-0.1,52.9,2.4,80c0.2,1.7-1.8,1.5-2.6,1.5C102.2,207.1,101.5,206.4,101.5,205.5L101.5,205.5z
			 M150.9,205.5c-0.5-26.7,0.3-53.3,2.4-80c0.1-1.7-1.8-1.5-2.6-1.5c-0.8,0-1.6,0.7-1.6,1.5c1,26.2,0.1,52.9-2.4,80
			c-0.2,1.7,1.8,1.5,2.6,1.5C150.1,207.1,150.8,206.4,150.9,205.5z"/>
		<path fill-rule="evenodd" clip-rule="evenodd" fill="#DBDCDD" d="M106.5,26.1c0.9,5.9,1.8,12.8,2.5,20.1
			c0.7,7.3,1.1,14.2,1.3,20.1c-0.9-5.9-1.8-12.7-2.5-20.1C107.1,38.8,106.7,31.9,106.5,26.1L106.5,26.1z M145.8,26.1
			c-0.9,5.9-1.8,12.8-2.5,20.1c-0.7,7.3-1.1,14.2-1.3,20.1c0.9-5.9,1.8-12.7,2.5-20.1C145.2,38.8,145.6,31.9,145.8,26.1z"/>
	</g>
	<g>
		<path fill="#FFFFFF" d="M18.6,44c9.7,0,17.6,7.9,17.6,17.6c0,9.7-7.9,17.6-17.6,17.6C8.9,79.1,1,71.2,1,61.5
			C1,51.8,8.9,44,18.6,44 M18.6,43C8.3,43,0,51.3,0,61.5C0,71.7,8.3,80,18.6,80c10.2,0,18.5-8.3,18.5-18.5
			C37.1,51.3,28.8,43,18.6,43L18.6,43z"/>
	</g>
	<g>
		<path fill="#FFFFFF" d="M18.6,174.9c9.7,0,17.6,7.9,17.6,17.6c0,9.7-7.9,17.6-17.6,17.6C8.9,210,1,202.1,1,192.4
			C1,182.7,8.9,174.9,18.6,174.9 M18.6,173.9C8.3,173.9,0,182.2,0,192.4C0,202.7,8.3,211,18.6,211c10.2,0,18.5-8.3,18.5-18.5
			C37.1,182.2,28.8,173.9,18.6,173.9L18.6,173.9z"/>
	</g>
	<g>
		<path fill="#FFFFFF" d="M231.4,44c9.7,0,17.6,7.9,17.6,17.6c0,9.7-7.9,17.6-17.6,17.6c-9.7,0-17.6-7.9-17.6-17.6
			C213.9,51.8,221.7,44,231.4,44 M231.4,43c-10.2,0-18.5,8.3-18.5,18.5c0,10.2,8.3,18.5,18.5,18.5c10.2,0,18.5-8.3,18.5-18.5
			C250,51.3,241.7,43,231.4,43L231.4,43z"/>
	</g>
	<g>
		<path fill="#FFFFFF" d="M231.4,174.9c9.7,0,17.6,7.9,17.6,17.6c0,9.7-7.9,17.6-17.6,17.6c-9.7,0-17.6-7.9-17.6-17.6
			C213.9,182.7,221.7,174.9,231.4,174.9 M231.4,173.9c-10.2,0-18.5,8.3-18.5,18.5c0,10.2,8.3,18.5,18.5,18.5
			c10.2,0,18.5-8.3,18.5-18.5C250,182.2,241.7,173.9,231.4,173.9L231.4,173.9z"/>
	</g>
</g>
</svg>
