<?xml version="1.0" encoding="utf-8"?>
<!-- Generator: Adobe Illustrator 15.0.0, SVG Export Plug-In . SVG Version: 6.00 Build 0)  -->
<!DOCTYPE svg PUBLIC "-//W3C//DTD SVG 1.1//EN" "http://www.w3.org/Graphics/SVG/1.1/DTD/svg11.dtd">
<svg version="1.1" id="Layer_1" xmlns="http://www.w3.org/2000/svg" xmlns:xlink="http://www.w3.org/1999/xlink" x="0px" y="0px"
	 width="246px" height="100px" viewBox="0 0 246 100" enable-background="new 0 0 246 100" xml:space="preserve">
<g>
	<circle fill="#CCCCCC" cx="18.234" cy="85.48" r="3.509"/>
	<path fill="#CCCCCC" d="M75.751,81.971c-1.94,0-3.512,1.57-3.512,3.509c0,1.939,1.571,3.51,3.512,3.51
		c1.937,0,3.507-1.57,3.507-3.51C79.258,83.541,77.688,81.971,75.751,81.971z"/>
	<path fill="#CCCCCC" d="M103.743,70.707c-0.77-0.26-1.337-0.5-4.191-1.158l-4.074-16.855l3.72-3.896c0,0,1.838-0.088,3.505,0.468
		c0.459-1.158-4.048-2.907-4.048-2.907L80.846,65.289c0,0-24.103-13.994-26.821-13.994c-3.002,0-23.604,0.009-23.604,0.009
		c-5.032,0-9.241,3.835-14.109,8.278c-2.292,2.091-4.827,4.393-7.625,6.442l-2.868,1.384c-1.504,0.479-2.589,1.889-2.589,3.549
		v11.926c0,2.06,1.666,3.725,3.726,3.725H6.567c0.52,5.987,5.555,10.697,11.673,10.697c6.114,0,11.151-4.714,11.671-10.697H64.06
		c0.517,5.987,5.554,10.697,11.67,10.697c6.12,0,11.153-4.714,11.67-10.697h5.881c4.652,0,13.184-0.43,13.756-2.317
		C108.476,79.515,107.438,71.944,103.743,70.707z M18.24,91.657c-3.346,0-6.071-2.721-6.071-6.069s2.723-6.07,6.071-6.07
		c3.349,0,6.07,2.722,6.07,6.07S21.589,91.657,18.24,91.657z M28.514,69.504h-5.001c-0.307,0-0.556-0.25-0.556-0.557
		c0-0.308,0.249-0.556,0.556-0.556h5.001c0.307,0,0.557,0.248,0.557,0.556C29.07,69.254,28.821,69.504,28.514,69.504z
		 M40.776,65.528H20.414c1.474-1.164,2.836-2.399,4.089-3.543c3.299-3.008,6.146-5.605,9.552-5.605c0,0,3.082,0,6.721,0V65.528z
		 M52.825,69.504h-4.999c-0.309,0-0.556-0.25-0.556-0.557c0-0.308,0.248-0.556,0.556-0.556h4.999c0.308,0,0.557,0.248,0.557,0.556
		C53.382,69.254,53.133,69.504,52.825,69.504z M45.736,65.528v-9.15c2.516,0,4.761,0,5.892,0c2.81,0,14.186,6.607,18.459,9.15
		H45.736z M75.729,91.657c-3.348,0-6.069-2.721-6.069-6.069s2.722-6.07,6.069-6.07c3.346,0,6.071,2.722,6.071,6.07
		S79.075,91.657,75.729,91.657z M82.716,65.916l12.026-12.413l3.82,15.819C96.157,68.777,84.309,66.266,82.716,65.916z"/>
</g>
<g>
	<path fill="#CCCCCC" d="M142.276,58.246V82.15c0,1.296,1.068,2.364,2.377,2.364h7.241c0.185,7.096,5.996,12.79,13.142,12.79
		c7.148,0,12.948-5.694,13.145-12.79h26.457c0.186,7.096,5.996,12.79,13.143,12.79s12.957-5.694,13.144-12.79h9.463
		c1.327,0,2.385-1.059,2.385-2.365V66.463c0-1.317-1.068-2.375-2.385-2.375h-5.293h-4.752h-7.293V29.831
		c0.883,0.28,1.785,0.466,2.75,0.466c0.187,0,0.362-0.052,0.538-0.063l1.226,3.216c-2.77,2.223-3.942,6.06-2.614,9.557
		c0.81,2.104,2.364,3.755,4.418,4.688c1.088,0.487,2.262,0.734,3.435,0.734c1.005,0,2.021-0.176,2.987-0.551
		c2.271-0.861,4.056-2.654,4.896-4.928c0.498-1.317-0.175-2.801-1.483-3.288c-1.327-0.488-2.8,0.187-3.298,1.516
		c-0.321,0.882-1.026,1.588-1.909,1.919c-0.811,0.32-1.711,0.299-2.511-0.063c-0.81-0.361-1.41-1.017-1.732-1.835
		c-0.643-1.693,0.217-3.591,1.91-4.233c0.632-0.25,1.141-0.726,1.421-1.349c0.279-0.623,0.29-1.328,0.052-1.961l-1.939-5.094
		c2.409-1.692,3.996-4.492,3.996-7.646c0-5.177-4.214-9.389-9.38-9.389c-4.087,0-7.002,2.821-8.817,6.287
		c-0.062,0.136-20.511,36.136-26.122,45.982V37.683l0.01-4.752v-6.588c0-1.306-1.068-2.364-2.375-2.364h-9.088
		c-0.093-3.726-3.153-6.722-6.889-6.722c-3.746,0-6.785,2.997-6.889,6.722h-6.732c-0.934,0-1.786,0.538-2.168,1.401l-14.256,31.879
		C142.349,57.58,142.276,57.903,142.276,58.246z M211.215,84.171c0-3.639,2.946-6.575,6.577-6.575s6.577,2.933,6.577,6.575
		c0,3.619-2.946,6.565-6.577,6.565C214.162,90.736,211.215,87.801,211.215,84.171z M216.225,64.086h-17.655l17.655-31.207v31.217
		V64.086z M158.471,84.181c0-2.603,1.505-4.845,3.684-5.913c0.882-0.425,1.855-0.663,2.895-0.663c3.63,0,6.576,2.935,6.576,6.576
		c0,0.114,0,0.24-0.01,0.354c-0.187,3.464-3.05,6.212-6.566,6.212c-2.281,0-4.294-1.163-5.468-2.926
		c-0.643-0.952-1.035-2.084-1.1-3.299C158.471,84.398,158.471,84.284,158.471,84.181z M178.753,57.457h-27.378l10.769-25.574h16.609
		V57.457L178.753,57.457z"/>
	<path fill="#CCCCCC" d="M217.791,81.09c1.701,0,3.08,1.381,3.08,3.081c0,1.699-1.379,3.081-3.08,3.081s-3.081-1.381-3.081-3.081
		C214.71,82.469,216.09,81.09,217.791,81.09z"/>
	<path fill="#CCCCCC" d="M165.049,81.09c1.7,0,3.079,1.381,3.079,3.081c0,1.699-1.379,3.081-3.079,3.081
		c-1.702,0-3.081-1.381-3.081-3.081C161.968,82.469,163.347,81.09,165.049,81.09z"/>
</g>
<polygon fill="#CCCCCC" points="44.413,45 42.413,45 42.413,2 173.413,2 173.413,15 171.413,15 171.413,4 44.413,4 "/>
<circle fill="#CCCCCC" cx="43.22" cy="51.426" r="4.947"/>
</svg>
