<?xml version="1.0" encoding="utf-8"?>
<!-- Generator: Adobe Illustrator 15.0.0, SVG Export Plug-In . SVG Version: 6.00 Build 0)  -->
<!DOCTYPE svg PUBLIC "-//W3C//DTD SVG 1.1//EN" "http://www.w3.org/Graphics/SVG/1.1/DTD/svg11.dtd">
<svg version="1.1" id="Layer_1" xmlns="http://www.w3.org/2000/svg" xmlns:xlink="http://www.w3.org/1999/xlink" x="0px" y="0px"
	 width="1024px" height="1024px" viewBox="0 0 1024 1024" enable-background="new 0 0 1024 1024" xml:space="preserve">
<g>
	<path opacity="0.3" d="M801.5,420.3c0,151.6-122.9,274.5-274.5,274.5c-151.6,0-274.4-122.9-274.4-274.5
		c0-151.6,122.9-274.4,274.4-274.4C678.6,145.8,801.5,268.7,801.5,420.3z"/>
	<g opacity="0.3">
		<g>
			<g>
				<polygon points="6,772.3 48.1,772.3 48.1,891.4 68.1,891.4 68.1,772.3 109.9,772.3 109.9,752.1 6,752.1 				"/>
				<path d="M205.6,849.2c0,15.3-16.5,23-30.9,23c-14.7,0-31.1-7.5-31.1-22.8v-97.1h-20.2v96.9c0,28.3,27,43,51.3,43
					c23.8,0,51.1-14.7,51.1-42.8v-97.1h-20.2V849.2z"/>
				<polygon points="287.1,754.8 232.1,898.5 245.3,898.5 300.8,754.8 				"/>
				<path d="M361.1,844.4h51.3c-8.3,20.2-26.6,28.2-43.6,28.2c-27.2,0-48.2-21.6-48.2-50.9c0-29.1,21-50.3,48.2-50.3
					c17.6,0,39,8.1,44.6,30.5h21.4c-7.3-36.9-39.4-50.5-66-50.5c-38.3,0-68.2,29.3-68.2,70.4c0,40.8,29.3,70.2,68.2,70.2
					c25.2,0,53.7-17,63.2-43.6v0.2c1.8-4.6,2.8-12.3,3.8-24h-74.7V844.4z"/>
				<path d="M546.8,796.3c0-22-15-44.2-45.2-44.2h-50.5v138.7h19.8V772.3h30.7c16.9,0,25.2,12.1,25.2,24c0,12.1-8.3,24.2-25.2,24.2
					h-23.4v9.5l50.6,60.8h26l-43.8-52.1C534.7,834.5,546.8,815.9,546.8,796.3z"/>
				<path d="M641.9,849.2c0,15.3-16.4,23-30.9,23c-14.7,0-31.1-7.5-31.1-22.8v-97.1h-20.2v96.9c0,28.3,27,43,51.3,43
					c23.8,0,51.1-14.7,51.1-42.8v-97.1h-20.2V849.2z"/>
				<polygon points="699.4,831.5 762.2,831.5 762.2,811.3 699.4,811.3 699.4,772.3 763.6,772.3 763.6,752.3 679.2,752.3 
					679.2,890.8 763.8,890.8 763.8,870.8 699.4,870.8 				"/>
				<path d="M872.6,796.3c0-22-15.1-44.2-45.2-44.2h-50.5v138.7h19.8V772.3h30.7c16.8,0,25.2,12.1,25.2,24
					c0,12.1-8.3,24.2-25.2,24.2H804v9.5l50.5,60.8h26l-43.8-52.1C860.5,834.5,872.6,815.9,872.6,796.3z"/>
				<path d="M1002.2,771.3c-12.9-12.9-30.5-21-50.1-21c-19.4,0-37.3,8.1-49.9,21c-12.5,12.9-20.6,30.5-20.6,50.1s8.1,37.3,20.6,50.1
					c12.7,13.1,30.5,21,49.9,21c19.6,0,37.3-7.9,50.1-21c12.5-12.9,20.6-30.5,20.6-50.1S1014.7,784.2,1002.2,771.3z M988,857.3
					c-9.3,9.3-22.2,15.1-35.9,15.1s-26.4-5.7-35.5-15.1c-9.1-9.1-14.9-21.8-14.9-35.9s5.8-26.8,14.9-35.9
					c9.1-9.3,21.8-15.1,35.5-15.1s26.6,5.8,35.9,15.1c8.9,9.1,14.7,21.6,14.7,35.9C1002.6,835.7,996.9,848.2,988,857.3z"/>
			</g>
		</g>
		<path d="M974,822.2c0,12.1-9.8,21.9-21.8,21.9c-12.1,0-21.8-9.8-21.8-21.9c0-12.1,9.8-21.8,21.8-21.8
			C964.3,800.4,974,810.2,974,822.2z"/>
	</g>
	<path fill="#FFFFFF" d="M787.6,400.1c0,151.6-122.9,274.4-274.5,274.4c-151.6,0-274.4-122.9-274.4-274.4
		c0-151.6,122.9-274.5,274.4-274.5C664.7,125.6,787.6,248.5,787.6,400.1z"/>
	<path fill="#404040" d="M760.4,400.1c0,136.5-110.7,247.2-247.3,247.2c-136.5,0-247.2-110.7-247.2-247.2
		c0-136.5,110.7-247.2,247.2-247.2C649.7,152.8,760.4,263.5,760.4,400.1z"/>
	<g>
		<polygon fill="#282C30" points="425.5,443.8 488.1,443.8 425.5,333.2 		"/>
		<path fill="#282C30" d="M679.2,516.2h-25.7c-0.7,25.2-21.3,45.3-46.6,45.3c-25.3,0-45.9-20.2-46.6-45.3h-93.8
			c-0.7,25.2-21.3,45.3-46.6,45.3c-25.3,0-45.9-20.2-46.6-45.3h-33.5c-4.7,0-8.4-3.8-8.4-8.4v-55.6c0-4.7,3.8-8.4,8.4-8.4h18.8h16.8
			h25.9V322.4c-3.1,1-6.3,1.7-9.7,1.7c-0.7,0-1.3-0.2-1.9-0.2l-4.3,11.4c9.8,7.9,14,21.5,9.3,33.9c-2.8,7.5-8.4,13.3-15.7,16.6
			c-3.9,1.7-8,2.6-12.2,2.6c-3.6,0-7.2-0.6-10.6-2c-8-3-14.4-9.4-17.3-17.5c-1.8-4.7,0.6-9.9,5.3-11.7c4.7-1.7,9.9,0.6,11.7,5.4
			c1.2,3.1,3.6,5.6,6.8,6.8c2.9,1.1,6.1,1,8.9-0.2c2.9-1.3,5-3.6,6.1-6.5c2.3-6-0.8-12.7-6.8-15c-2.2-0.9-4.1-2.6-5.1-4.8
			c-1-2.2-1-4.7-0.2-6.9l6.9-18c-8.5-6-14.2-15.9-14.2-27.1c0-5.7,1.5-11.1,4-15.7l-94.5,94.5c-1.2,10-1.9,20.2-1.9,30.5
			c0,136.5,110.7,247.2,247.2,247.2c13.5,0,26.7-1.1,39.6-3.2l128.1-128.1C680.3,516.2,679.7,516.2,679.2,516.2z"/>
		<polygon fill="#282C30" points="558.3,329.6 558.3,420.3 655.4,420.3 617.2,329.6 		"/>
		<path fill="#282C30" d="M420,491.7c-12.9,0-23.3,10.4-23.3,23.3c0,12.8,10.5,23.3,23.3,23.3c12.9,0,23.3-10.4,23.3-23.3
			C443.3,502.1,432.9,491.7,420,491.7z"/>
		<path fill="#282C30" d="M617.2,494c-3.1-1.5-6.6-2.3-10.2-2.3c-12.9,0-23.3,10.4-23.3,23.3c0,0.4,0,0.8,0,1.2
			c0.6,12.3,10.8,22,23.3,22c8.1,0,15.2-4.1,19.4-10.4c2.3-3.4,3.7-7.4,3.9-11.7c0-0.4,0-0.8,0-1.2
			C630.2,505.7,624.9,497.8,617.2,494z"/>
	</g>
	<path fill="#F07730" d="M686.9,419.6l-50.5-113c-1.3-3-4.4-5-7.7-5h-23.9c-0.4-13.2-11.2-23.8-24.4-23.8
		c-13.2,0-24.1,10.6-24.4,23.8h-32.2c-4.6,0-8.4,3.7-8.4,8.4v23.3l0,16.8v92.5c-19.8-34.9-92.3-162.5-92.5-163
		c-6.4-12.3-16.8-22.3-31.2-22.3c-18.3,0-33.2,14.9-33.2,33.3c0,11.2,5.6,21.1,14.2,27.1l-6.9,18c-0.8,2.2-0.8,4.7,0.2,6.9
		c1,2.2,2.8,3.9,5.1,4.8c6,2.3,9,9,6.8,15c-1.1,2.9-3.3,5.2-6.1,6.5c-2.8,1.3-6,1.4-8.9,0.2c-3.1-1.2-5.6-3.7-6.8-6.8
		c-1.8-4.7-7-7.1-11.7-5.4c-4.7,1.8-7.1,7-5.3,11.7c3,8,9.3,14.4,17.3,17.5c3.4,1.3,7,2,10.6,2c4.1,0,8.3-0.9,12.2-2.6
		c7.3-3.3,12.8-9.2,15.7-16.6c4.7-12.4,0.6-26-9.3-33.9l4.3-11.4c0.6,0,1.2,0.2,1.9,0.2c3.4,0,6.6-0.7,9.7-1.7v121.4h-25.9h-16.8
		h-18.8c-4.7,0-8.4,3.7-8.4,8.4v55.6c0,4.6,3.8,8.4,8.4,8.4h33.5c0.7,25.2,21.3,45.3,46.6,45.3c25.3,0,45.9-20.2,46.6-45.3h93.8
		c0.7,25.2,21.3,45.3,46.6,45.3c25.3,0,45.9-20.2,46.6-45.3h25.7c4.6,0,8.4-3.8,8.4-8.4v-84.7C687.6,421.8,687.4,420.7,686.9,419.6z
		 M420,538.2c-12.9,0-23.3-10.4-23.3-23.3c0-12.9,10.5-23.3,23.3-23.3c12.9,0,23.3,10.4,23.3,23.3
		C443.3,527.8,432.9,538.2,420,538.2z M425.5,443.8V333.2l62.6,110.6H425.5z M630.2,516.2c-0.2,4.3-1.6,8.3-3.9,11.7
		c-4.2,6.3-11.3,10.4-19.4,10.4c-12.4,0-22.6-9.7-23.3-22c0-0.4,0-0.8,0-1.2c0-12.9,10.5-23.3,23.3-23.3c3.7,0,7.1,0.8,10.2,2.3
		c7.7,3.8,13.1,11.7,13.1,21C630.2,515.4,630.2,515.8,630.2,516.2z M558.3,420.3v-90.7h58.9l38.2,90.7H558.3z"/>
	<path fill="#F07730" d="M430.9,514.9c0,6-4.9,10.9-10.9,10.9c-6,0-10.9-4.9-10.9-10.9c0-6,4.9-10.9,10.9-10.9
		C426,504,430.9,508.9,430.9,514.9z"/>
	<path fill="#F07730" d="M617.8,514.9c0,6-4.9,10.9-10.9,10.9c-6,0-10.9-4.9-10.9-10.9c0-6,4.9-10.9,10.9-10.9
		C612.9,504,617.8,508.9,617.8,514.9z"/>
	<path fill="#282C30" d="M549.4,264.5c-2.9,2.9-2.9,7.7,0,10.6c2.9,2.9,7.7,2.9,10.6,0c8-8,21.1-8,29.1,0c2.9,2.9,7.7,2.9,10.6,0
		c2.9-2.9,2.9-7.7,0-10.6C585.8,250.7,563.2,250.7,549.4,264.5L549.4,264.5z M549.4,264.5"/>
	<path fill="#282C30" d="M532.7,242.1c-2.9,2.9-2.9,7.7,0,10.6c2.9,2.9,7.7,2.9,10.6,0c17.2-17.2,45.2-17.2,62.4,0
		c2.9,2.9,7.7,2.9,10.6,0c2.9-2.9,2.9-7.7,0-10.6C593.3,219,555.7,219,532.7,242.1L532.7,242.1z M532.7,242.1"/>
	<path fill="#282C30" d="M513.4,220.7c-2.9,2.9-2.9,7.7,0,10.6c2.9,2.9,7.7,2.9,10.6,0c28.4-28.4,74.7-28.4,103.1,0
		c2.9,2.9,7.7,2.9,10.6,0c2.9-2.9,2.9-7.7,0-10.6C603.4,186.4,547.6,186.4,513.4,220.7L513.4,220.7z M513.4,220.7"/>
	<path fill="#F07730" d="M554,255.3c-2.9,2.9-2.9,7.7,0,10.6c2.9,2.9,7.7,2.9,10.6,0c8-8,21.1-8,29.1,0c2.9,2.9,7.7,2.9,10.6,0
		c2.9-2.9,2.9-7.7,0-10.6C590.4,241.5,567.8,241.5,554,255.3L554,255.3z M554,255.3"/>
	<path fill="#F07730" d="M537.3,232.9c-2.9,2.9-2.9,7.7,0,10.6c2.9,2.9,7.7,2.9,10.6,0c17.2-17.2,45.2-17.2,62.4,0
		c2.9,2.9,7.7,2.9,10.6,0c2.9-2.9,2.9-7.7,0-10.6C597.9,209.8,560.3,209.8,537.3,232.9L537.3,232.9z M537.3,232.9"/>
	<path fill="#F07730" d="M518,211.5c-2.9,2.9-2.9,7.7,0,10.6c2.9,2.9,7.7,2.9,10.6,0c28.4-28.4,74.7-28.4,103.1,0
		c2.9,2.9,7.7,2.9,10.6,0c2.9-2.9,2.9-7.7,0-10.6C608,177.2,552.3,177.2,518,211.5L518,211.5z M518,211.5"/>
	<g>
		<g>
			<g>
				<polygon fill="#F07730" points="0.1,765.3 42.2,765.3 42.2,884.4 62.2,884.4 62.2,765.3 104,765.3 104,745 0.1,745 				"/>
				<path fill="#F07730" d="M199.7,842.2c0,15.3-16.5,23-30.9,23c-14.7,0-31.1-7.5-31.1-22.8v-97.1h-20.2v96.9c0,28.3,27,43,51.3,43
					c23.8,0,51.1-14.7,51.1-42.8v-97.1h-20.2V842.2z"/>
				<polygon fill="#F07730" points="281.2,747.8 226.1,891.5 239.4,891.5 294.9,747.8 				"/>
				<path fill="#FFFFFF" d="M355.2,837.4h51.3c-8.3,20.2-26.6,28.2-43.6,28.2c-27.2,0-48.2-21.6-48.2-50.9c0-29.1,21-50.4,48.2-50.4
					c17.6,0,39,8.1,44.6,30.5h21.4c-7.3-36.9-39.4-50.5-66-50.5c-38.3,0-68.2,29.3-68.2,70.4c0,40.8,29.3,70.2,68.2,70.2
					c25.2,0,53.7-17.1,63.2-43.6v0.2c1.8-4.6,2.8-12.3,3.8-24h-74.7V837.4z"/>
				<path fill="#FFFFFF" d="M540.9,789.2c0-22-15.1-44.2-45.2-44.2h-50.5v138.7H465V765.3h30.7c16.8,0,25.2,12.1,25.2,24
					c0,12.1-8.3,24.2-25.2,24.2h-23.4v9.5l50.5,60.9h26L505,831.7C528.8,827.5,540.9,808.9,540.9,789.2z"/>
				<path fill="#FFFFFF" d="M636,842.2c0,15.3-16.5,23-30.9,23c-14.7,0-31.1-7.5-31.1-22.8v-97.1h-20.2v96.9c0,28.3,26.9,43,51.3,43
					c23.8,0,51.1-14.7,51.1-42.8v-97.1H636V842.2z"/>
				<polygon fill="#FFFFFF" points="693.5,824.5 756.3,824.5 756.3,804.3 693.5,804.3 693.5,765.3 757.7,765.3 757.7,745.2 
					673.3,745.2 673.3,883.8 757.9,883.8 757.9,863.8 693.5,863.8 				"/>
				<path fill="#FFFFFF" d="M866.7,789.2c0-22-15.1-44.2-45.2-44.2H771v138.7h19.8V765.3h30.7c16.8,0,25.2,12.1,25.2,24
					c0,12.1-8.3,24.2-25.2,24.2h-23.4v9.5l50.5,60.9h26l-43.8-52.1C854.6,827.5,866.7,808.9,866.7,789.2z"/>
				<path fill="#FFFFFF" d="M996.3,764.3c-12.9-12.9-30.5-21-50.1-21c-19.4,0-37.3,8.1-49.9,21c-12.5,12.9-20.6,30.5-20.6,50.1
					c0,19.6,8.1,37.3,20.6,50.2c12.7,13.1,30.5,21,49.9,21c19.6,0,37.3-7.9,50.1-21c12.5-12.9,20.6-30.5,20.6-50.2
					C1016.9,794.8,1008.8,777.1,996.3,764.3z M982.1,850.3c-9.3,9.3-22.2,15.1-35.9,15.1s-26.4-5.7-35.5-15.1
					c-9.1-9.1-14.9-21.8-14.9-35.9c0-14.1,5.8-26.7,14.9-35.9c9.1-9.3,21.8-15.1,35.5-15.1s26.6,5.8,35.9,15.1
					c8.9,9.1,14.7,21.6,14.7,35.9C996.7,828.7,991,841.2,982.1,850.3z"/>
			</g>
		</g>
		<path fill="#F07730" d="M968.1,815.2c0,12.1-9.8,21.8-21.8,21.8c-12.1,0-21.8-9.8-21.8-21.8c0-12.1,9.8-21.8,21.8-21.8
			C958.4,793.4,968.1,803.1,968.1,815.2z"/>
	</g>
</g>
</svg>
