<?xml version="1.0" encoding="utf-8"?>
<!-- Generator: Adobe Illustrator 15.0.0, SVG Export Plug-In . SVG Version: 6.00 Build 0)  -->
<!DOCTYPE svg PUBLIC "-//W3C//DTD SVG 1.1//EN" "http://www.w3.org/Graphics/SVG/1.1/DTD/svg11.dtd">
<svg version="1.1" id="Layer_1" xmlns="http://www.w3.org/2000/svg" xmlns:xlink="http://www.w3.org/1999/xlink" x="0px" y="0px"
	 width="246px" height="100px" viewBox="0 0 246 100" enable-background="new 0 0 246 100" xml:space="preserve">
<g>
	<path fill="#FFFFFF" d="M170.5,50.002c0,26.23-21.268,47.5-47.502,47.5c-26.231,0-47.498-21.27-47.498-47.5
		c0-26.236,21.267-47.504,47.498-47.504C149.232,2.498,170.5,23.767,170.5,50.002z"/>
	<path fill="#404040" d="M165.792,50.002c0,23.632-19.159,42.793-42.794,42.793c-23.628,0-42.79-19.161-42.79-42.793
		c0-23.634,19.162-42.792,42.79-42.792C146.633,7.21,165.792,26.369,165.792,50.002z"/>
	<g>
		<polygon fill="#282C30" points="107.833,57.568 118.665,57.568 107.833,38.426 		"/>
		<path fill="#282C30" d="M151.734,70.104h-4.444c-0.116,4.354-3.679,7.85-8.062,7.85c-4.387,0-7.946-3.496-8.066-7.85h-16.228
			c-0.117,4.354-3.679,7.85-8.062,7.85c-4.382,0-7.944-3.496-8.061-7.85h-5.806c-0.81,0-1.461-0.653-1.461-1.455v-9.623
			c0-0.807,0.651-1.455,1.461-1.455h3.248h2.913h4.476V36.555c-0.539,0.169-1.095,0.286-1.687,0.286
			c-0.115,0-0.219-0.03-0.331-0.036l-0.748,1.97c1.701,1.362,2.421,3.716,1.607,5.863c-0.493,1.292-1.452,2.309-2.71,2.879
			c-0.675,0.298-1.393,0.451-2.11,0.451c-0.619,0-1.241-0.112-1.834-0.34c-1.389-0.527-2.484-1.629-3.002-3.021
			c-0.305-0.811,0.108-1.72,0.925-2.022c0.816-0.302,1.718,0.11,2.022,0.928c0.199,0.541,0.629,0.974,1.171,1.176
			c0.496,0.194,1.048,0.179,1.538-0.042c0.495-0.222,0.866-0.618,1.061-1.123c0.392-1.037-0.134-2.2-1.172-2.594
			c-0.388-0.152-0.703-0.444-0.875-0.827c-0.172-0.38-0.182-0.815-0.035-1.202l1.188-3.122c-1.477-1.037-2.452-2.754-2.452-4.691
			c0-0.99,0.252-1.913,0.688-2.726L80.533,44.721c-0.214,1.728-0.325,3.49-0.325,5.281c0,23.632,19.162,42.793,42.79,42.793
			c2.335,0,4.62-0.193,6.852-0.551l22.17-22.17C151.928,70.094,151.83,70.104,151.734,70.104z"/>
		<polygon fill="#282C30" points="130.816,37.812 130.816,53.502 147.611,53.502 141.004,37.812 		"/>
		<path fill="#282C30" d="M106.872,65.854c-2.227,0-4.036,1.805-4.036,4.035c0,2.223,1.81,4.028,4.036,4.028
			c2.23,0,4.033-1.806,4.033-4.028C110.905,67.656,109.102,65.854,106.872,65.854z"/>
		<path fill="#282C30" d="M141.001,66.261c-0.537-0.264-1.136-0.407-1.772-0.407c-2.227,0-4.035,1.805-4.035,4.035
			c0,0.067,0.002,0.143,0.01,0.215c0.111,2.129,1.872,3.813,4.025,3.813c1.396,0,2.629-0.711,3.354-1.793
			c0.395-0.581,0.636-1.276,0.675-2.021c0.005-0.073,0.005-0.146,0.005-0.215C143.26,68.288,142.342,66.918,141.001,66.261z"/>
	</g>
	<path fill="#F07730" d="M153.064,53.38l-8.746-19.556c-0.23-0.526-0.754-0.861-1.327-0.861h-4.134
		c-0.061-2.285-1.931-4.122-4.227-4.122c-2.294,0-4.167,1.837-4.227,4.122h-5.572c-0.807,0-1.459,0.649-1.459,1.456v4.038
		l0.005,2.916v16.018c-3.432-6.045-15.978-28.125-16.018-28.206c-1.112-2.124-2.899-3.855-5.406-3.855
		c-3.17,0-5.753,2.584-5.753,5.757c0,1.937,0.975,3.654,2.452,4.691L97.466,38.9c-0.147,0.387-0.137,0.821,0.035,1.202
		c0.172,0.383,0.487,0.675,0.875,0.827c1.038,0.394,1.564,1.558,1.172,2.594c-0.195,0.505-0.566,0.901-1.061,1.123
		c-0.49,0.221-1.042,0.237-1.538,0.042c-0.542-0.202-0.972-0.635-1.171-1.176c-0.304-0.817-1.207-1.229-2.022-0.928
		c-0.817,0.302-1.23,1.211-0.925,2.022c0.518,1.393,1.613,2.495,3.002,3.021c0.594,0.228,1.216,0.34,1.834,0.34
		c0.717,0,1.435-0.152,2.11-0.451c1.258-0.57,2.217-1.587,2.71-2.879c0.814-2.147,0.094-4.501-1.607-5.863l0.748-1.97
		c0.111,0.006,0.215,0.036,0.331,0.036c0.592,0,1.148-0.117,1.687-0.286v21.014H99.17h-2.913h-3.248
		c-0.81,0-1.461,0.647-1.461,1.455v9.623c0,0.801,0.651,1.455,1.461,1.455h5.806c0.116,4.353,3.679,7.849,8.061,7.849
		c4.383,0,7.945-3.496,8.062-7.849h16.228c0.12,4.353,3.682,7.849,8.066,7.849c4.384,0,7.943-3.496,8.062-7.849h4.444
		c0.803,0,1.457-0.654,1.457-1.455V53.98C153.191,53.771,153.148,53.574,153.064,53.38z M106.872,73.917
		c-2.227,0-4.036-1.806-4.036-4.028c0-2.23,1.81-4.035,4.036-4.035c2.23,0,4.033,1.805,4.033,4.035
		C110.905,72.111,109.102,73.917,106.872,73.917z M107.833,57.568V38.426l10.831,19.143H107.833L107.833,57.568z M143.255,70.104
		c-0.039,0.744-0.28,1.439-0.675,2.021c-0.725,1.082-1.956,1.793-3.352,1.793c-2.155,0-3.916-1.686-4.027-3.813
		c-0.006-0.074-0.01-0.146-0.01-0.215c0-2.231,1.811-4.035,4.037-4.035c0.637,0,1.233,0.145,1.771,0.406
		c1.341,0.657,2.259,2.027,2.259,3.629C143.26,69.956,143.26,70.029,143.255,70.104z M130.816,53.502v-15.69h10.188l6.607,15.69
		H130.816z"/>
	<circle fill="#F07730" cx="106.872" cy="69.885" r="1.89"/>
	<circle fill="#F07730" cx="139.227" cy="69.885" r="1.89"/>
	<path fill="#282C30" d="M129.27,26.543c-0.51,0.507-0.508,1.328,0,1.834c0.504,0.508,1.328,0.508,1.832,0.001
		c1.391-1.388,3.646-1.388,5.033-0.001c0.506,0.508,1.329,0.508,1.834,0.001c0.51-0.507,0.508-1.328,0-1.835
		C135.57,24.146,131.667,24.144,129.27,26.543L129.27,26.543z"/>
	<path fill="#282C30" d="M126.381,22.658c-0.507,0.507-0.505,1.331,0,1.837c0.508,0.503,1.327,0.503,1.835,0
		c2.979-2.979,7.827-2.979,10.806,0c0.508,0.503,1.326,0.504,1.834,0c0.506-0.506,0.506-1.328,0-1.836
		C136.865,18.669,130.371,18.667,126.381,22.658L126.381,22.658z"/>
	<path fill="#282C30" d="M123.04,18.953c-0.507,0.506-0.507,1.328,0,1.834s1.328,0.506,1.833,0c4.92-4.921,12.926-4.919,17.844,0
		c0.51,0.506,1.329,0.506,1.834,0c0.51-0.505,0.51-1.328,0.002-1.833C138.62,13.023,128.969,13.023,123.04,18.953L123.04,18.953z"/>
	<path fill="#F07730" d="M130.063,24.95c-0.506,0.507-0.506,1.328,0,1.834c0.506,0.508,1.33,0.508,1.836,0
		c1.391-1.388,3.646-1.388,5.033,0c0.506,0.508,1.324,0.508,1.832,0c0.508-0.507,0.508-1.327,0-1.834
		C136.366,22.554,132.462,22.551,130.063,24.95L130.063,24.95z"/>
	<path fill="#F07730" d="M127.178,21.066c-0.507,0.505-0.505,1.329,0,1.835c0.508,0.505,1.329,0.505,1.834,0
		c2.979-2.981,7.827-2.981,10.807,0c0.508,0.505,1.328,0.505,1.834,0c0.508-0.507,0.508-1.329,0.002-1.835
		C137.66,17.076,131.166,17.076,127.178,21.066L127.178,21.066z"/>
	<path fill="#F07730" d="M123.835,17.36c-0.507,0.505-0.507,1.328,0,1.833c0.509,0.508,1.329,0.508,1.836,0
		c4.919-4.921,12.925-4.919,17.845,0c0.508,0.509,1.326,0.509,1.832,0c0.508-0.505,0.508-1.327,0.002-1.832
		C139.418,11.429,129.77,11.429,123.835,17.36L123.835,17.36z"/>
</g>
</svg>
