<?xml version="1.0" encoding="utf-8"?>
<!-- Generator: Adobe Illustrator 15.0.0, SVG Export Plug-In . SVG Version: 6.00 Build 0)  -->
<!DOCTYPE svg PUBLIC "-//W3C//DTD SVG 1.1//EN" "http://www.w3.org/Graphics/SVG/1.1/DTD/svg11.dtd">
<svg version="1.1" id="Layer_1" xmlns="http://www.w3.org/2000/svg" xmlns:xlink="http://www.w3.org/1999/xlink" x="0px" y="0px"
	 width="246px" height="100px" viewBox="0 0 246 100" enable-background="new 0 0 246 100" xml:space="preserve">
<path fill="#CCCCCC" d="M172.425,36.52c-0.488-0.607-1.216-0.94-1.979-0.94h-9.743c-2.411-6.333-5.528-12.547-9.077-14.88
	c-12.313-8.098-44.934-8.098-57.247,0c-3.548,2.333-6.685,8.547-9.096,14.88h-9.724c-0.783,0-1.508,0.353-1.979,0.94
	c-0.49,0.607-0.687,1.373-0.528,2.138l1.45,6.979c0.235,1.196,1.294,2.039,2.509,2.039h2.883c-2.785,3.217-4.136,7.274-4.156,11.314
	c-0.02,5,1.882,9.509,5.352,12.702c0.04,0.021,0.079,0.062,0.118,0.08v9.779c0,2.1,1.706,3.823,3.843,3.823h8.979
	c2.116,0,3.843-1.728,3.843-3.823V77.63h50.287v3.921c0,2.098,1.706,3.823,3.843,3.823h8.979c2.101,0,3.846-1.726,3.846-3.823
	v-9.605c3.666-3.354,5.431-7.995,5.47-12.625c0.021-4.176-1.396-8.368-4.354-11.663h3.078c1.218,0,2.254-0.843,2.512-2.039
	l1.433-6.979C173.091,37.911,172.894,37.126,172.425,36.52L172.425,36.52z M98.614,27.108c9.802-6.45,38.994-6.45,48.775,0
	c1.922,1.255,4.354,6.313,6.588,12.488H92.005C94.242,33.421,96.691,28.364,98.614,27.108L98.614,27.108z M87.105,59.945
	c0-4.155,3.392-7.547,7.548-7.547c4.176,0,7.568,3.392,7.568,7.547c0,4.177-3.393,7.568-7.568,7.568
	C90.497,67.514,87.105,64.122,87.105,59.945L87.105,59.945z M151.431,67.514c-4.156,0-7.55-3.392-7.55-7.563
	c0-4.156,3.394-7.552,7.55-7.552c4.176,0,7.564,3.396,7.564,7.552C158.978,64.122,155.603,67.514,151.431,67.514L151.431,67.514z"/>
</svg>
