<?xml version="1.0" encoding="utf-8"?>
<!-- Generator: Adobe Illustrator 15.0.0, SVG Export Plug-In . SVG Version: 6.00 Build 0)  -->
<!DOCTYPE svg PUBLIC "-//W3C//DTD SVG 1.1//EN" "http://www.w3.org/Graphics/SVG/1.1/DTD/svg11.dtd">
<svg version="1.1" id="Layer_1" xmlns="http://www.w3.org/2000/svg" xmlns:xlink="http://www.w3.org/1999/xlink" x="0px" y="0px"
	 width="60px" height="60px" viewBox="0 0 60 60" enable-background="new 0 0 60 60" xml:space="preserve">
<defs>
	<filter id="Adobe_OpacityMaskFilter" filterUnits="userSpaceOnUse" x="0" y="0" width="60" height="60">
		<feColorMatrix  type="matrix" values="1 0 0 0 0  0 1 0 0 0  0 0 1 0 0  0 0 0 1 0"/>
	</filter>
</defs>
<mask maskUnits="userSpaceOnUse" x="0" y="0" width="60" height="60" id="SVGID_1_">
	<g filter="url(#Adobe_OpacityMaskFilter)">
		<g>
			<radialGradient id="SVGID_2_" cx="30" cy="30" r="30" gradientUnits="userSpaceOnUse">
				<stop  offset="0" style="stop-color:#000000"/>
				<stop  offset="0.3726" style="stop-color:#020202"/>
				<stop  offset="0.5069" style="stop-color:#090909"/>
				<stop  offset="0.6026" style="stop-color:#141414"/>
				<stop  offset="0.68" style="stop-color:#252525"/>
				<stop  offset="0.7463" style="stop-color:#3B3B3B"/>
				<stop  offset="0.805" style="stop-color:#575757"/>
				<stop  offset="0.8581" style="stop-color:#777777"/>
				<stop  offset="0.9069" style="stop-color:#9D9D9D"/>
				<stop  offset="0.9523" style="stop-color:#C8C8C8"/>
				<stop  offset="0.9926" style="stop-color:#F6F6F6"/>
				<stop  offset="1" style="stop-color:#FFFFFF"/>
			</radialGradient>
			<circle fill="url(#SVGID_2_)" cx="30" cy="30" r="30"/>
		</g>
	</g>
</mask>
<g mask="url(#SVGID_1_)">
	<circle fill="#FFFFFF" cx="30" cy="30" r="30"/>
</g>
<g>
	<g>
		<path fill="#FFFFFF" d="M30,3c14.888,0,27,12.112,27,27S44.888,57,30,57S3,44.888,3,30S15.112,3,30,3 M30,0
			C13.432,0,0,13.432,0,30c0,16.569,13.432,30,30,30c16.569,0,30-13.431,30-30C60,13.432,46.569,0,30,0L30,0z"/>
	</g>
</g>
<g>
	<path fill="#3097F0" d="M30,12.5c-9.648,0-17.5,7.852-17.5,17.5S20.352,47.5,30,47.5S47.5,39.648,47.5,30S39.648,12.5,30,12.5
		L30,12.5z M30,42.428c-6.863,0-12.428-5.564-12.428-12.428c0-6.867,5.564-12.432,12.428-12.432c6.867,0,12.432,5.564,12.432,12.432
		C42.428,36.863,36.863,42.428,30,42.428L30,42.428z"/>
	<path fill="#3097F0" d="M30,19.179c-5.968,0-10.821,4.854-10.821,10.821S24.032,40.818,30,40.818s10.821-4.854,10.821-10.822
		C40.818,24.032,35.965,19.179,30,19.179L30,19.179z M39.434,29.31h-5.25c-0.105-0.663-0.369-1.278-0.748-1.798l3.705-3.705
		C38.442,25.304,39.283,27.215,39.434,29.31L39.434,29.31z M30.68,20.563c2.096,0.15,4.003,0.984,5.504,2.283l-3.705,3.705
		c-0.523-0.375-1.135-0.639-1.799-0.744V20.563z M29.32,20.563v5.24c-0.664,0.105-1.275,0.369-1.799,0.745l-3.705-3.702
		C25.314,21.551,27.225,20.713,29.32,20.563L29.32,20.563z M22.854,23.807l3.708,3.705c-0.376,0.52-0.64,1.135-0.745,1.798h-5.25
		C20.713,27.215,21.555,25.304,22.854,23.807L22.854,23.807z M20.563,30.666h5.254c0.105,0.664,0.369,1.275,0.748,1.799
		l-3.722,3.719C21.544,34.68,20.71,32.769,20.563,30.666L20.563,30.666z M29.32,39.434c-2.103-0.146-4.014-0.988-5.518-2.29
		l3.719-3.719c0.523,0.38,1.135,0.64,1.799,0.749V39.434L29.32,39.434z M29.32,32.775v0.01c-0.295-0.071-0.568-0.188-0.817-0.338
		l0.003-0.007c-0.393-0.239-0.721-0.567-0.96-0.96l-0.007,0.006c-0.154-0.249-0.27-0.525-0.338-0.816h0.01
		c-0.055-0.219-0.086-0.444-0.086-0.68c0-0.236,0.031-0.462,0.086-0.681h-0.01c0.071-0.294,0.184-0.567,0.338-0.817l0.007,0.008
		c0.239-0.391,0.567-0.722,0.96-0.961l-0.003-0.007c0.249-0.153,0.522-0.271,0.817-0.339v0.011c0.215-0.052,0.443-0.082,0.676-0.082
		s0.462,0.03,0.681,0.082v-0.011c0.294,0.072,0.567,0.186,0.817,0.339l-0.004,0.007c0.39,0.239,0.721,0.57,0.961,0.961l0.003-0.008
		c0.153,0.25,0.271,0.523,0.342,0.817h-0.011c0.055,0.219,0.086,0.444,0.086,0.681c0,0.232-0.031,0.461-0.086,0.68h0.011
		c-0.071,0.291-0.188,0.567-0.342,0.816l-0.003-0.006c-0.24,0.393-0.571,0.721-0.961,0.96l0.004,0.007
		c-0.254,0.15-0.527,0.27-0.817,0.338v-0.01c-0.219,0.055-0.444,0.082-0.681,0.082C29.761,32.857,29.539,32.83,29.32,32.775
		L29.32,32.775z M30.68,39.434V34.17c0.664-0.105,1.275-0.369,1.799-0.748l3.719,3.719C34.693,38.445,32.782,39.287,30.68,39.434
		L30.68,39.434z M37.154,36.184l-3.719-3.719c0.379-0.523,0.643-1.135,0.748-1.799h5.25C39.29,32.769,38.453,34.68,37.154,36.184
		L37.154,36.184z"/>
</g>
</svg>
