<?xml version="1.0" encoding="utf-8"?>
<!-- Generator: Adobe Illustrator 15.0.0, SVG Export Plug-In . SVG Version: 6.00 Build 0)  -->
<!DOCTYPE svg PUBLIC "-//W3C//DTD SVG 1.1//EN" "http://www.w3.org/Graphics/SVG/1.1/DTD/svg11.dtd">
<svg version="1.1" id="Layer_1" xmlns="http://www.w3.org/2000/svg" xmlns:xlink="http://www.w3.org/1999/xlink" x="0px" y="0px"
	 width="246px" height="100px" viewBox="0 0 246 100" enable-background="new 0 0 246 100" xml:space="preserve">
<g>
	<path fill="#CCCCCC" d="M165.684,59.4c-1.398,0-2.5,1.1-2.5,2.5v11c0,0.5-0.398,0.8-0.801,0.8c-0.5,0-0.898-0.4-0.898-0.8v-16
		c0-1.4-1.102-2.5-2.5-2.5c-1.399,0-2.5,1.1-2.5,2.5V71.3c0,0.5-0.399,0.8-0.801,0.8c-0.5,0-0.898-0.397-0.898-0.8V55.2
		c0-1.4-1.102-2.5-2.5-2.5c-1.4,0-2.5,1.1-2.5,2.5v16.1c0,0.5-0.4,0.8-0.9,0.8s-0.8-0.397-0.8-0.8V58.6c0-1.397-1.101-2.5-2.5-2.5
		s-2.5,1.103-2.5,2.5v21.2l-3.399-4.7c-1-1.6-3-2.1-4.5-1.199c-1.4,0.899-1.801,2.899-0.801,4.5c0,0,5.5,8.398,7.899,11.898
		c2.399,3.602,6.2,6.401,13.3,6.401c11.801,0,12.9-9.101,12.9-11.9V62C168.283,60.6,167.184,59.4,165.684,59.4z"/>
	<path fill="#CCCCCC" d="M139.684,91.9c-2.399-3.602-7.899-11.9-7.899-11.9l0,0l0,0c-0.899-1.4-1.2-3.2-0.899-4.8
		c0.301-1.5,1.199-2.8,2.602-3.7c0.898-0.6,2-0.9,3.1-0.9c1.301,0,2.5,0.4,3.5,1.103V59.9l-0.398-0.7l-3.401-3.3
		c-4,3.3-8.8,5.199-14.1,5.199c-4.9,0-9.6-1.699-13.4-4.699l-4.9,4.699h-9.5c-4.4,0-7.8,1.5-10.5,4.602c-7.8,9-6.5,28.398-5.9,34.3
		h51.2h16.699v-2.5C143.383,96.2,141.383,94.3,139.684,91.9z"/>
	<path fill="#CCCCCC" d="M141.184,41c2.5-0.5,4.801-2.6,5.199-7.2c0.301-3.8-0.699-5.7-2.1-6.7c4-16.2-7-19.4-7-19.4
		s-8.1-14-24.1-4.2c-2,1.2-5.2,3.6-7.1,6.1c-3,3.2-5.1,8.4-5.4,16.9c-2,0.7-3.5,2.6-3.1,7.2c0.4,4.8,2.9,6.9,5.6,7.3
		c3.6,8.7,10.7,15.9,19,15.9C130.583,56.9,137.684,49.7,141.184,41L141.184,41z M122.184,52.9c-9.7,0-17.5-13.103-17.5-24
		c0-1.5,0-2.9,0.1-4.2c14.2,0.6,22.5-5.1,27.099-10c4.301,4.3,6.602,9.7,7.7,13.8c0,0.1,0,0.2,0,0.4
		C139.684,39.7,131.883,52.9,122.184,52.9L122.184,52.9z"/>
</g>
</svg>
