<?xml version="1.0" encoding="utf-8"?>
<!-- Generator: Adobe Illustrator 15.0.0, SVG Export Plug-In . SVG Version: 6.00 Build 0)  -->
<!DOCTYPE svg PUBLIC "-//W3C//DTD SVG 1.1//EN" "http://www.w3.org/Graphics/SVG/1.1/DTD/svg11.dtd">
<svg version="1.1" id="Layer_1" xmlns="http://www.w3.org/2000/svg" xmlns:xlink="http://www.w3.org/1999/xlink" x="0px" y="0px"
	 width="246px" height="100px" viewBox="0 0 246 100" enable-background="new 0 0 246 100" xml:space="preserve">
<g>
	<path fill="#CCCCCC" d="M170.202,62.227l-13.447-30.068c-0.359-0.813-1.164-1.321-2.045-1.321h-6.35
		c-0.099-3.514-2.965-6.341-6.498-6.341c-3.523,0-6.41,2.827-6.498,6.341h-8.572c-1.232,0-2.24,0.998-2.24,2.23v6.214l0.01,4.482
		v24.631C119.27,59.105,99.979,25.148,99.92,25.02c-1.712-3.269-4.462-5.93-8.317-5.93c-4.873,0-8.847,3.973-8.847,8.856
		c0,2.975,1.497,5.616,3.769,7.212l-1.83,4.805c-0.225,0.597-0.215,1.262,0.049,1.85c0.265,0.587,0.744,1.037,1.341,1.272
		c1.596,0.606,2.407,2.396,1.802,3.993c-0.305,0.772-0.871,1.39-1.635,1.731c-0.754,0.342-1.604,0.362-2.368,0.06
		c-0.832-0.313-1.497-0.979-1.801-1.811c-0.47-1.253-1.858-1.889-3.111-1.429c-1.233,0.46-1.869,1.859-1.399,3.102
		c0.792,2.144,2.476,3.835,4.619,4.648c0.91,0.354,1.869,0.52,2.817,0.52c1.106,0,2.213-0.231,3.239-0.69
		c1.938-0.881,3.405-2.438,4.168-4.423c1.253-3.299,0.147-6.918-2.466-9.014l1.155-3.034c0.167,0.011,0.333,0.06,0.509,0.06
		c0.91,0,1.761-0.176,2.593-0.44V68.67h-6.879h-4.483h-4.991c-1.243,0-2.25,0.998-2.25,2.24v14.797c0,1.23,0.998,2.229,2.25,2.229
		h8.925C86.956,94.629,92.436,100,99.177,100c6.741,0,12.222-5.371,12.397-12.064h24.956c0.186,6.693,5.656,12.064,12.397,12.064
		c6.74,0,12.224-5.371,12.396-12.064h6.829c1.234,0,2.242-1.008,2.242-2.229V63.158C170.397,62.834,170.329,62.529,170.202,62.227z
		 M99.167,93.805c-3.425,0-6.204-2.779-6.204-6.193c0-3.436,2.779-6.2,6.204-6.2s6.204,2.771,6.204,6.2
		C105.371,91.035,102.59,93.805,99.167,93.805z M100.645,68.676V39.23l16.654,29.436h-16.654V68.676z M155.112,87.943
		c-0.063,1.146-0.432,2.213-1.037,3.111c-1.107,1.661-3.006,2.76-5.158,2.76c-3.316,0-6.018-2.592-6.193-5.859
		c-0.01-0.107-0.01-0.227-0.01-0.334c0-3.436,2.779-6.203,6.203-6.203c0.98,0,1.898,0.225,2.73,0.625
		c2.055,1.008,3.475,3.123,3.475,5.578C155.122,87.719,155.122,87.826,155.112,87.943z M135.991,62.412V38.291h15.666l10.158,24.122
		L135.991,62.412L135.991,62.412z"/>
	<path fill="#CCCCCC" d="M102.074,87.611c0,1.604-1.301,2.906-2.906,2.906c-1.604,0-2.905-1.306-2.905-2.906
		c0-1.604,1.301-2.906,2.905-2.906C100.772,84.705,102.074,86.006,102.074,87.611z"/>
	<path fill="#CCCCCC" d="M151.823,87.611c0,1.604-1.301,2.906-2.906,2.906c-1.604,0-2.904-1.306-2.904-2.906
		c0-1.604,1.301-2.906,2.904-2.906C150.522,84.705,151.823,86.006,151.823,87.611z"/>
	<path fill="#CCCCCC" d="M134.825,18.514c-0.781,0.783-0.781,2.045,0,2.818c0.783,0.783,2.047,0.783,2.818,0
		c2.135-2.133,5.604-2.133,7.737,0c0.783,0.783,2.035,0.783,2.818,0c0.78-0.783,0.78-2.045,0-2.818
		C144.524,14.825,138.515,14.825,134.825,18.514L134.825,18.514z"/>
	<path fill="#CCCCCC" d="M130.394,12.536c-0.783,0.772-0.771,2.045,0,2.817c0.781,0.773,2.045,0.773,2.816,0
		c4.58-4.58,12.037-4.58,16.617,0c0.781,0.773,2.045,0.773,2.818,0c0.778-0.782,0.778-2.045,0-2.817
		C146.511,6.399,136.528,6.399,130.394,12.536L130.394,12.536z"/>
	<path fill="#CCCCCC" d="M125.255,6.84c-0.781,0.773-0.781,2.045,0,2.818c0.783,0.782,2.047,0.782,2.818,0
		c7.563-7.564,19.875-7.564,27.438,0c0.779,0.782,2.033,0.782,2.816,0c0.778-0.773,0.778-2.045,0-2.818
		C149.212-2.281,134.376-2.281,125.255,6.84L125.255,6.84z"/>
</g>
</svg>
