<?xml version="1.0" encoding="utf-8"?>
<!-- Generator: Adobe Illustrator 15.0.0, SVG Export Plug-In . SVG Version: 6.00 Build 0)  -->
<!DOCTYPE svg PUBLIC "-//W3C//DTD SVG 1.1//EN" "http://www.w3.org/Graphics/SVG/1.1/DTD/svg11.dtd">
<svg version="1.1" id="Layer_1" xmlns="http://www.w3.org/2000/svg" xmlns:xlink="http://www.w3.org/1999/xlink" x="0px" y="0px"
	 width="246px" height="100px" viewBox="0 0 246 100" enable-background="new 0 0 246 100" xml:space="preserve">
<g>
	<path fill="#CCCCCC" stroke="#666666" stroke-width="0.7086" stroke-miterlimit="10" d="M122.95,0.5c-19.5,0-35.4,15.9-35.4,35.4
		c0,18.3,26.5,38.2,34.2,62.7c0.2,0.5,0.7,0.9,1.2,0.9c0.6,0,1-0.4,1.2-0.9c7.399-25.1,34.3-44.3,34.3-62.7
		C158.35,16.4,142.45,0.5,122.95,0.5L122.95,0.5z"/>
	<path fill="#434343" stroke="#666666" stroke-width="0.7086" stroke-miterlimit="10" d="M122.95,62.8c-15.3,0-27.8-12.5-27.8-27.8
		s12.5-27.8,27.8-27.8s27.8,12.5,27.8,27.8S138.25,62.8,122.95,62.8L122.95,62.8z"/>
	<g>
		<path fill="#CCCCCC" stroke="#666666" stroke-width="0.7086" stroke-miterlimit="10" d="M122.95,23.6l-15.8,13c0,0,0,0,0,0.1v0.1
			V50c0,0.5,0.199,0.9,0.5,1.2c0.3,0.3,0.8,0.5,1.199,0.5h10.5V41.2h7v10.5h10.601c0.5,0,0.899-0.2,1.2-0.5c0.3-0.3,0.5-0.8,0.5-1.2
			V36.8c0-0.1,0-0.1,0-0.2L122.95,23.6z"/>
		<path fill="#CCCCCC" stroke="#666666" stroke-width="0.7086" stroke-miterlimit="10" d="M144.75,33.7l-6-5V17.5
			c0-0.3-0.1-0.5-0.2-0.6c-0.2-0.2-0.399-0.2-0.6-0.2h-5.3c-0.301,0-0.5,0.1-0.602,0.2c-0.199,0.2-0.199,0.4-0.199,0.6v5.3
			l-6.699-5.6c-0.602-0.5-1.301-0.7-2.101-0.7s-1.5,0.2-2.1,0.7l-19.8,16.5c-0.2,0.1-0.301,0.3-0.301,0.6c0,0.2,0,0.5,0.2,0.6l1.7,2
			c0.1,0.2,0.3,0.3,0.6,0.3c0.2,0,0.4,0,0.7-0.2l19-15.8l18.9,15.8c0.1,0.1,0.3,0.2,0.6,0.2h0.101c0.199,0,0.398-0.1,0.6-0.3l1.7-2
			c0.1-0.2,0.2-0.4,0.2-0.6C145.05,34,144.95,33.8,144.75,33.7z"/>
	</g>
</g>
</svg>
