<?xml version="1.0" encoding="utf-8"?>
<!-- Generator: Adobe Illustrator 15.0.0, SVG Export Plug-In . SVG Version: 6.00 Build 0)  -->
<!DOCTYPE svg PUBLIC "-//W3C//DTD SVG 1.1//EN" "http://www.w3.org/Graphics/SVG/1.1/DTD/svg11.dtd">
<svg version="1.1" id="Layer_1" xmlns="http://www.w3.org/2000/svg" xmlns:xlink="http://www.w3.org/1999/xlink" x="0px" y="0px"
	 width="246px" height="100px" viewBox="0 0 246 100" enable-background="new 0 0 246 100" xml:space="preserve">
<g>
	<path fill="#CCCCCC" d="M135.396,68.708V56.057c2.944-3.082,4.767-7.26,4.767-11.849c0-9.462-7.699-17.163-17.162-17.163
		c-9.472,0-17.163,7.701-17.163,17.163c0,4.589,1.82,8.767,4.765,11.849v12.651c-8.933-4.53-15.077-13.815-15.077-24.5
		c0-15.147,12.329-27.476,27.476-27.476c15.146,0,27.466,12.328,27.466,27.476C150.468,54.893,144.333,64.178,135.396,68.708
		L135.396,68.708z M89.097,44.208c0-18.689,15.206-33.895,33.904-33.895c18.688,0,33.896,15.205,33.896,33.895
		c0,14.315-8.936,26.576-21.506,31.546v10.891c18.375-5.371,31.816-22.355,31.816-42.437C167.208,19.833,147.376,0,123.001,0
		C98.627,0,78.793,19.833,78.793,44.208c0,20.079,13.454,37.063,31.82,42.437V75.754C98.021,70.783,89.097,58.521,89.097,44.208
		L89.097,44.208z M118.041,52.113V100h9.921V52.113c2.623-1.653,4.375-4.569,4.375-7.906c0-5.157-4.18-9.334-9.326-9.334
		c-5.156,0-9.334,4.178-9.334,9.334C113.668,47.534,115.418,50.46,118.041,52.113L118.041,52.113z"/>
</g>
</svg>
