<?xml version="1.0" encoding="utf-8"?>
<!-- Generator: Adobe Illustrator 15.0.0, SVG Export Plug-In . SVG Version: 6.00 Build 0)  -->
<!DOCTYPE svg PUBLIC "-//W3C//DTD SVG 1.1//EN" "http://www.w3.org/Graphics/SVG/1.1/DTD/svg11.dtd">
<svg version="1.1" id="Layer_1" xmlns="http://www.w3.org/2000/svg" xmlns:xlink="http://www.w3.org/1999/xlink" x="0px" y="0px"
	 width="246px" height="100px" viewBox="0 0 246 100" enable-background="new 0 0 246 100" xml:space="preserve">
<path fill="#CCCCCC" d="M158.001,14.999c-19.331-19.332-50.672-19.332-70.003,0c-19.331,19.331-19.331,50.671,0,70.003
	c19.332,19.331,50.671,19.331,70.003,0S177.333,34.331,158.001,14.999L158.001,14.999z M147.703,61.936
	c1.058,1.057,1.058,2.774,0,3.821l-8.938,8.939c-1.057,1.056-2.776,1.056-3.831,0l-11.94-11.939l-11.938,11.939
	c-1.057,1.056-2.766,1.056-3.823,0l-8.938-8.939c-1.056-1.057-1.056-2.775,0-3.821l11.938-11.94L98.294,38.059
	c-1.056-1.058-1.056-2.777,0-3.833l8.938-8.938c1.057-1.057,2.777-1.057,3.823,0l11.939,11.938l11.94-11.938
	c1.055-1.057,2.774-1.057,3.831,0l8.938,8.938c1.058,1.056,1.058,2.775,0,3.833l-11.938,11.937L147.703,61.936z"/>
</svg>
