<?xml version="1.0" encoding="utf-8"?>
<!-- Generator: Adobe Illustrator 15.0.0, SVG Export Plug-In . SVG Version: 6.00 Build 0)  -->
<!DOCTYPE svg PUBLIC "-//W3C//DTD SVG 1.1//EN" "http://www.w3.org/Graphics/SVG/1.1/DTD/svg11.dtd">
<svg version="1.1" id="Layer_1" xmlns="http://www.w3.org/2000/svg" xmlns:xlink="http://www.w3.org/1999/xlink" x="0px" y="0px"
	 width="246px" height="100px" viewBox="0 0 246 100" enable-background="new 0 0 246 100" xml:space="preserve">
<g>
	<polygon fill="#CCCCCC" points="132.777,21.499 145.2,46.688 173,50.727 152.889,70.324 157.637,98.016 132.777,84.938 
		107.92,98.016 112.667,70.324 92.557,50.727 120.35,46.688 	"/>
	<path fill="#CCCCCC" d="M138.738,79.273l-25.11-13.207L88.519,79.273l4.796-27.969L73,31.509l28.073-4.079l12.555-25.445
		l12.548,25.445l28.081,4.079l-20.315,19.796L138.738,79.273z M78.975,33.452l17.327,16.889l-4.087,23.853l21.413-11.266
		l21.414,11.266l-4.095-23.853l17.326-16.889l-23.945-3.48l-10.7-21.7l-10.706,21.7L78.975,33.452z"/>
</g>
</svg>
