<?xml version="1.0" encoding="utf-8"?>
<!-- Generator: Adobe Illustrator 15.0.0, SVG Export Plug-In . SVG Version: 6.00 Build 0)  -->
<!DOCTYPE svg PUBLIC "-//W3C//DTD SVG 1.1//EN" "http://www.w3.org/Graphics/SVG/1.1/DTD/svg11.dtd">
<svg version="1.1" id="Layer_1" xmlns="http://www.w3.org/2000/svg" xmlns:xlink="http://www.w3.org/1999/xlink" x="0px" y="0px"
	 width="246px" height="100px" viewBox="0 0 246 100" enable-background="new 0 0 246 100" xml:space="preserve">
<g>
	<path fill="#CCCCCC" d="M141.8,24.6c-2.2,0-3.899,1.8-3.899,3.9v17.1c0,0.7-0.601,1.3-1.301,1.3c-0.699,0-1.3-0.6-1.3-1.3v-25
		c0-2.2-1.8-3.9-3.899-3.9c-2.199,0-3.899,1.8-3.899,3.9V43c0,0.7-0.601,1.3-1.3,1.3c-0.7,0-1.301-0.6-1.301-1.3V18
		c0-2.2-1.799-3.9-3.899-3.9c-2.2,0-3.9,1.8-3.9,3.9v25c0,0.7-0.6,1.3-1.3,1.3c-0.7,0-1.3-0.6-1.3-1.3V23.3c0-2.2-1.8-3.9-3.9-3.9
		c-2.2,0-3.9,1.8-3.9,3.9v32.9L101,48.9c-1.6-2.4-4.7-3.2-6.9-1.8c-2.2,1.4-2.8,4.5-1.2,7c0,0,8.6,13,12.3,18.602
		c3.7,5.6,9.6,9.898,20.7,9.898c18.398,0,20-14.199,20-18.398V28.6C145.8,26.4,144,24.6,141.8,24.6z"/>
	<path fill="#CCCCCC" d="M123,0C95.4,0,73,22.4,73,50c0,27.6,22.4,50,50,50c27.6,0,50-22.4,50-50C173,22.4,150.6,0,123,0L123,0z
		 M123,93.7C98.9,93.7,79.3,74.1,79.3,50c0-24.1,19.6-43.7,43.7-43.7c24.1,0,43.8,19.6,43.8,43.7C166.7,74.1,147.1,93.7,123,93.7
		L123,93.7z"/>
</g>
</svg>
