<?xml version="1.0" encoding="utf-8"?>
<!-- Generator: Adobe Illustrator 15.0.0, SVG Export Plug-In . SVG Version: 6.00 Build 0)  -->
<!DOCTYPE svg PUBLIC "-//W3C//DTD SVG 1.1//EN" "http://www.w3.org/Graphics/SVG/1.1/DTD/svg11.dtd">
<svg version="1.1" id="Layer_1" xmlns="http://www.w3.org/2000/svg" xmlns:xlink="http://www.w3.org/1999/xlink" x="0px" y="0px"
	 width="246px" height="100px" viewBox="0 0 246 100" enable-background="new 0 0 246 100" xml:space="preserve">
<g>
	<g>
		<path fill="#CCCCCC" d="M171.164,71.9l-9.601-21.602c-0.3-0.6-0.8-1-1.5-1h-4.601c-0.101-2.5-2.101-4.5-4.699-4.5
			c-2.5,0-4.601,2-4.7,4.5h-6.101c-0.899,0-1.601,0.7-1.601,1.602v4.5V58.6v17.7c-3.8-6.7-17.601-31-17.7-31.1
			c-1.2-2.3-3.2-4.3-6-4.3c-3.5,0-6.3,2.8-6.3,6.4c0,2.1,1.1,4,2.7,5.2l-1.301,3.4c-0.199,0.398-0.199,0.898,0,1.3
			c0.2,0.399,0.5,0.7,1,0.899c1.101,0.399,1.7,1.699,1.301,2.899c-0.2,0.601-0.601,1-1.2,1.2c-0.5,0.199-1.2,0.3-1.7,0
			c-0.6-0.2-1.1-0.7-1.3-1.301c-0.3-0.899-1.3-1.399-2.2-1c-0.9,0.301-1.3,1.301-1,2.199c0.6,1.5,1.8,2.801,3.3,3.301
			c0.7,0.301,1.3,0.399,2,0.399c0.8,0,1.601-0.2,2.3-0.5c1.4-0.6,2.4-1.7,3-3.2c0.9-2.398,0.101-5-1.8-6.5l0.8-2.199
			c0.101,0,0.2,0,0.4,0c0.7,0,1.3-0.101,1.9-0.301v23.2h-4.9h-3.2h-3.6c-0.9,0-1.601,0.7-1.601,1.601v10.601
			c0,0.899,0.7,1.601,1.601,1.601h6.5c0.1,4.801,4.1,8.699,8.899,8.699c4.801,0,8.801-3.898,8.9-8.699h17.899
			c0.101,4.801,4.101,8.699,8.899,8.699c4.801,0,8.801-3.898,8.899-8.699h4.9c0.899,0,1.6-0.699,1.6-1.601V72.6
			C171.363,72.3,171.265,72.1,171.164,71.9z M120.264,94.6c-2.5,0-4.5-2-4.5-4.398c0-2.5,2-4.5,4.5-4.5s4.4,2,4.4,4.5
			C124.664,92.6,122.664,94.6,120.264,94.6z M121.264,76.5V55.4l11.9,21.1H121.264L121.264,76.5z M160.363,90.4
			c0,0.8-0.3,1.6-0.699,2.199c-0.801,1.199-2.2,2-3.7,2c-2.399,0-4.3-1.899-4.399-4.199c0-0.102,0-0.2,0-0.2c0-2.5,2-4.4,4.5-4.4
			c0.7,0,1.399,0.2,2,0.4c1.5,0.7,2.5,2.2,2.5,4C160.363,90.2,160.363,90.3,160.363,90.4z M146.664,72V54.7h11.199l7.301,17.3
			H146.664z"/>
		<path fill="#CCCCCC" d="M122.363,90.1c0,1.2-0.9,2.102-2.101,2.102c-1.199,0-2.1-0.9-2.1-2.102c0-1.1,0.9-2.1,2.1-2.1
			C121.463,88,122.363,89,122.363,90.1z"/>
		<path fill="#CCCCCC" d="M158.063,90.1c0,1.2-0.899,2.102-2.101,2.102c-1.199,0-2.101-0.9-2.101-2.102c0-1.1,0.9-2.1,2.101-2.1
			C157.063,88,158.063,89,158.063,90.1z"/>
		<path fill="#CCCCCC" d="M145.863,40.5c-0.6,0.6-0.6,1.5,0,2c0.601,0.6,1.5,0.6,2,0c1.5-1.5,4-1.5,5.601,0c0.601,0.6,1.5,0.6,2,0
			c0.601-0.6,0.601-1.5,0-2C152.765,37.9,148.464,37.9,145.863,40.5L145.863,40.5z"/>
		<path fill="#CCCCCC" d="M142.664,36.3c-0.601,0.6-0.601,1.5,0,2c0.601,0.6,1.5,0.6,2,0c3.3-3.3,8.601-3.3,11.899,0
			c0.601,0.6,1.5,0.6,2,0c0.601-0.6,0.601-1.5,0-2C154.164,31.9,147.063,31.9,142.664,36.3L142.664,36.3z"/>
		<path fill="#CCCCCC" d="M138.964,32.2c-0.601,0.6-0.601,1.5,0,2c0.601,0.6,1.5,0.6,2,0c5.399-5.4,14.301-5.4,19.7,0
			c0.601,0.6,1.5,0.6,2,0c0.601-0.6,0.601-1.5,0-2C156.164,25.6,145.464,25.6,138.964,32.2L138.964,32.2z"/>
	</g>
	<path fill="#CCCCCC" d="M135.265,14.1c-0.301-0.4-0.801-0.6-1.2-0.6h-5.899c-1.5-3.9-3.399-7.6-5.5-9.1c-7.5-4.9-27.4-4.9-34.9,0
		c-2.199,1.4-4.1,5.2-5.6,9.1h-5.9c-0.5,0-0.899,0.2-1.199,0.6c-0.301,0.4-0.5,0.9-0.4,1.3l0.9,4.3c0.1,0.7,0.8,1.2,1.5,1.2h1.8
		c-1.7,2-2.5,4.4-2.5,6.9c0,3,1.1,5.8,3.3,7.8c0,0,0,0,0.1,0v6c0,1.3,1,2.3,2.301,2.3h5.5c1.3,0,2.3-1,2.3-2.3v-2.4h30.7v2.4
		c0,1.3,1,2.3,2.3,2.3h5.5c1.3,0,2.3-1,2.3-2.3v-5.8c2.2-2.1,3.3-4.9,3.3-7.7c0-2.6-0.899-5.1-2.699-7.1h1.899
		c0.7,0,1.399-0.5,1.5-1.2l0.899-4.3C135.765,14.9,135.563,14.5,135.265,14.1L135.265,14.1z M90.264,8.4c6-3.9,23.801-3.9,29.801,0
		c1.199,0.8,2.699,3.8,4,7.6H86.264C87.664,12.2,89.063,9.1,90.264,8.4L90.264,8.4z M83.264,28.4c0-2.5,2.101-4.6,4.601-4.6
		s4.6,2.1,4.6,4.6s-2.1,4.6-4.6,4.6S83.264,30.9,83.264,28.4L83.264,28.4z M122.463,33c-2.5,0-4.6-2.1-4.6-4.6s2.1-4.6,4.6-4.6
		c2.5,0,4.601,2.1,4.601,4.6C127.164,30.9,125.063,33,122.463,33L122.463,33z"/>
</g>
</svg>
