<?xml version="1.0" encoding="utf-8"?>
<!-- Generator: Adobe Illustrator 15.0.0, SVG Export Plug-In . SVG Version: 6.00 Build 0)  -->
<!DOCTYPE svg PUBLIC "-//W3C//DTD SVG 1.1//EN" "http://www.w3.org/Graphics/SVG/1.1/DTD/svg11.dtd">
<svg version="1.1" id="Layer_1" xmlns="http://www.w3.org/2000/svg" xmlns:xlink="http://www.w3.org/1999/xlink" x="0px" y="0px"
	 width="246px" height="100px" viewBox="0 0 246 100" enable-background="new 0 0 246 100" xml:space="preserve">
<g>
	<path fill="#CCCCCC" stroke="#666666" stroke-width="0.7" stroke-miterlimit="10" d="M122.95,0.5c-19.5,0-35.4,15.9-35.4,35.4
		c0,18.3,26.5,38.2,34.2,62.7c0.2,0.5,0.7,0.9,1.2,0.9c0.6,0,1-0.4,1.2-0.9c7.399-25.1,34.3-44.3,34.3-62.7
		C158.35,16.4,142.45,0.5,122.95,0.5L122.95,0.5z"/>
	<path fill="#4D4D4D" stroke="#666666" stroke-width="0.7" stroke-miterlimit="10" d="M122.95,62.8c-15.3,0-27.8-12.5-27.8-27.8
		s12.5-27.8,27.8-27.8s27.8,12.5,27.8,27.8S138.25,62.8,122.95,62.8L122.95,62.8z"/>
	<path fill="#CCCCCC" stroke="#666666" stroke-width="0.7" stroke-miterlimit="10" d="M146.35,26.5c-0.199-0.3-0.6-0.5-0.899-0.5
		h-4.601c-1.1-3-2.6-5.9-4.3-7c-5.8-3.8-21.3-3.8-27.1,0c-1.7,1.1-3.2,4-4.3,7h-4.601c-0.399,0-0.7,0.2-0.899,0.5
		c-0.2,0.3-0.301,0.7-0.301,1l0.7,3.3c0.101,0.6,0.601,1,1.2,1h1.4c-1.301,1.5-2,3.4-2,5.4c0,2.4,0.899,4.5,2.5,6c0,0,0,0,0.1,0v4.6
		c0,1,0.8,1.8,1.8,1.8h4.2c1,0,1.8-0.8,1.8-1.8v-1.9h23.8v1.9c0,1,0.801,1.8,1.801,1.8h4.3c1,0,1.8-0.8,1.8-1.8v-4.5
		c1.7-1.6,2.601-3.8,2.601-6c0-2-0.699-4-2.101-5.5h1.5c0.601,0,1.101-0.4,1.2-1l0.7-3.3C146.65,27.1,146.55,26.8,146.35,26.5
		L146.35,26.5z M111.45,22c4.6-3.1,18.5-3.1,23.1,0c0.9,0.6,2.102,3,3.102,5.9H108.25C109.35,25,110.45,22.6,111.45,22L111.45,22z
		 M105.95,37.6c0-2,1.6-3.6,3.6-3.6s3.601,1.6,3.601,3.6s-1.601,3.6-3.601,3.6C107.55,41.1,105.95,39.5,105.95,37.6L105.95,37.6z
		 M136.45,41.1c-2,0-3.601-1.6-3.601-3.6s1.601-3.6,3.601-3.6s3.6,1.6,3.6,3.6C139.95,39.5,138.35,41.1,136.45,41.1L136.45,41.1z"/>
</g>
</svg>
